<svg xmlns="http://www.w3.org/2000/svg" xmlns:xlink="http://www.w3.org/1999/xlink" class="character" width="300" height="600"><g transform="matrix(2.3,0,0,2.3,-195.2882,-388.968)"><g transform="matrix(0.8,0,0,0.81,150,225.14)" class="head"><g><g><g class="c2"><g><g><path fill="#180900" fill-opacity="1" stroke="none" d="M19.75 -30.4 Q12.45 -35.8 3.1 -37.05 -6.6 -38.3 -14.6 -34.55 -21.45 -31.4 -22.1 -25.7 L-22.75 -20 Q-23.2 -16.6 -23.3 -14.3 -23.4 -11.9 -24 -5.6 -24.6 0.35 -24.95 3.1 -25.45 6.55 -27.1 21.35 -28.1 30.3 -23.1 42.05 -23.15 39.55 -22.4 36.75 -21.35 33.55 -20.85 31.7 -21.7 39 -19.4 44.4 -18.1 47.55 -14.15 51.25 -11.9 53.4 -7.4 57.05 -7.5 55.35 -7.6 54.5 -7.7 52.95 -7.35 51.95 -6.05 55.3 -5.5 56.45 -4.35 58.95 -2.85 60.55 -3 56.9 -1.3 54.4 -0.35 55.7 -0.05 58.2 0.15 59.65 0.2 62.35 6 58.05 10.05 52.15 14.95 44.95 14.4 38.95 14.7 41.45 14.6 47.75 14.5 53.4 15.15 56.55 15.2 54.25 17.4 51.8 20.1 49.2 21.15 47.95 24.95 43.3 26.4 36.7 L25.9 48.05 Q28.5 40.85 29.6 36.1 31.15 29.35 30.85 23.65 30.05 8 28.4 -3.05 27.65 -7.9 25.05 -20.45 24.25 -24.35 23.45 -26 22.3 -28.55 19.75 -30.4 Z" _p="true"></path></g></g><g><g><path fill="#000000" fill-opacity="0.2" stroke="none" d="M8.75 -14.7 Q7.55 -14.85 4.45 -14.1 0.3 -13.2 -2.15 -12.45 -6.6 -11.05 -7.85 -9.2 -8.45 -8.3 -8.4 -6.45 -8.4 -3.5 -8.4 -3.4 -8.7 -0.55 -10.15 3.9 -12 9.6 -12.35 11.1 -12.8 13.15 -13.65 17.45 -14.45 21.35 -15.3 23.6 -16.5 16.6 -16.35 9.65 -16.8 11.05 -20.4 19.75 -22.9 25.8 -23.25 30.25 -23.55 34.95 -23 40.05 -22.8 38.25 -22.15 35.9 -21.25 33.2 -20.85 31.7 -21.7 39 -19.4 44.4 -18.1 47.55 -14.15 51.25 -11.9 53.4 -7.4 57.05 -7.5 55.35 -7.6 54.5 -7.7 52.95 -7.35 51.95 -6.05 55.3 -5.5 56.45 -4.35 58.95 -2.85 60.55 -3 56.9 -1.3 54.4 -0.35 55.7 -0.05 58.2 0.15 59.65 0.2 62.35 6 58.05 10.05 52.15 14.85 45.15 14.45 39.25 14.65 41.5 14.65 44.85 14.65 46.85 14.6 50.8 15.05 49.45 16.4 46.65 17.7 44 18.1 42.55 19 39.35 19.6 34.85 20.5 28.6 20.25 22.5 19.9 15.4 18 10.7 21.2 18.05 22.15 20.35 22.95 22.3 23.25 25.55 23.65 29.6 23.9 30.8 23.95 29.25 24.75 25.95 25.55 22.55 25.65 21.1 26.2 12.25 25.05 4.3 23.65 -5.65 19.9 -11.15 19.3 -12.05 16.1 -11.95 12.8 -11.8 12.15 -12.6 10.55 -14.5 8.75 -14.7 Z" _p="true"></path></g></g><g><path stroke="#000000" stroke-width="1" stroke-linejoin="round" stroke-linecap="round" fill="none" d="M26.07 47.52 Q30.94 33.71 30.85 23.65 30.7 11.05 28.55 -1.7 25.95 -14.75 24.9 -19.9 24.05 -24.15 23.4 -25.75 22.25 -28.55 19.75 -30.4 12.45 -35.8 3.1 -37.05 -6.6 -38.3 -14.6 -34.55 -21.45 -31.4 -22.1 -25.7 L-22.75 -20 Q-23.2 -16.6 -23.3 -14.3 -23.7 -5.15 -26.35 13.85 -27.71 29.71 -23.6 40.32 M-23.6 40.35 L-23.1 41.55 M-7.4 57.05 Q-7.5 55.35 -7.6 54.5 -7.7 52.95 -7.35 51.95 -6.05 55.3 -5.5 56.45 -4.35 58.95 -2.85 60.55 -3 56.9 -1.3 54.4 -0.35 55.7 -0.05 58.2 0.15 59.65 0.2 62.35" _p="true" stroke-opacity="1"></path><path stroke="#000000" stroke-width="0.5" stroke-linejoin="round" stroke-linecap="round" fill="none" d="M-23.6 40.32 Q-23.62 30.44 -22.55 22.7 -21.2 13.2 -18.1 5.1 M22.15 5.35 Q26.15 19 23.75 30.55 22.5 36.65 19.55 42.65 17.3 47.3 16.5 49.4 14.85 53.85 15.15 56.55 15.2 54.25 17.4 51.8 20.1 49.2 21.15 47.95 24.95 43.3 26.4 36.7 L26.07 47.52 M8.4 23.6 Q8.45 35.5 7 43.6 5.1 54.3 0.2 62.35 6 58.05 10.05 52.15 14.95 44.95 14.4 38.95 14.7 41.45 14.6 47.75 14.5 53.4 15.15 56.55 M-23.6 40.32 L-23.6 40.35 M-23.1 41.55 Q-23.1 39.25 -22.4 36.75 -21.35 33.55 -20.85 31.7 -21.7 39 -19.4 44.4 -18.1 47.55 -14.15 51.25 -13.02 52.32 -11.32 53.77 -14.86 47.35 -16.2 38.95 -17.4 31.25 -16.85 20.85 M-11.32 53.77 Q-9.64 55.22 -7.4 57.05" _p="true" stroke-opacity="1"></path></g></g></g>
</g></g><g transform="matrix(0.72,-0.3219,0.32,0.72,164.36,247.13)" class="body"><g><g><g class="c1"><g class="tb"><g><g><path fill="#eaeae8" fill-opacity="1" stroke="none" d="M-1.6 -7.65 Q-4.8 -6.95 -6.6 -4.3 -7.9 -2.3 -7.85 0 -7.85 0.75 -7.7 1.6 -7.05 4.8 -4.35 6.55 -2.3 7.9 0 7.85 0.75 7.85 1.55 7.7 4.75 7.05 6.5 4.35 7.85 2.3 7.85 0 7.85 -0.75 7.65 -1.55 7 -4.75 4.3 -6.55 2.3 -7.85 0 -7.85 -0.75 -7.85 -1.6 -7.65 Z" _p="true"></path></g><path stroke="#000000" stroke-width="1" stroke-linejoin="miter" stroke-linecap="round" stroke-miterlimit="1" fill="none" d="M6.5 4.35 Q4.75 7.05 1.55 7.7 0.75 7.85 0 7.85 -2.3 7.9 -4.35 6.55 -7.05 4.8 -7.7 1.6 -7.85 0.75 -7.85 0 -7.9 -2.3 -6.6 -4.3 -4.8 -6.95 -1.6 -7.65 -0.75 -7.85 0 -7.85 2.3 -7.85 4.3 -6.55 7 -4.75 7.65 -1.55 7.85 -0.75 7.85 0 7.85 2.3 6.5 4.35 Z" _p="true" stroke-opacity="1"></path></g></g><g class="ta" transform="matrix(1,0,0,1,0,39.95)"><g><g><path fill="#eaeae8" fill-opacity="1" stroke="none" d="M-1.3 -6.25 Q-3.9 -5.7 -5.4 -3.5 -6.45 -1.85 -6.4 0 -6.4 0.65 -6.3 1.3 -5.8 3.9 -3.55 5.35 -1.9 6.45 0 6.4 0.65 6.4 1.25 6.3 3.85 5.8 5.3 3.6 6.4 1.9 6.4 0 6.4 -0.65 6.25 -1.25 5.75 -3.85 3.55 -5.35 1.85 -6.4 0 -6.4 -0.65 -6.4 -1.3 -6.25 Z" _p="true"></path></g><path stroke="#000000" stroke-width="1" stroke-linejoin="miter" stroke-linecap="round" stroke-miterlimit="1" fill="none" d="M5.3 3.6 Q3.85 5.8 1.25 6.3 0.65 6.4 0 6.4 -1.9 6.45 -3.55 5.35 -5.8 3.9 -6.3 1.3 -6.4 0.65 -6.4 0 -6.45 -1.85 -5.4 -3.5 -3.9 -5.7 -1.3 -6.25 -0.65 -6.4 0 -6.4 1.85 -6.4 3.55 -5.35 5.75 -3.85 6.25 -1.25 6.4 -0.65 6.4 0 6.4 1.9 5.3 3.6 Z" _p="true" stroke-opacity="1"></path></g></g><g><g><path fill="#eaeae8" fill-opacity="1" stroke="none" d="M6.45 39.9 Q6.8 36.1 7.15 32.4 7.8 25 7.85 19.15 7.85 10.75 7.85 0.05 7.83 0.02 7.8 0 -0.06 -1.09 -7.75 0 -7.80 0.04 -7.85 0.1 L-6.35 39.9 6.45 39.9 Z" _p="true"></path></g><path stroke="#000000" stroke-width="1" stroke-linejoin="miter" stroke-linecap="round" stroke-miterlimit="1" fill="none" d="M7.85 0.05 Q7.85 10.75 7.85 19.15 7.8 25 7.15 32.4 6.8 36.1 6.45 39.9 M-6.35 39.9 L-7.85 0.1" _p="true" stroke-opacity="1"></path></g></g></g>
</g></g><g transform="matrix(-0.7437,-0.2707,-0.2707,0.74,135.64,247.13)" class="body"><g><g><g class="c1"><g class="tb"><g><g><path fill="#eaeae8" fill-opacity="1" stroke="none" d="M-1.6 -7.65 Q-4.8 -6.95 -6.6 -4.3 -7.9 -2.3 -7.85 0 -7.85 0.75 -7.7 1.6 -7.05 4.8 -4.35 6.55 -2.3 7.9 0 7.85 0.75 7.85 1.55 7.7 4.75 7.05 6.5 4.35 7.85 2.3 7.85 0 7.85 -0.75 7.65 -1.55 7 -4.75 4.3 -6.55 2.3 -7.85 0 -7.85 -0.75 -7.85 -1.6 -7.65 Z" _p="true"></path></g><path stroke="#000000" stroke-width="1" stroke-linejoin="miter" stroke-linecap="round" stroke-miterlimit="1" fill="none" d="M6.5 4.35 Q4.75 7.05 1.55 7.7 0.75 7.85 0 7.85 -2.3 7.9 -4.35 6.55 -7.05 4.8 -7.7 1.6 -7.85 0.75 -7.85 0 -7.9 -2.3 -6.6 -4.3 -4.8 -6.95 -1.6 -7.65 -0.75 -7.85 0 -7.85 2.3 -7.85 4.3 -6.55 7 -4.75 7.65 -1.55 7.85 -0.75 7.85 0 7.85 2.3 6.5 4.35 Z" _p="true" stroke-opacity="1"></path></g></g><g class="ta" transform="matrix(1,0,0,1,0,39.95)"><g><g><path fill="#eaeae8" fill-opacity="1" stroke="none" d="M-1.3 -6.25 Q-3.9 -5.7 -5.4 -3.5 -6.45 -1.85 -6.4 0 -6.4 0.65 -6.3 1.3 -5.8 3.9 -3.55 5.35 -1.9 6.45 0 6.4 0.65 6.4 1.25 6.3 3.85 5.8 5.3 3.6 6.4 1.9 6.4 0 6.4 -0.65 6.25 -1.25 5.75 -3.85 3.55 -5.35 1.85 -6.4 0 -6.4 -0.65 -6.4 -1.3 -6.25 Z" _p="true"></path></g><path stroke="#000000" stroke-width="1" stroke-linejoin="miter" stroke-linecap="round" stroke-miterlimit="1" fill="none" d="M5.3 3.6 Q3.85 5.8 1.25 6.3 0.65 6.4 0 6.4 -1.9 6.45 -3.55 5.35 -5.8 3.9 -6.3 1.3 -6.4 0.65 -6.4 0 -6.45 -1.85 -5.4 -3.5 -3.9 -5.7 -1.3 -6.25 -0.65 -6.4 0 -6.4 1.85 -6.4 3.55 -5.35 5.75 -3.85 6.25 -1.25 6.4 -0.65 6.4 0 6.4 1.9 5.3 3.6 Z" _p="true" stroke-opacity="1"></path></g></g><g><g><path fill="#eaeae8" fill-opacity="1" stroke="none" d="M6.45 39.9 Q6.8 36.1 7.15 32.4 7.8 25 7.85 19.15 7.85 10.75 7.85 0.05 7.83 0.02 7.8 0 -0.06 -1.09 -7.75 0 -7.80 0.04 -7.85 0.1 L-6.35 39.9 6.45 39.9 Z" _p="true"></path></g><path stroke="#000000" stroke-width="1" stroke-linejoin="miter" stroke-linecap="round" stroke-miterlimit="1" fill="none" d="M7.85 0.05 Q7.85 10.75 7.85 19.15 7.8 25 7.15 32.4 6.8 36.1 6.45 39.9 M-6.35 39.9 L-7.85 0.1" _p="true" stroke-opacity="1"></path></g></g></g>
</g></g><g transform="matrix(-0.791,-0.0276,-0.0276,0.79,143.35,307.2)" class="body"><g><g><g class="c1"><g class="ta" transform="matrix(1,0,0,1,0,62.75)"><g><g><path fill="#eaeae8" fill-opacity="1" stroke="none" d="M-1.65 -8 Q-5 -7.3 -6.9 -4.5 -8.25 -2.4 -8.2 0 -8.2 0.8 -8.05 1.65 -7.35 5 -4.55 6.85 -2.45 8.25 0 8.2 0.8 8.2 1.6 8.05 4.95 7.35 6.8 4.55 8.2 2.45 8.2 0 8.2 -0.8 8 -1.6 7.35 -4.95 4.5 -6.85 2.4 -8.2 0 -8.2 -0.8 -8.2 -1.65 -8 Z" _p="true"></path></g><path stroke="#000000" stroke-width="1" stroke-linejoin="miter" stroke-linecap="round" stroke-miterlimit="1" fill="none" d="M6.8 4.55 Q4.95 7.35 1.6 8.05 0.8 8.2 0 8.2 -2.45 8.25 -4.55 6.85 -7.35 5 -8.05 1.65 -8.2 0.8 -8.2 0 -8.25 -2.4 -6.9 -4.5 -5 -7.3 -1.65 -8 -0.8 -8.2 0 -8.2 2.4 -8.2 4.5 -6.85 7.35 -4.95 8 -1.6 8.2 -0.8 8.2 0 8.2 2.45 6.8 4.55 Z" _p="true" stroke-opacity="1"></path></g></g><g><g><path fill="#eaeae8" fill-opacity="1" stroke="none" d="M9.8 42.25 Q10.45 37.7 10.75 35.3 11.3 30.95 11.4 27.7 L11.75 9.95 Q4.55 9.45 -0.5 9.45 -5.35 9.45 -11.25 11.3 -11.1 12.45 -10.7 18.6 -10.05 23.3 -9.7 35.95 -9.55 40.1 -8.75 48.1 -8.42 50.54 -8.3 52.65 L-8.2 54.9 Q-8.10 55.69 -8.25 62.75 L8.25 62.75 Q8.41 59.87 8.5 55.85 8.6 52 8.7 51.2 9.75 43.1 9.8 42.25 Z" _p="true"></path></g><path stroke="#000000" stroke-width="1" stroke-linejoin="miter" stroke-linecap="round" stroke-miterlimit="1" fill="none" d="M11.75 9.95 L11.4 27.7 Q11.3 30.95 10.75 35.3 10.45 37.7 9.8 42.25 9.75 43.1 8.7 51.2 8.6 52 8.5 55.85 8.41 59.87 8.25 62.75 M-8.22 62.75 Q-8.10 55.69 -8.2 54.9 L-8.27 52.65 Q-8.42 50.54 -8.75 48.1 -9.55 40.1 -9.7 35.95 -10.05 23.3 -10.7 18.6 -11.1 12.45 -11.25 11.3" _p="true" stroke-opacity="1"></path></g></g><g class="c5"><g class="tb"><g><g><path fill="#5e7bc1" fill-opacity="1" stroke="none" d="M9.7 -9.7 Q5.7 -13.75 0 -13.75 -5.7 -13.75 -9.7 -9.7 -13.75 -5.7 -13.75 0 -13.75 5.7 -9.7 9.75 -5.7 13.75 0 13.75 5.7 13.75 9.7 9.75 13.75 5.7 13.75 0 13.75 -5.7 9.7 -9.7 Z" _p="true"></path></g><path stroke="#000000" stroke-width="1" stroke-linejoin="round" stroke-linecap="round" fill="none" d="M13.75 0 Q13.75 5.7 9.7 9.75 5.7 13.75 0 13.75 -5.7 13.75 -9.7 9.75 -13.75 5.7 -13.75 0 -13.75 -5.7 -9.7 -9.7 -5.7 -13.75 0 -13.75 5.7 -13.75 9.7 -9.7 13.75 -5.7 13.75 0 Z" _p="true" stroke-opacity="1"></path></g></g><g><g><path fill="#5e7bc1" fill-opacity="1" stroke="none" d="M4.45 13.55 Q7.95 13.3 11.9 12.25 13.9 5.4 13.75 -0.2 -0.05 -1.3 -13.75 -0.2 -13.7 2.7 -12.75 7.3 -11.8 11.75 -11.8 11.8 -5.65 13.4 -1.75 13.55 2.35 13.7 4.45 13.55 Z" _p="true"></path></g><path stroke="#000000" stroke-width="1" stroke-linejoin="miter" stroke-linecap="round" stroke-miterlimit="1" fill="none" d="M13.75 -0.2 Q13.9 5.4 11.9 12.25 7.95 13.3 4.45 13.55 2.35 13.7 -1.75 13.55 -5.65 13.4 -11.8 11.8 -11.8 11.75 -12.75 7.3 -13.7 2.7 -13.75 -0.2" _p="true" stroke-opacity="1"></path></g></g></g>
</g></g><g transform="matrix(-0.7184,0,0,0.72,141.62,401.16)" class="body"><g><g><g class="c1"><g class="ta"><g><g><path fill="#eaeae8" fill-opacity="1" stroke="none" d="M5.75 -1.15 Q5.3 -3.55 3.25 -4.9 1.7 -5.95 0 -5.9 -0.6 -5.9 -1.2 -5.75 -3.6 -5.25 -4.95 -3.25 -5.95 -1.7 -5.95 0 -5.95 0.6 -5.8 1.2 -5.3 3.6 -3.3 4.9 -1.75 5.95 0 5.95 0.6 5.95 1.15 5.8 3.55 5.35 4.9 3.3 5.95 1.75 5.9 0 5.9 -0.6 5.75 -1.15 Z" _p="true"></path></g><path stroke="#000000" stroke-width="1" stroke-linejoin="miter" stroke-linecap="round" stroke-miterlimit="1" fill="none" d="M0 -5.9 Q1.7 -5.95 3.25 -4.9 5.3 -3.55 5.75 -1.15 5.9 -0.6 5.9 0 5.95 1.75 4.9 3.3 3.55 5.35 1.15 5.8 0.6 5.95 0 5.95 -1.75 5.95 -3.3 4.9 -5.3 3.6 -5.8 1.2 -5.95 0.6 -5.95 0 -5.95 -1.7 -4.95 -3.25 -3.6 -5.25 -1.2 -5.75 -0.6 -5.9 0 -5.9 Z" _p="true" stroke-opacity="1"></path></g></g><g><g><g><path fill="#eaeae8" fill-opacity="1" stroke="none" d="M22.9 21.8 Q25.35 21.3 26.75 20.25 27.45 19.75 27.85 19.2 29.2 17.05 26.45 14.3 26.4 14.3 26.35 14.25 24.65 12.7 21.55 11.1 20.25 10.55 19.2 10.05 17.3 9.15 16.3 8.65 15.4 8.25 14.05 7.25 13.8 7.05 13.6 6.9 L9.65 4.65 Q8.55 4.05 7.35 2.55 6.1 1.05 5.9 -0.05 L-5.95 -0.05 Q-6.05 0.7 -6.45 2.05 -6.9 3.75 -7.3 6.95 L-7.35 7.45 Q-7.4 7.75 -7.4 8 -7.6 10.05 -7.55 11.75 -7.45 13.25 -6.45 14.25 -6.2 14.5 -5.9 14.75 -5.45 15.05 -4.25 15.35 -2.5 15.75 -1.95 15.95 0.15 16.65 1.8 17.7 2.8 18.35 4.9 19.9 6.7 21.2 8.65 22 9.5 22.4 10.4 22.7 13.05 23.45 16.65 23 17.6 22.9 22.9 21.8 Z" _p="true"></path></g><path stroke="#000000" stroke-width="1" stroke-linejoin="miter" stroke-linecap="round" stroke-miterlimit="3" fill="none" d="M5.9 -0.05 Q6.1 1.05 7.35 2.55 8.55 4.05 9.65 4.65 L13.6 6.9 Q13.8 7.05 14.05 7.25 15.4 8.25 16.3 8.65 17.3 9.15 19.2 10.05 20.25 10.55 21.55 11.1 24.65 12.7 26.35 14.25 26.4 14.3 26.45 14.3 29.2 17.05 27.85 19.2 27.45 19.75 26.75 20.25 25.35 21.3 22.9 21.8 17.6 22.9 16.65 23 13.05 23.45 10.4 22.7 9.5 22.4 8.65 22 6.7 21.2 4.9 19.9 2.8 18.35 1.8 17.7 0.15 16.65 -1.95 15.95 -2.5 15.75 -4.25 15.35 -5.45 15.05 -5.9 14.75 -6.2 14.5 -6.45 14.25 -7.45 13.25 -7.55 11.75 -7.6 10.05 -7.4 8 -7.4 7.75 -7.35 7.45 L-7.3 6.95 Q-6.9 3.75 -6.45 2.05 -6.05 0.7 -5.95 -0.05" _p="true" stroke-opacity="1"></path></g></g><g><path stroke="#8c8c8b" stroke-opacity="1" stroke-width="0.3" stroke-linejoin="miter" stroke-linecap="round" stroke-miterlimit="3" fill="none" d="M25.65 20.4 Q26.2 19.9 26.3 19.5 26.45 19.15 26.3 18.7 26.05 17.85 25.15 17.3 M23.35 21.35 Q23.95 20.75 24.1 20.3 24.2 19.9 24.05 19.35 23.75 18.3 22.65 17.85 M20.45 22.25 Q21.15 21.55 21.35 21.05 21.5 20.55 21.3 19.9 20.95 18.7 19.4 18.25 M16.35 22.85 Q17.35 22.25 17.7 21.85 18.2 21.2 18 20.3 17.75 19.15 16.8 18.6 15.65 17.95 13.4 17.8 M-4.2 0.65 Q-4.1 1.3 -5.05 3.15 -5.65 4.35 -4.25 5.25" _p="true"></path></g></g></g>
</g></g><g transform="matrix(-0.7914,0,0,0.79,141.62,356.87)" class="body"><g><g><g class="c1"><g class="ta" transform="matrix(1,0,0,1,0,55.75)" display="none"><g><g><path fill="#eaeae8" fill-opacity="1" stroke="none" d="M5.75 -1.15 Q5.3 -3.55 3.25 -4.9 1.7 -5.95 0 -5.9 -0.6 -5.9 -1.2 -5.75 -3.6 -5.25 -4.95 -3.25 -5.95 -1.7 -5.95 0 -5.95 0.6 -5.8 1.2 -5.3 3.6 -3.3 4.9 -1.75 5.95 0 5.95 0.6 5.95 1.15 5.8 3.55 5.35 4.9 3.3 5.95 1.75 5.9 0 5.9 -0.6 5.75 -1.15 Z" _p="true"></path></g><path stroke="#000000" stroke-width="1" stroke-linejoin="miter" stroke-linecap="round" stroke-miterlimit="1" fill="none" d="M0 -5.9 Q1.7 -5.95 3.25 -4.9 5.3 -3.55 5.75 -1.15 5.9 -0.6 5.9 0 5.95 1.75 4.9 3.3 3.55 5.35 1.15 5.8 0.6 5.95 0 5.95 -1.75 5.95 -3.3 4.9 -5.3 3.6 -5.8 1.2 -5.95 0.6 -5.95 0 -5.95 -1.7 -4.95 -3.25 -3.6 -5.25 -1.2 -5.75 -0.6 -5.9 0 -5.9 Z" _p="true" stroke-opacity="1"></path></g></g><g class="tb" display="none"><g><g><path fill="#eaeae8" fill-opacity="1" stroke="none" d="M-1.65 -8 Q-5 -7.3 -6.9 -4.5 -8.25 -2.4 -8.2 0 -8.2 0.8 -8.05 1.65 -7.35 5 -4.55 6.85 -2.45 8.25 0 8.2 0.8 8.2 1.6 8.05 4.95 7.35 6.8 4.55 8.2 2.45 8.2 0 8.2 -0.8 8 -1.6 7.35 -4.95 4.5 -6.85 2.4 -8.2 0 -8.2 -0.8 -8.2 -1.65 -8 Z" _p="true"></path></g><path stroke="#000000" stroke-width="1" stroke-linejoin="miter" stroke-linecap="round" stroke-miterlimit="1" fill="none" d="M6.8 4.55 Q4.95 7.35 1.6 8.05 0.8 8.2 0 8.2 -2.45 8.25 -4.55 6.85 -7.35 5 -8.05 1.65 -8.2 0.8 -8.2 0 -8.25 -2.4 -6.9 -4.5 -5 -7.3 -1.65 -8 -0.8 -8.2 0 -8.2 2.4 -8.2 4.5 -6.85 7.35 -4.95 8 -1.6 8.2 -0.8 8.2 0 8.2 2.45 6.8 4.55 Z" _p="true" stroke-opacity="1"></path></g></g><g><g><path fill="#eaeae8" fill-opacity="1" stroke="none" d="M5.75 44.35 Q5.8 41.55 6.35 36.8 7 31.05 7.15 29.15 L7.95 15.55 Q7.98 14.67 8 13.8 8.15 10.35 8.25 0 2.93 -0.44 -0.9 -0.45 -4.68 -0.45 -8.2 0.1 -8.15 1.3 -9.15 8.1 -10.1 14.4 -9.4 20.9 -8.75 26.8 -8 29.6 -6.85 33.9 -6.6 37.1 -6 44.3 -5.95 56 L5.9 56 5.75 44.35 Z" _p="true"></path></g><path stroke="#000000" stroke-width="1" stroke-linejoin="miter" stroke-linecap="round" stroke-miterlimit="1" fill="none" d="M8.25 0 Q8.15 10.35 8.02 13.82 7.98 14.67 7.95 15.55 L7.15 29.15 Q7 31.05 6.35 36.8 5.8 41.55 5.75 44.35 L5.9 56 M-5.95 56 Q-6 44.3 -6.6 37.1 -6.85 33.9 -8 29.6 -8.75 26.8 -9.4 20.9 -10.1 14.4 -9.15 8.1 -8.15 1.3 -8.2 0.1" _p="true" stroke-opacity="1"></path></g></g></g>
</g></g><g transform="matrix(-0.791,-0.0276,-0.0276,0.79,143.35,307.2)" class="body"><g><g><g class="c5"><g class="tb"><g><g><path fill="#5e7bc1" fill-opacity="1" stroke="none" d="M9.7 -9.7 Q5.7 -13.75 0 -13.75 -5.7 -13.75 -9.7 -9.7 -13.75 -5.7 -13.75 0 -13.75 5.7 -9.7 9.75 -5.7 13.75 0 13.75 5.7 13.75 9.7 9.75 13.75 5.7 13.75 0 13.75 -5.7 9.7 -9.7 Z" _p="true"></path></g><path stroke="#000000" stroke-width="1" stroke-linejoin="round" stroke-linecap="round" fill="none" d="M13.75 0 Q13.75 5.7 9.7 9.75 5.7 13.75 0 13.75 -5.7 13.75 -9.7 9.75 -13.75 5.7 -13.75 0 -13.75 -5.7 -9.7 -9.7 -5.7 -13.75 0 -13.75 5.7 -13.75 9.7 -9.7 13.75 -5.7 13.75 0 Z" _p="true" stroke-opacity="1"></path></g></g><g><g><path fill="#5e7bc1" fill-opacity="1" stroke="none" d="M-12.3 39.15 Q-8.2 40.25 -4.6 40.45 -1.85 40.65 1.85 40.5 4.1 40.45 7.5 39.8 L12.35 38.8 Q12.35 16.6 12.85 11.15 13.7 2.6 13.75 0 10.95 -2.95 6.15 -4.6 -3.5 -7.9 -13.7 -1.2 -13.8 2.6 -13.4 16.7 -12.95 32.7 -12.3 39.15 Z" _p="true"></path></g><path stroke="#000000" stroke-width="1" stroke-linejoin="round" stroke-linecap="round" fill="none" d="M-13.7 -1.2 Q-13.8 2.6 -13.4 16.7 -12.95 32.7 -12.3 39.15 -8.2 40.25 -4.6 40.45 -1.85 40.65 1.85 40.5 4.1 40.45 7.5 39.8 L12.35 38.8 Q12.35 16.6 12.85 11.15 13.7 2.6 13.75 0" _p="true" stroke-opacity="1"></path></g></g></g>
</g></g><g transform="matrix(0.79,-0.0552,0.055,0.79,156.65,307.2)" class="body"><g><g><g class="c1"><g class="ta" transform="matrix(1,0,0,1,0,62.75)"><g><g><path fill="#eaeae8" fill-opacity="1" stroke="none" d="M-1.65 -8 Q-5 -7.3 -6.9 -4.5 -8.25 -2.4 -8.2 0 -8.2 0.8 -8.05 1.65 -7.35 5 -4.55 6.85 -2.45 8.25 0 8.2 0.8 8.2 1.6 8.05 4.95 7.35 6.8 4.55 8.2 2.45 8.2 0 8.2 -0.8 8 -1.6 7.35 -4.95 4.5 -6.85 2.4 -8.2 0 -8.2 -0.8 -8.2 -1.65 -8 Z" _p="true"></path></g><path stroke="#000000" stroke-width="1" stroke-linejoin="miter" stroke-linecap="round" stroke-miterlimit="1" fill="none" d="M6.8 4.55 Q4.95 7.35 1.6 8.05 0.8 8.2 0 8.2 -2.45 8.25 -4.55 6.85 -7.35 5 -8.05 1.65 -8.2 0.8 -8.2 0 -8.25 -2.4 -6.9 -4.5 -5 -7.3 -1.65 -8 -0.8 -8.2 0 -8.2 2.4 -8.2 4.5 -6.85 7.35 -4.95 8 -1.6 8.2 -0.8 8.2 0 8.2 2.45 6.8 4.55 Z" _p="true" stroke-opacity="1"></path></g></g><g><g><path fill="#eaeae8" fill-opacity="1" stroke="none" d="M9.8 42.25 Q10.45 37.7 10.75 35.3 11.3 30.95 11.4 27.7 L11.75 9.95 Q4.55 9.45 -0.5 9.45 -5.35 9.45 -11.25 11.3 -11.1 12.45 -10.7 18.6 -10.05 23.3 -9.7 35.95 -9.55 40.1 -8.75 48.1 -8.42 50.54 -8.3 52.65 L-8.2 54.9 Q-8.10 55.69 -8.25 62.75 L8.25 62.75 Q8.41 59.87 8.5 55.85 8.6 52 8.7 51.2 9.75 43.1 9.8 42.25 Z" _p="true"></path></g><path stroke="#000000" stroke-width="1" stroke-linejoin="miter" stroke-linecap="round" stroke-miterlimit="1" fill="none" d="M11.75 9.95 L11.4 27.7 Q11.3 30.95 10.75 35.3 10.45 37.7 9.8 42.25 9.75 43.1 8.7 51.2 8.6 52 8.5 55.85 8.41 59.87 8.25 62.75 M-8.22 62.75 Q-8.10 55.69 -8.2 54.9 L-8.27 52.65 Q-8.42 50.54 -8.75 48.1 -9.55 40.1 -9.7 35.95 -10.05 23.3 -10.7 18.6 -11.1 12.45 -11.25 11.3" _p="true" stroke-opacity="1"></path></g></g><g class="c5"><g class="tb"><g><g><path fill="#5e7bc1" fill-opacity="1" stroke="none" d="M9.7 -9.7 Q5.7 -13.75 0 -13.75 -5.7 -13.75 -9.7 -9.7 -13.75 -5.7 -13.75 0 -13.75 5.7 -9.7 9.75 -5.7 13.75 0 13.75 5.7 13.75 9.7 9.75 13.75 5.7 13.75 0 13.75 -5.7 9.7 -9.7 Z" _p="true"></path></g><path stroke="#000000" stroke-width="1" stroke-linejoin="round" stroke-linecap="round" fill="none" d="M13.75 0 Q13.75 5.7 9.7 9.75 5.7 13.75 0 13.75 -5.7 13.75 -9.7 9.75 -13.75 5.7 -13.75 0 -13.75 -5.7 -9.7 -9.7 -5.7 -13.75 0 -13.75 5.7 -13.75 9.7 -9.7 13.75 -5.7 13.75 0 Z" _p="true" stroke-opacity="1"></path></g></g><g><g><path fill="#5e7bc1" fill-opacity="1" stroke="none" d="M4.45 13.55 Q7.95 13.3 11.9 12.25 13.9 5.4 13.75 -0.2 -0.05 -1.3 -13.75 -0.2 -13.7 2.7 -12.75 7.3 -11.8 11.75 -11.8 11.8 -5.65 13.4 -1.75 13.55 2.35 13.7 4.45 13.55 Z" _p="true"></path></g><path stroke="#000000" stroke-width="1" stroke-linejoin="miter" stroke-linecap="round" stroke-miterlimit="1" fill="none" d="M13.75 -0.2 Q13.9 5.4 11.9 12.25 7.95 13.3 4.45 13.55 2.35 13.7 -1.75 13.55 -5.65 13.4 -11.8 11.8 -11.8 11.75 -12.75 7.3 -13.7 2.7 -13.75 -0.2" _p="true" stroke-opacity="1"></path></g></g></g>
</g></g><g transform="matrix(0.72,0,0,0.72,160.12,401.06)" class="body"><g><g><g class="c1"><g class="ta"><g><g><path fill="#eaeae8" fill-opacity="1" stroke="none" d="M5.75 -1.15 Q5.3 -3.55 3.25 -4.9 1.7 -5.95 0 -5.9 -0.6 -5.9 -1.2 -5.75 -3.6 -5.25 -4.95 -3.25 -5.95 -1.7 -5.95 0 -5.95 0.6 -5.8 1.2 -5.3 3.6 -3.3 4.9 -1.75 5.95 0 5.95 0.6 5.95 1.15 5.8 3.55 5.35 4.9 3.3 5.95 1.75 5.9 0 5.9 -0.6 5.75 -1.15 Z" _p="true"></path></g><path stroke="#000000" stroke-width="1" stroke-linejoin="miter" stroke-linecap="round" stroke-miterlimit="1" fill="none" d="M0 -5.9 Q1.7 -5.95 3.25 -4.9 5.3 -3.55 5.75 -1.15 5.9 -0.6 5.9 0 5.95 1.75 4.9 3.3 3.55 5.35 1.15 5.8 0.6 5.95 0 5.95 -1.75 5.95 -3.3 4.9 -5.3 3.6 -5.8 1.2 -5.95 0.6 -5.95 0 -5.95 -1.7 -4.95 -3.25 -3.6 -5.25 -1.2 -5.75 -0.6 -5.9 0 -5.9 Z" _p="true" stroke-opacity="1"></path></g></g><g><g><g><path fill="#eaeae8" fill-opacity="1" stroke="none" d="M22.9 21.8 Q25.35 21.3 26.75 20.25 27.45 19.75 27.85 19.2 29.2 17.05 26.45 14.3 26.4 14.3 26.35 14.25 24.65 12.7 21.55 11.1 20.25 10.55 19.2 10.05 17.3 9.15 16.3 8.65 15.4 8.25 14.05 7.25 13.8 7.05 13.6 6.9 L9.65 4.65 Q8.55 4.05 7.35 2.55 6.1 1.05 5.9 -0.05 L-5.95 -0.05 Q-6.05 0.7 -6.45 2.05 -6.9 3.75 -7.3 6.95 L-7.35 7.45 Q-7.4 7.75 -7.4 8 -7.6 10.05 -7.55 11.75 -7.45 13.25 -6.45 14.25 -6.2 14.5 -5.9 14.75 -5.45 15.05 -4.25 15.35 -2.5 15.75 -1.95 15.95 0.15 16.65 1.8 17.7 2.8 18.35 4.9 19.9 6.7 21.2 8.65 22 9.5 22.4 10.4 22.7 13.05 23.45 16.65 23 17.6 22.9 22.9 21.8 Z" _p="true"></path></g><path stroke="#000000" stroke-width="1" stroke-linejoin="miter" stroke-linecap="round" stroke-miterlimit="3" fill="none" d="M5.9 -0.05 Q6.1 1.05 7.35 2.55 8.55 4.05 9.65 4.65 L13.6 6.9 Q13.8 7.05 14.05 7.25 15.4 8.25 16.3 8.65 17.3 9.15 19.2 10.05 20.25 10.55 21.55 11.1 24.65 12.7 26.35 14.25 26.4 14.3 26.45 14.3 29.2 17.05 27.85 19.2 27.45 19.75 26.75 20.25 25.35 21.3 22.9 21.8 17.6 22.9 16.65 23 13.05 23.45 10.4 22.7 9.5 22.4 8.65 22 6.7 21.2 4.9 19.9 2.8 18.35 1.8 17.7 0.15 16.65 -1.95 15.95 -2.5 15.75 -4.25 15.35 -5.45 15.05 -5.9 14.75 -6.2 14.5 -6.45 14.25 -7.45 13.25 -7.55 11.75 -7.6 10.05 -7.4 8 -7.4 7.75 -7.35 7.45 L-7.3 6.95 Q-6.9 3.75 -6.45 2.05 -6.05 0.7 -5.95 -0.05" _p="true" stroke-opacity="1"></path></g></g><g><path stroke="#8c8c8b" stroke-opacity="1" stroke-width="0.3" stroke-linejoin="miter" stroke-linecap="round" stroke-miterlimit="3" fill="none" d="M25.65 20.4 Q26.2 19.9 26.3 19.5 26.45 19.15 26.3 18.7 26.05 17.85 25.15 17.3 M23.35 21.35 Q23.95 20.75 24.1 20.3 24.2 19.9 24.05 19.35 23.75 18.3 22.65 17.85 M20.45 22.25 Q21.15 21.55 21.35 21.05 21.5 20.55 21.3 19.9 20.95 18.7 19.4 18.25 M16.35 22.85 Q17.35 22.25 17.7 21.85 18.2 21.2 18 20.3 17.75 19.15 16.8 18.6 15.65 17.95 13.4 17.8 M-4.2 0.65 Q-4.1 1.3 -5.05 3.15 -5.65 4.35 -4.25 5.25" _p="true"></path></g></g></g>
</g></g><g transform="matrix(0.79,0,0,0.79,160.12,356.78)" class="body"><g><g><g class="c1"><g class="ta" transform="matrix(1,0,0,1,0,55.75)" display="none"><g><g><path fill="#eaeae8" fill-opacity="1" stroke="none" d="M5.75 -1.15 Q5.3 -3.55 3.25 -4.9 1.7 -5.95 0 -5.9 -0.6 -5.9 -1.2 -5.75 -3.6 -5.25 -4.95 -3.25 -5.95 -1.7 -5.95 0 -5.95 0.6 -5.8 1.2 -5.3 3.6 -3.3 4.9 -1.75 5.95 0 5.95 0.6 5.95 1.15 5.8 3.55 5.35 4.9 3.3 5.95 1.75 5.9 0 5.9 -0.6 5.75 -1.15 Z" _p="true"></path></g><path stroke="#000000" stroke-width="1" stroke-linejoin="miter" stroke-linecap="round" stroke-miterlimit="1" fill="none" d="M0 -5.9 Q1.7 -5.95 3.25 -4.9 5.3 -3.55 5.75 -1.15 5.9 -0.6 5.9 0 5.95 1.75 4.9 3.3 3.55 5.35 1.15 5.8 0.6 5.95 0 5.95 -1.75 5.95 -3.3 4.9 -5.3 3.6 -5.8 1.2 -5.95 0.6 -5.95 0 -5.95 -1.7 -4.95 -3.25 -3.6 -5.25 -1.2 -5.75 -0.6 -5.9 0 -5.9 Z" _p="true" stroke-opacity="1"></path></g></g><g class="tb" display="none"><g><g><path fill="#eaeae8" fill-opacity="1" stroke="none" d="M-1.65 -8 Q-5 -7.3 -6.9 -4.5 -8.25 -2.4 -8.2 0 -8.2 0.8 -8.05 1.65 -7.35 5 -4.55 6.85 -2.45 8.25 0 8.2 0.8 8.2 1.6 8.05 4.95 7.35 6.8 4.55 8.2 2.45 8.2 0 8.2 -0.8 8 -1.6 7.35 -4.95 4.5 -6.85 2.4 -8.2 0 -8.2 -0.8 -8.2 -1.65 -8 Z" _p="true"></path></g><path stroke="#000000" stroke-width="1" stroke-linejoin="miter" stroke-linecap="round" stroke-miterlimit="1" fill="none" d="M6.8 4.55 Q4.95 7.35 1.6 8.05 0.8 8.2 0 8.2 -2.45 8.25 -4.55 6.85 -7.35 5 -8.05 1.65 -8.2 0.8 -8.2 0 -8.25 -2.4 -6.9 -4.5 -5 -7.3 -1.65 -8 -0.8 -8.2 0 -8.2 2.4 -8.2 4.5 -6.85 7.35 -4.95 8 -1.6 8.2 -0.8 8.2 0 8.2 2.45 6.8 4.55 Z" _p="true" stroke-opacity="1"></path></g></g><g><g><path fill="#eaeae8" fill-opacity="1" stroke="none" d="M5.75 44.35 Q5.8 41.55 6.35 36.8 7 31.05 7.15 29.15 L7.95 15.55 Q7.98 14.67 8 13.8 8.15 10.35 8.25 0 2.93 -0.44 -0.9 -0.45 -4.68 -0.45 -8.2 0.1 -8.15 1.3 -9.15 8.1 -10.1 14.4 -9.4 20.9 -8.75 26.8 -8 29.6 -6.85 33.9 -6.6 37.1 -6 44.3 -5.95 56 L5.9 56 5.75 44.35 Z" _p="true"></path></g><path stroke="#000000" stroke-width="1" stroke-linejoin="miter" stroke-linecap="round" stroke-miterlimit="1" fill="none" d="M8.25 0 Q8.15 10.35 8.02 13.82 7.98 14.67 7.95 15.55 L7.15 29.15 Q7 31.05 6.35 36.8 5.8 41.55 5.75 44.35 L5.9 56 M-5.95 56 Q-6 44.3 -6.6 37.1 -6.85 33.9 -8 29.6 -8.75 26.8 -9.4 20.9 -10.1 14.4 -9.15 8.1 -8.15 1.3 -8.2 0.1" _p="true" stroke-opacity="1"></path></g></g></g>
</g></g><g transform="matrix(0.79,-0.0552,0.055,0.79,156.65,307.2)" class="body"><g><g><g class="c5"><g class="tb"><g><g><path fill="#5e7bc1" fill-opacity="1" stroke="none" d="M9.7 -9.7 Q5.7 -13.75 0 -13.75 -5.7 -13.75 -9.7 -9.7 -13.75 -5.7 -13.75 0 -13.75 5.7 -9.7 9.75 -5.7 13.75 0 13.75 5.7 13.75 9.7 9.75 13.75 5.7 13.75 0 13.75 -5.7 9.7 -9.7 Z" _p="true"></path></g><path stroke="#000000" stroke-width="1" stroke-linejoin="round" stroke-linecap="round" fill="none" d="M13.75 0 Q13.75 5.7 9.7 9.75 5.7 13.75 0 13.75 -5.7 13.75 -9.7 9.75 -13.75 5.7 -13.75 0 -13.75 -5.7 -9.7 -9.7 -5.7 -13.75 0 -13.75 5.7 -13.75 9.7 -9.7 13.75 -5.7 13.75 0 Z" _p="true" stroke-opacity="1"></path></g></g><g><g><path fill="#5e7bc1" fill-opacity="1" stroke="none" d="M-12.3 39.15 Q-8.2 40.25 -4.6 40.45 -1.85 40.65 1.85 40.5 4.1 40.45 7.5 39.8 L12.35 38.8 Q12.35 16.6 12.85 11.15 13.7 2.6 13.75 0 10.95 -2.95 6.15 -4.6 -3.5 -7.9 -13.7 -1.2 -13.8 2.6 -13.4 16.7 -12.95 32.7 -12.3 39.15 Z" _p="true"></path></g><path stroke="#000000" stroke-width="1" stroke-linejoin="round" stroke-linecap="round" fill="none" d="M-13.7 -1.2 Q-13.8 2.6 -13.4 16.7 -12.95 32.7 -12.3 39.15 -8.2 40.25 -4.6 40.45 -1.85 40.65 1.85 40.5 4.1 40.45 7.5 39.8 L12.35 38.8 Q12.35 16.6 12.85 11.15 13.7 2.6 13.75 0" _p="true" stroke-opacity="1"></path></g></g></g>
</g></g><g transform="matrix(0.79,0,0,0.89,150,238.35)" class="body"><g><g><g class="c1"><g><g><g><path fill="#eaeae8" fill-opacity="1" stroke="none" d="M4.8 -4.9 Q2.8 -6.9 0 -6.9 -2.8 -6.9 -4.85 -4.9 -6.85 -2.85 -6.85 0 -6.85 2.85 -4.85 4.8 -2.8 6.85 0 6.85 2.8 6.85 4.8 4.8 6.85 2.85 6.85 0 6.85 -2.85 4.8 -4.9 Z" _p="true"></path></g><path stroke="#000000" stroke-width="1" stroke-linejoin="miter" stroke-linecap="round" stroke-miterlimit="1" fill="none" d="M6.85 0 Q6.85 2.85 4.8 4.8 2.8 6.85 0 6.85 -2.8 6.85 -4.85 4.8 -6.85 2.85 -6.85 0 -6.85 -2.85 -4.85 -4.9 -2.8 -6.9 0 -6.9 2.8 -6.9 4.8 -4.9 6.85 -2.85 6.85 0 Z" _p="true" stroke-opacity="1"></path></g></g><g><g><path fill="#eaeae8" fill-opacity="1" stroke="none" d="M6.45 -15.5 Q2.75 -16.5 0.05 -16.5 L0 -16.5 -0.05 -16.5 Q-2.75 -16.5 -6.45 -15.5 L-6.85 0 6.85 0 6.45 -15.5 Z" _p="true"></path></g><path stroke="#000000" stroke-width="1" stroke-linejoin="miter" stroke-linecap="round" stroke-miterlimit="1" fill="none" d="M6.85 0 L6.45 -15.5 M-6.45 -15.5 L-6.85 0" _p="true" stroke-opacity="1"></path></g></g></g>
</g></g><g transform="matrix(0.72,-0.3219,0.32,0.72,164.36,247.13)" class="body"><g><g><g class="c4"><g class="tb" transform="matrix(-1,0,0,-1,0,0)"><g><g><path fill="#fbfaf6" fill-opacity="1" stroke="none" d="M7.65 -1.55 Q7.24 -3.54 6.05 -5 1.34 1.01 -6.1 -5 -6.34 -4.66 -6.6 -4.3 -7.9 -2.3 -7.85 0 -7.85 0.75 -7.7 1.6 -7.05 4.8 -4.35 6.55 -2.3 7.9 0 7.85 0.75 7.85 1.55 7.7 4.75 7.05 6.5 4.35 7.85 2.3 7.85 0 7.85 -0.75 7.65 -1.55 Z" _p="true"></path></g><path stroke="#000000" stroke-width="1" stroke-linejoin="miter" stroke-linecap="round" stroke-miterlimit="1" fill="none" d="M6.05 -5 Q7.24 -3.54 7.65 -1.55 7.85 -0.75 7.85 0 7.85 2.3 6.5 4.35 4.75 7.05 1.55 7.7 0.75 7.85 0 7.85 -2.3 7.9 -4.35 6.55 -7.05 4.8 -7.7 1.6 -7.85 0.75 -7.85 0 -7.9 -2.3 -6.6 -4.3 -6.34 -4.66 -6.07 -5" _p="true" stroke-opacity="1"></path></g></g><g><g><path fill="#fbfaf6" fill-opacity="1" stroke="none" d="M9.1 -2.3 L6.6 -4.35 -7.7 -1.55 Q-8.25 1.5 -9.6 10.5 -9.4 11.25 -7.9 11.3 -6.65 11.65 -5.9 10.9 -4.9 10.05 -2.4 11.85 -1.45 12.6 -0.15 11.95 0.9 11.45 1.4 10.6 1.8 9.85 3.1 9.6 4.4 9.3 5.7 9.55 6.85 9.75 7.5 8.8 8.25 7.35 8.65 6.45 8.8 6.1 8.8 4.6 8.75 4 10.5 3.8 12.4 3.6 13 1.95 L13.15 0.4 Q11.8 -0.1 9.1 -2.3 Z" _p="true"></path></g><path stroke="#000000" stroke-width="1" stroke-linejoin="round" stroke-linecap="round" fill="none" d="M6.6 -4.35 L9.1 -2.3 Q11.8 -0.1 13.15 0.4 L13 1.95 Q12.4 3.6 10.5 3.8 8.75 4 8.8 4.6 8.8 6.1 8.65 6.45 8.25 7.35 7.5 8.8 6.85 9.75 5.7 9.55 4.4 9.3 3.1 9.6 1.8 9.85 1.4 10.6 0.9 11.45 -0.15 11.95 -1.45 12.6 -2.4 11.85 -4.9 10.05 -5.9 10.9 -6.65 11.65 -7.9 11.3 -9.4 11.25 -9.6 10.5 -8.25 1.5 -7.7 -1.55" _p="true" stroke-opacity="1"></path></g><g><g><path fill="#000000" fill-opacity="0.09" stroke="none" d="M-5.25 6 Q-5.85 7.5 -6.85 11.3 -6.35 11.25 -5.9 10.9 -5.55 10.65 -5.05 10.65 -5 8 -5 7.05 -5 5.45 -5.25 6 M8.65 6.45 Q8.95 5.75 8.8 4.85 8.7 4.2 9.2 4.05 4.9 -0.8 5.6 0.35 6.5 1.9 8.35 7.05 L8.65 6.45 M1.4 10.6 Q1.75 9.9 2.8 9.65 -0.3 -0.2 -0.25 3.4 -0.2 6.3 -0.5 12.05 0.7 11.65 1.4 10.6 Z" _p="true"></path></g></g></g></g>
</g></g><g transform="matrix(-0.7437,-0.2707,-0.2707,0.74,135.64,247.13)" class="body"><g><g><g class="c4"><g class="tb" transform="matrix(-1,0,0,-1,0,0)"><g><g><path fill="#fbfaf6" fill-opacity="1" stroke="none" d="M7.65 -1.55 Q7.24 -3.54 6.05 -5 1.34 1.01 -6.1 -5 -6.34 -4.66 -6.6 -4.3 -7.9 -2.3 -7.85 0 -7.85 0.75 -7.7 1.6 -7.05 4.8 -4.35 6.55 -2.3 7.9 0 7.85 0.75 7.85 1.55 7.7 4.75 7.05 6.5 4.35 7.85 2.3 7.85 0 7.85 -0.75 7.65 -1.55 Z" _p="true"></path></g><path stroke="#000000" stroke-width="1" stroke-linejoin="miter" stroke-linecap="round" stroke-miterlimit="1" fill="none" d="M6.05 -5 Q7.24 -3.54 7.65 -1.55 7.85 -0.75 7.85 0 7.85 2.3 6.5 4.35 4.75 7.05 1.55 7.7 0.75 7.85 0 7.85 -2.3 7.9 -4.35 6.55 -7.05 4.8 -7.7 1.6 -7.85 0.75 -7.85 0 -7.9 -2.3 -6.6 -4.3 -6.34 -4.66 -6.07 -5" _p="true" stroke-opacity="1"></path></g></g><g><g><path fill="#fbfaf6" fill-opacity="1" stroke="none" d="M9.1 -2.3 L6.6 -4.35 -7.7 -1.55 Q-8.25 1.5 -9.6 10.5 -9.4 11.25 -7.9 11.3 -6.65 11.65 -5.9 10.9 -4.9 10.05 -2.4 11.85 -1.45 12.6 -0.15 11.95 0.9 11.45 1.4 10.6 1.8 9.85 3.1 9.6 4.4 9.3 5.7 9.55 6.85 9.75 7.5 8.8 8.25 7.35 8.65 6.45 8.8 6.1 8.8 4.6 8.75 4 10.5 3.8 12.4 3.6 13 1.95 L13.15 0.4 Q11.8 -0.1 9.1 -2.3 Z" _p="true"></path></g><path stroke="#000000" stroke-width="1" stroke-linejoin="round" stroke-linecap="round" fill="none" d="M6.6 -4.35 L9.1 -2.3 Q11.8 -0.1 13.15 0.4 L13 1.95 Q12.4 3.6 10.5 3.8 8.75 4 8.8 4.6 8.8 6.1 8.65 6.45 8.25 7.35 7.5 8.8 6.85 9.75 5.7 9.55 4.4 9.3 3.1 9.6 1.8 9.85 1.4 10.6 0.9 11.45 -0.15 11.95 -1.45 12.6 -2.4 11.85 -4.9 10.05 -5.9 10.9 -6.65 11.65 -7.9 11.3 -9.4 11.25 -9.6 10.5 -8.25 1.5 -7.7 -1.55" _p="true" stroke-opacity="1"></path></g><g><g><path fill="#000000" fill-opacity="0.09" stroke="none" d="M-5.25 6 Q-5.85 7.5 -6.85 11.3 -6.35 11.25 -5.9 10.9 -5.55 10.65 -5.05 10.65 -5 8 -5 7.05 -5 5.45 -5.25 6 M8.65 6.45 Q8.95 5.75 8.8 4.85 8.7 4.2 9.2 4.05 4.9 -0.8 5.6 0.35 6.5 1.9 8.35 7.05 L8.65 6.45 M1.4 10.6 Q1.75 9.9 2.8 9.65 -0.3 -0.2 -0.25 3.4 -0.2 6.3 -0.5 12.05 0.7 11.65 1.4 10.6 Z" _p="true"></path></g></g></g></g>
</g></g><g transform="matrix(0.79,0,0,0.79,150,300)" class="body"><g><g><g class="c1"><g class="ta" transform="matrix(1,0,0,1,18.15,-66.8)" display="none"><g><g><path fill="#eaeae8" fill-opacity="1" stroke="none" d="M-1.55 -7.7 Q-4.75 -7.05 -6.55 -4.35 -7.9 -2.35 -7.85 -0.05 -7.85 0.75 -7.65 1.55 -7 4.75 -4.3 6.5 -2.3 7.9 0.05 7.85 0.85 7.85 1.6 7.65 4.8 7 6.55 4.3 7.95 2.3 7.9 -0.05 7.9 -0.85 7.7 -1.6 7.1 -4.8 4.35 -6.6 2.35 -7.95 0.05 -7.9 -0.75 -7.9 -1.55 -7.7 Z" _p="true"></path></g><path stroke="#000000" stroke-width="1" stroke-linejoin="miter" stroke-linecap="round" stroke-miterlimit="1" fill="none" d="M6.55 4.3 Q4.8 7 1.6 7.65 0.85 7.85 0.05 7.85 -2.3 7.9 -4.3 6.5 -7 4.75 -7.65 1.55 -7.85 0.75 -7.85 -0.05 -7.9 -2.35 -6.55 -4.35 -4.75 -7.05 -1.55 -7.7 -0.75 -7.9 0.05 -7.9 2.35 -7.95 4.35 -6.6 7.1 -4.8 7.7 -1.6 7.9 -0.85 7.9 -0.05 7.95 2.3 6.55 4.3 Z" _p="true" stroke-opacity="1"></path></g></g><g class="tb" transform="matrix(1,0,0,1,-18.15,-66.8)" display="none"><g><g><path fill="#eaeae8" fill-opacity="1" stroke="none" d="M-1.55 -7.7 Q-4.75 -7.05 -6.55 -4.35 -7.9 -2.35 -7.85 -0.05 -7.85 0.75 -7.65 1.55 -7 4.75 -4.3 6.5 -2.3 7.9 0.05 7.85 0.85 7.85 1.6 7.65 4.8 7 6.55 4.3 7.95 2.3 7.9 -0.05 7.9 -0.85 7.7 -1.6 7.1 -4.8 4.35 -6.6 2.35 -7.95 0.05 -7.9 -0.75 -7.9 -1.55 -7.7 Z" _p="true"></path></g><path stroke="#000000" stroke-width="1" stroke-linejoin="miter" stroke-linecap="round" stroke-miterlimit="1" fill="none" d="M6.55 4.3 Q4.8 7 1.6 7.65 0.85 7.85 0.05 7.85 -2.3 7.9 -4.3 6.5 -7 4.75 -7.65 1.55 -7.85 0.75 -7.85 -0.05 -7.9 -2.35 -6.55 -4.35 -4.75 -7.05 -1.55 -7.7 -0.75 -7.9 0.05 -7.9 2.35 -7.95 4.35 -6.6 7.1 -4.8 7.7 -1.6 7.9 -0.85 7.9 -0.05 7.95 2.3 6.55 4.3 Z" _p="true" stroke-opacity="1"></path></g></g><g><g><path fill="#eaeae8" fill-opacity="1" stroke="none" d="M7 -77.75 L6.85 -77.8 3.35 -78.55 Q1.75 -78.75 0.25 -78.75 L-0.15 -78.75 Q-1.65 -78.75 -3.25 -78.55 L-6.8 -77.8 -6.9 -77.75 -15.65 -75.05 Q-16.75 -74.7 -17.6 -74.7 -15.8 -72.05 -15.35 -70.5 -14.75 -68.6 -15.25 -66.85 -16 -64.15 -17.4 -62.7 -18.5 -61.5 -21.4 -59.7 -20.95 -56.1 -20.8 -51.6 -20.55 -46.5 -18.8 -35.85 -17.25 -26.45 -17.4 -21.75 -17.45 -18.4 -19.1 -11.2 -20.65 -4.15 -20.65 -0.35 -14.2 1.25 -10.3 1.8 -5.7 2.5 0.05 2.5 5.8 2.5 10.4 1.8 14.3 1.25 20.75 -0.35 20.75 -4.15 19.2 -11.2 17.6 -18.45 17.5 -21.75 17.4 -26.4 18.95 -35.85 20.65 -46.45 20.9 -51.6 21.15 -56.1 21.5 -59.7 18.1 -61.85 17.5 -62.45 16.05 -63.85 15.35 -66.85 14.9 -68.75 15.5 -70.55 16 -72.1 17.7 -74.7 16.95 -74.7 15.75 -75.05 L7 -77.75 Z" _p="true"></path></g><path stroke="#000000" stroke-width="1" stroke-linejoin="round" stroke-linecap="round" fill="none" d="M-6.9 -77.75 L-15.65 -75.05 Q-16.75 -74.7 -17.6 -74.7 M-21.4 -59.7 Q-20.95 -56.1 -20.8 -51.6 -20.55 -46.5 -18.8 -35.85 -17.25 -26.45 -17.4 -21.75 -17.45 -18.4 -19.1 -11.2 -20.65 -4.15 -20.65 -0.35 M20.75 -0.35 Q20.75 -4.15 19.2 -11.2 17.6 -18.45 17.5 -21.75 17.4 -26.4 18.95 -35.85 20.65 -46.45 20.9 -51.6 21.15 -56.1 21.5 -59.7 M17.7 -74.7 Q16.95 -74.7 15.75 -75.05 L7 -77.75" _p="true" stroke-opacity="1"></path></g><g><g><path fill="#000000" fill-opacity="0.09" stroke="none" d="M-0.65 -14.5 Q-1.15 -13 -0.75 -11.9 -0.15 -10.4 0.6 -13.05 1.35 -15.6 -0.05 -15.8 -0.4 -15.25 -0.65 -14.5 Z" _p="true"></path></g></g></g></g>
</g></g><g transform="matrix(0.79,0,0,0.79,150,300)" class="body"><g><g><g class="c5"><g class="tb" transform="matrix(1,0,0,1,8.4,9.15)" display="none"><g><g><path fill="#5e7bc1" fill-opacity="1" stroke="none" d="M13.5 -2.75 Q13.37 -3.36 13.2 -3.95 L-13.35 -3.95 Q-13.90 -2.02 -13.85 0 -13.85 1.35 -13.55 2.8 -12.6 7.65 -12.4 8.15 -11.5 10.85 -9.45 12.2 -6.9 14 0 13.85 1.35 13.85 2.75 13.55 8.35 12.45 11.45 7.65 13.85 4.1 13.8 0 13.8 -1.35 13.5 -2.75 Z" _p="true"></path></g><path stroke="#000000" stroke-width="1" stroke-linejoin="miter" stroke-linecap="round" stroke-miterlimit="1" fill="none" d="M13.2 -3.95 Q13.37 -3.36 13.5 -2.75 13.8 -1.35 13.8 0 13.85 4.1 11.45 7.65 8.35 12.45 2.75 13.55 1.35 13.85 0 13.85 -6.9 14 -9.45 12.2 -11.5 10.85 -12.4 8.15 -12.6 7.65 -13.55 2.8 -13.85 1.35 -13.85 0 -13.90 -2.02 -13.32 -3.95" _p="true" stroke-opacity="1"></path></g></g><g class="tb" transform="matrix(-1,0,0,1,-8.4,9.15)" display="none"><g><g><path fill="#5e7bc1" fill-opacity="1" stroke="none" d="M13.5 -2.75 Q13.37 -3.36 13.2 -3.95 L-13.35 -3.95 Q-13.90 -2.02 -13.85 0 -13.85 1.35 -13.55 2.8 -12.6 7.65 -12.4 8.15 -11.5 10.85 -9.45 12.2 -6.9 14 0 13.85 1.35 13.85 2.75 13.55 8.35 12.45 11.45 7.65 13.85 4.1 13.8 0 13.8 -1.35 13.5 -2.75 Z" _p="true"></path></g><path stroke="#000000" stroke-width="1" stroke-linejoin="miter" stroke-linecap="round" stroke-miterlimit="1" fill="none" d="M13.2 -3.95 Q13.37 -3.36 13.5 -2.75 13.8 -1.35 13.8 0 13.85 4.1 11.45 7.65 8.35 12.45 2.75 13.55 1.35 13.85 0 13.85 -6.9 14 -9.45 12.2 -11.5 10.85 -12.4 8.15 -12.6 7.65 -13.55 2.8 -13.85 1.35 -13.85 0 -13.90 -2.02 -13.32 -3.95" _p="true" stroke-opacity="1"></path></g></g><g><g><path fill="#5e7bc1" fill-opacity="1" stroke="none" d="M16.95 9.4 Q19.2 7.75 22.05 7.55 L20.5 -4.95 Q-0.4 -4.1 -20.45 -5.35 L-22.15 7.35 Q-17.35 7.6 -12.85 11.05 -7.58 15.05 -5.95 19.15 -5.90 19.22 -5.9 19.3 -5.81 19.45 -2.6 20.75 0.67 22.04 3.25 20.7 5.86 19.34 5.95 19.25 6.03 19.22 6.1 19.15 8.23 16.62 13.05 12.75 14.5 11.6 16.95 9.4 Z" _p="true"></path></g></g><g class="ta"><g><g><path fill="#5e7bc1" fill-opacity="1" stroke="none" d="M5.7 19.6 Q5.84 19.45 5.95 19.3 0.05 17.63 -5.9 19.3 -5.24 20.96 -5.2 22.65 -3.9 23.75 -0.45 23.65 2.9 23.5 4.4 22.35 4.38 21.39 5.55 19.85 5.64 19.72 5.75 19.6 L5.7 19.6 Z" _p="true"></path></g><path stroke="#000000" stroke-width="1" stroke-linejoin="miter" stroke-linecap="square" stroke-miterlimit="1" fill="none" d="M-5.2 22.65 Q-3.9 23.75 -0.45 23.65 2.9 23.5 4.4 22.35" _p="true" stroke-opacity="1"></path></g></g><g><path stroke="#000000" stroke-width="1" stroke-linejoin="miter" stroke-linecap="round" stroke-miterlimit="1" fill="none" d="M22.15 7.85 L20.5 -4.95 Q-0.4 -4.1 -20.45 -5.35 L-22.1 7.45" _p="true" stroke-opacity="1"></path></g></g></g>
</g></g><g transform="matrix(0.79,0,0,0.79,150,296.04)" class="body"><g><g><g class="c42"><g><g><path fill="#fbfaf6" fill-opacity="1" stroke="none" d="M23.5 4.3 L23.55 4.3 22.35 -0.45 Q14.1 0.05 -20.75 0 L-22.9 4.65 -22.5 4.75 Q-12.5 6 -1.65 5.9 9.1 5.8 23.5 4.3 Z" _p="true"></path></g><path stroke="#000000" stroke-width="1" stroke-linejoin="round" stroke-linecap="round" fill="none" d="M-22.5 4.75 L-22.9 4.65 -20.75 0 Q14.1 0.05 22.35 -0.45 L23.55 4.3 23.5 4.3 Q9.1 5.8 -1.65 5.9 -12.5 6 -22.5 4.75 Z" _p="true" stroke-opacity="1"></path></g><g><g><path fill="#fbfaf6" fill-opacity="1" stroke="none" d="M35.5 60 Q31.8 60.95 30.65 61.7 29.6 62.35 27.05 62.2 25 62.05 23.15 61.55 21.9 61.2 19.4 61.05 L17.15 60.95 Q10.6 61.8 7.1 63.2 4.9 64.1 2.05 61.9 L-0.35 59.55 Q-8.9 61.9 -12.9 62.3 -15.65 62.6 -18.25 61.6 -20.25 60.9 -22.85 59.1 -24.8 57.7 -27.75 57.85 -29.15 57.9 -33.8 58.85 -34.8 59.05 -35.6 58.9 L-37.4 62.7 Q-43.7 75.45 -46.25 77.6 L-44.55 79.95 Q-42.1 82.1 -38.3 81.25 -34.3 80.35 -31.4 80.75 -29.9 80.9 -26.8 82 -25.3 82.55 -22.5 84.1 -19.6 85.3 -15.85 84.75 -12.85 84.3 -9.25 83.45 -6.6 83 -3.85 84 -2.55 84.45 -0.2 86.5 1.1 87.65 4.6 87.15 7.05 86.8 10.5 84.85 12.9 83.5 15.65 84.4 18.25 85.25 21.45 85.7 25.35 86.2 27.3 85.5 28.4 85.1 30.85 82.55 32.75 80.55 34.9 80.95 36.7 81.3 39.7 82.95 42.3 83.85 44.45 81 44.4 81.05 39.45 70.9 38.3 67.4 36.35 62.2 35.9 61 35.5 60 M18.15 37.45 Q10.15 37.3 7.65 36.7 4 35.9 -0.35 37.55 -1.9 38.15 -7.3 37.55 -12.85 36.8 -13.85 36.75 -14.1 36.75 -17.7 36 -20.85 35.3 -23.8 35.55 -26.5 35.75 -28.9 34.4 -36.25 52.1 -38.25 54.75 L-37.75 57.15 Q-37.05 58.6 -35.6 58.9 -34.8 59.05 -33.8 58.85 -29.15 57.9 -27.75 57.85 -24.8 57.7 -22.85 59.1 -20.25 60.9 -18.25 61.6 -15.65 62.6 -12.9 62.3 -8.9 61.9 -0.35 59.55 L2.05 61.9 Q4.9 64.1 7.1 63.2 10.6 61.8 17.15 60.95 L19.4 61.05 Q21.9 61.2 23.15 61.55 25 62.05 27.05 62.2 29.6 62.35 30.65 61.7 31.8 60.95 35.5 60 36.6 59.7 37.95 59.4 37 55.2 35.3 49.1 33.15 41.35 30.95 34.75 30.6 35 30.2 35.2 27.15 36.9 24.7 35.6 23.6 35 20.75 36.15 L18.15 37.45 M7.65 36.7 Q10.15 37.3 18.15 37.45 L20.75 36.15 Q23.6 35 24.7 35.6 27.15 36.9 30.2 35.2 30.6 35 30.95 34.75 32 34.05 32.75 33.25 L23.55 4.3 Q12.9 4.75 5.05 4.9 -7.35 5.15 -12.25 5.1 -19.6 5.1 -22.9 4.65 L-26.85 16.3 Q-31.4 30.35 -31.75 31.9 L-29.65 33.9 Q-29.25 34.15 -28.9 34.4 -26.5 35.75 -23.8 35.55 -20.85 35.3 -17.7 36 -14.1 36.75 -13.85 36.75 -12.85 36.8 -7.3 37.55 -1.9 38.15 -0.35 37.55 4 35.9 7.65 36.7 Z" _p="true"></path></g><path stroke="#000000" stroke-width="1" stroke-linejoin="round" stroke-linecap="round" fill="none" d="M-28.9 34.4 Q-26.5 35.75 -23.8 35.55 -20.85 35.3 -17.7 36 -14.1 36.75 -13.85 36.75 -12.85 36.8 -7.3 37.55 -1.9 38.15 -0.35 37.55 4 35.9 7.65 36.7 10.15 37.3 18.15 37.45 L20.75 36.15 Q23.6 35 24.7 35.6 27.15 36.9 30.2 35.2 30.6 35 30.95 34.75 32 34.05 32.75 33.25 L23.55 4.3 Q12.9 4.75 5.05 4.9 -7.35 5.15 -12.25 5.1 -19.6 5.1 -22.9 4.65 L-26.85 16.3 Q-31.4 30.35 -31.75 31.9 L-29.65 33.9 Q-29.25 34.15 -28.9 34.4 -36.25 52.1 -38.25 54.75 L-37.75 57.15 Q-37.05 58.6 -35.6 58.9 -34.8 59.05 -33.8 58.85 -29.15 57.9 -27.75 57.85 -24.8 57.7 -22.85 59.1 -20.25 60.9 -18.25 61.6 -15.65 62.6 -12.9 62.3 -8.9 61.9 -0.35 59.55 L2.05 61.9 Q4.9 64.1 7.1 63.2 10.6 61.8 17.15 60.95 L19.4 61.05 Q21.9 61.2 23.15 61.55 25 62.05 27.05 62.2 29.6 62.35 30.65 61.7 31.8 60.95 35.5 60 36.6 59.7 37.95 59.4 37 55.2 35.3 49.1 33.15 41.35 30.95 34.75 M-35.6 58.9 L-37.4 62.7 Q-43.7 75.45 -46.25 77.6 L-44.55 79.95 Q-42.1 82.1 -38.3 81.25 -34.3 80.35 -31.4 80.75 -29.9 80.9 -26.8 82 -25.3 82.55 -22.5 84.1 -19.6 85.3 -15.85 84.75 -12.85 84.3 -9.25 83.45 -6.6 83 -3.85 84 -2.55 84.45 -0.2 86.5 1.1 87.65 4.6 87.15 7.05 86.8 10.5 84.85 12.9 83.5 15.65 84.4 18.25 85.25 21.45 85.7 25.35 86.2 27.3 85.5 28.4 85.1 30.85 82.55 32.75 80.55 34.9 80.95 36.7 81.3 39.7 82.95 42.3 83.85 44.45 81 44.4 81.05 39.45 70.9 38.3 67.4 36.35 62.2 35.9 61 35.5 60" _p="true" stroke-opacity="1"></path></g><g><g><path fill="#000000" fill-opacity="0.2" stroke="none" d="M7.65 36.7 Q4.65 36.05 1.15 37.05 -1.7 20.8 -2.65 17 -3.8 12.7 -6.3 37.65 -6.8 37.6 -7.3 37.55 -12.85 36.8 -13.85 36.75 -14.1 36.75 -17.7 36 -18.6 35.8 -19.5 35.7 -19.2 31 -18.45 23.95 -17.7 16.55 -17.1 13.7 -16.4 10.3 -19.7 20.75 -22.9 31 -24.1 35.55 L-23.8 35.55 Q-26.55 35.75 -28.9 34.4 L-30.35 37.75 Q-28.55 38.45 -26.4 38.5 -23.7 38.55 -21.75 38.9 -18.6 39.4 -18.4 39.4 -17 39.6 -17.55 49.05 -17.9 54 -18.55 61.5 -20.45 60.75 -22.85 59.1 -24.8 57.7 -27.75 57.85 -29.15 57.9 -33.8 58.85 -34.8 59.05 -35.55 58.9 -36.95 61.85 -38.3 64.5 -34.8 62.85 -33.05 62.2 -29.9 61.05 -27.65 62.45 -25.95 63.55 -26.6 65.7 -26.95 66.9 -28.05 69.45 -30.5 79.2 -30.85 80.8 L-29.8 81.05 -29.75 81.05 Q-28.8 81.3 -28.75 81.35 -26.55 77.8 -26.05 76.65 -22.5 68.9 -20.9 64.65 -20.15 64.8 -17.55 65.85 -15.4 66.7 -14 66.75 -12.6 66.85 -10.55 66.25 -7.85 65.55 -7.25 65.45 -6.45 67.2 -6.7 71 -6.85 73.05 -7.2 76.65 -7.25 78.55 -7.65 83.3 -6.55 83.3 -5.95 83.4 -4.55 79.4 -4.3 78.65 -3.45 75.95 -3.05 73.75 -2.75 71.05 -2.6 69.65 -2.25 67.2 -1.4 65.8 -0.75 66.05 0.6 67.15 1.85 68.15 2.7 68.4 3.85 68.75 5.3 68.3 6.15 68.05 7.75 67.55 9.8 67.15 10.35 68.1 10.7 68.7 10.85 71.55 11 73.65 11.15 77.9 11.4 81.65 11.75 84.3 12.65 83.95 13.85 84 13.9 83.2 14.05 76.1 13.9 73.15 13.85 71 13.8 66.8 14.75 66.35 15.1 66.2 16.65 66.8 18.4 67.45 18.75 67.45 19.85 67.55 21.1 67.35 22.5 67.15 23.3 66.6 25.05 67.9 25.7 71.3 26.05 73.25 26.35 76.85 27 80.95 28.3 84.85 L28.55 84.85 Q29.6 84.1 31.3 82.1 32.9 80.6 34.9 80.95 36.7 81.3 39.7 82.95 42.3 83.85 44.45 81 44.4 81.05 39.45 70.9 38.3 67.4 36.35 62.2 35.9 61 35.5 60 36.6 59.7 37.95 59.4 37.15 55.3 35.65 49.3 33.6 41.3 31.4 34.5 30.85 34.85 30.2 35.2 27.15 36.9 24.7 35.6 23.6 35 20.75 36.15 L18.8 37.15 Q14.85 23.3 12.35 16.3 10.3 10.5 12.85 37.25 13.25 37.25 13.7 37.3 9.35 37.1 7.65 36.7 M2.05 42.35 L8.3 43 Q10.2 47.3 10.15 48.05 10.15 48.6 10.8 53.05 11.5 58.2 12.2 61.75 9.15 62.4 7.1 63.2 4.9 64.1 2.05 61.9 L-0.3 59.6 Q0.95 52.75 2.05 42.35 M14.3 40.85 L15.9 40.8 Q17.5 40.85 17.8 41.45 17.9 41.6 20.05 49.25 22.45 57.65 23.9 61.75 23.5 61.65 23.15 61.55 21.9 61.2 19.4 61.05 L17.15 60.95 Q15.85 61.1 14.65 61.3 14.85 53.6 14.3 40.85 M-10.45 41.6 Q-9.45 41.85 -4.7 41.95 -4.25 53.5 -3.4 60.35 -9.65 62 -12.9 62.3 -15.6 62.6 -18.2 61.65 -17.4 59.25 -15.35 49.8 -14.3 45.05 -13.45 40.75 L-10.45 41.6 Z" _p="true"></path></g></g></g></g>
</g></g><g transform="matrix(0.79,0,0,0.79,150,300)" class="body"><g><g><g class="c4"><g class="tb" transform="matrix(0,1,-1,0,-18.15,-66.8)" display="none"><g><g><path fill="#fbfaf6" fill-opacity="1" stroke="none" d="M7.65 -1.55 Q7.24 -3.54 6.05 -5 1.34 1.01 -6.1 -5 -6.34 -4.66 -6.6 -4.3 -7.9 -2.3 -7.85 0 -7.85 0.75 -7.7 1.6 -7.05 4.8 -4.35 6.55 -2.3 7.9 0 7.85 0.75 7.85 1.55 7.7 4.75 7.05 6.5 4.35 7.85 2.3 7.85 0 7.85 -0.75 7.65 -1.55 Z" _p="true"></path></g><path stroke="#000000" stroke-width="1" stroke-linejoin="miter" stroke-linecap="round" stroke-miterlimit="1" fill="none" d="M6.05 -5 Q7.24 -3.54 7.65 -1.55 7.85 -0.75 7.85 0 7.85 2.3 6.5 4.35 4.75 7.05 1.55 7.7 0.75 7.85 0 7.85 -2.3 7.9 -4.35 6.55 -7.05 4.8 -7.7 1.6 -7.85 0.75 -7.85 0 -7.9 -2.3 -6.6 -4.3 -6.34 -4.66 -6.07 -5" _p="true" stroke-opacity="1"></path></g></g><g class="ta" transform="matrix(0,-1,1,0,18.15,-66.8)" display="none"><g><g><path fill="#fbfaf6" fill-opacity="1" stroke="none" d="M7.65 -1.55 Q7.24 -3.54 6.05 -5 1.34 1.01 -6.1 -5 -6.34 -4.66 -6.6 -4.3 -7.9 -2.3 -7.85 0 -7.85 0.75 -7.7 1.6 -7.05 4.8 -4.35 6.55 -2.3 7.9 0 7.85 0.75 7.85 1.55 7.7 4.75 7.05 6.5 4.35 7.85 2.3 7.85 0 7.85 -0.75 7.65 -1.55 Z" _p="true"></path></g><path stroke="#000000" stroke-width="1" stroke-linejoin="miter" stroke-linecap="round" stroke-miterlimit="1" fill="none" d="M6.05 -5 Q7.24 -3.54 7.65 -1.55 7.85 -0.75 7.85 0 7.85 2.3 6.5 4.35 4.75 7.05 1.55 7.7 0.75 7.85 0 7.85 -2.3 7.9 -4.35 6.55 -7.05 4.8 -7.7 1.6 -7.85 0.75 -7.85 0 -7.9 -2.3 -6.6 -4.3 -6.34 -4.66 -6.07 -5" _p="true" stroke-opacity="1"></path></g></g><g><g><g><path fill="#fbfaf6" fill-opacity="1" stroke="none" d="M9.8 -76.75 Q8.6 -76.1 6.75 -75.5 3.1 -74.25 -0.1 -74.25 -3.3 -74.25 -7 -75.45 -8.85 -76.1 -10.05 -76.75 L-11.5 -76.4 -15.4 -75.4 -20.45 -74.3 Q-21.3 -71.1 -21.8 -67.9 -22.1 -65.9 -22.2 -62.85 L-22.2 -60.25 Q-19.1 -55.15 -12.45 -52 -6.15 -49 1.1 -48.75 8.55 -48.5 14.05 -51.2 20.1 -54.15 22 -59.95 21.95 -63.05 21.25 -66.9 20.7 -70.2 19.8 -74.5 L9.8 -76.75 Z" _p="true"></path></g></g><g><path stroke="#000000" stroke-width="1" stroke-linejoin="round" stroke-linecap="round" fill="none" d="M19.8 -74.5 L19.55 -74.55 9.8 -76.75 Q8.6 -76.1 6.75 -75.5 3.1 -74.25 -0.1 -74.25 -3.3 -74.25 -7 -75.45 -8.85 -76.1 -10.05 -76.72 L-11.47 -76.4 -20.55 -74.3" _p="true" stroke-opacity="1"></path></g></g><g><g><path fill="#fbfaf6" fill-opacity="1" stroke="none" d="M21.85 -60.05 Q21.87 -60.00 21.9 -59.95 L21.9 -60.05 21.85 -60.05 M21.9 -59.95 Q21.87 -60.00 21.85 -60.05 L-22.2 -60.25 Q-22.2 -53.7 -21.25 -47.05 L-18.95 -31.9 Q-18.25 -27.2 -18.2 -24.85 -18.15 -22.1 -18.6 -17.8 -18.95 -14.55 -19.2 -13.3 -19.7 -10.8 -20.6 -9.05 -21.1 -7.95 -22.4 -5.95 -23.1 -4.25 -21.8 -2.75 -23.15 -1.6 -23.65 -0.15 -23.9 0.5 -23.75 1.2 -23.6 1.9 -23.1 2.3 -24.2 2.9 -24.05 4.05 -23.95 5.15 -23 5.7 -21.75 6.5 -18.65 7.15 -17.05 7.45 -14.75 7.65 -13.45 7.8 -10.85 8 -4.45 8.75 -0.65 8.8 L0.85 8.8 Q4.65 8.75 11.05 8 19.3 7.05 19.6 7 25.75 5.5 23.35 2.05 24.45 1.5 24.7 0.25 24.85 -0.25 24.65 -0.9 24.45 -1.75 23.65 -2.3 22.85 -2.8 22 -2.75 23.5 -5.15 22.85 -6.4 22.7 -6.7 22.35 -7.05 L21.8 -7.6 Q20.75 -8.85 19.95 -11.75 18.6 -16.95 18.45 -21.15 18.25 -26.65 18.85 -30.1 19.95 -35.8 20.45 -38.7 21.3 -43.7 21.45 -47.35 L21.9 -59.95 Z" _p="true"></path></g><path stroke="#000000" stroke-width="1" stroke-linejoin="round" stroke-linecap="round" fill="none" d="M21.9 -59.95 Q21.87 -60.00 21.85 -60.05 M-22.2 -60.25 Q-22.2 -53.7 -21.25 -47.05 L-18.95 -31.9 Q-18.25 -27.2 -18.2 -24.85 -18.15 -22.1 -18.6 -17.8 -18.95 -14.55 -19.2 -13.3 -19.7 -10.8 -20.6 -9.05 -21.1 -7.95 -22.4 -5.95 -23.1 -4.25 -21.8 -2.75 -23.15 -1.6 -23.65 -0.15 -23.9 0.5 -23.75 1.2 -23.6 1.9 -23.1 2.3 -24.2 2.9 -24.05 4.05 -23.95 5.15 -23 5.7 -21.75 6.5 -18.65 7.15 -17.05 7.45 -14.75 7.65 -13.45 7.8 -10.85 8 -4.45 8.75 -0.65 8.8 L0.85 8.8 Q4.65 8.75 11.05 8 19.3 7.05 19.6 7 25.75 5.5 23.35 2.05 24.45 1.5 24.7 0.25 24.85 -0.25 24.65 -0.9 24.45 -1.75 23.65 -2.3 22.85 -2.8 22 -2.75 23.5 -5.15 22.85 -6.4 22.7 -6.7 22.35 -7.05 L21.8 -7.6 Q20.75 -8.85 19.95 -11.75 18.6 -16.95 18.45 -21.15 18.25 -26.65 18.85 -30.1 19.95 -35.8 20.45 -38.7 21.3 -43.7 21.45 -47.35 L21.9 -59.95 21.9 -60.05" _p="true" stroke-opacity="1"></path></g><g><g><path fill="#000000" fill-opacity="0.09" stroke="none" d="M-22.5 -1.75 Q-22.8 -1.3 -23.4 -0.5 -23.8 0.2 -23.8 1 -23.8 1.85 -23.15 2.15 -25.35 4 -22.8 5.6 -21.1 6.65 -18.55 7.15 -15.95 7.65 -10.8 8 -4.4 8.75 -0.6 8.8 L0.9 8.8 Q4.7 8.75 11.1 8 L15.5 7.6 15.3 7.6 Q7.65 7.1 4.05 6.3 -3.7 5.1 -7.3 4.05 -13.6 2.2 -16.6 -2.3 -11.65 -0.05 -8.15 0.85 -3.4 2.15 0.6 1.75 -5.45 -0.45 -10.45 -4.35 -14.9 -7.65 -15.2 -11.15 -10.5 -7.4 -4.7 -6.25 -9.15 -9.45 -11.6 -12.05 -13.95 -14.65 -15.6 -19.25 -17.25 -24.65 -18.15 -27.2 L-18.1 -21.5 Q-18.1 -17.5 -18.35 -16 -18.85 -12.45 -21.2 -8.2 -22.5 -5.85 -22.35 -4.7 -22.25 -4.15 -22.05 -3.1 -22.05 -2.45 -22.5 -1.75 M10.05 -18.2 Q5.2 -23.8 0.1 -30.25 -7.8 -40.25 -10.1 -44.8 L-7.95 -39.45 Q-4.35 -31.4 -1.45 -29 3.2 -25.2 10.05 -18.2 Z" _p="true"></path></g></g></g></g>
</g></g><g transform="matrix(0.79,0,0,0.79,150,300)" class="body"><g><g><g class="c13"><g transform="matrix(1,0,0,1,0.2,6.8)"><g><path fill="#fbfaf6" fill-opacity="1" stroke="none" d="M-18.2 -0.9 Q-19.04 -0.83 -19.7 -0.8 -23.3 -0.55 -25.7 -1.3 -26.45 1.55 -26.4 1.8 -26.35 2.65 -26 2.85 -25.75 3 -25 3.05 -21.95 3.5 -17.4 3.1 -14.05 2.85 -9.45 2 -8.53 1.84 -7.3 1.6 -11.46 0.96 -13.8 0.4 -16.19 -0.17 -18.2 -0.9 M23.8 -1.15 Q17.53 -1.19 11.9 -1.5 5.41 -1.83 -0.25 -2.5 -0.89 -2.57 -1.55 -2.65 -6.22 -3.26 -10.95 -4.15 -11.40 -4.14 -11.85 -4.15 -18.3 -4.3 -23.65 -5.1 -24.45 -5.25 -24.25 -5.95 L-24.25 -6 Q-24.52 -5.82 -24.7 -5.5 -25.05 -4.85 -24.45 -4.35 -22.09 -2.32 -18.2 -0.9 -16.19 -0.17 -13.8 0.4 -11.46 0.96 -7.3 1.6 -4.86 1.99 -1.8 2.4 8.7 3.7 23.8 3.7 26.5 3.75 26.5 1.3 26.5 -1.15 23.8 -1.15 M11.9 -1.5 Q12.04 -1.52 12.2 -1.55 15 -2.05 19.1 -2.7 22.3 -3.35 24.7 -4.55 25.85 -5.15 25.45 -6.4 25.16 -7.29 24.4 -7.6 24.18 -7.30 23.7 -7.15 18.9 -5.65 12 -4.95 10.47 -4.80 8.5 -4.7 4.98 -3.93 -0.8 -2.8 -1.16 -2.73 -1.55 -2.65 -0.89 -2.57 -0.25 -2.5 5.41 -1.83 11.9 -1.5 M11.65 -8.55 Q4.25 -7.75 0 -7.55 -1.75 -7.45 -11.7 -7.3 -18.85 -7.2 -23.4 -6.7 -24.08 -6.60 -24.25 -6 L-24.25 -5.95 Q-24.45 -5.25 -23.65 -5.1 -18.3 -4.3 -11.85 -4.15 -11.40 -4.14 -10.95 -4.15 -6.54 -4.07 0 -4.3 4.96 -4.46 8.5 -4.7 10.47 -4.80 12 -4.95 18.9 -5.65 23.7 -7.15 24.18 -7.30 24.4 -7.6 24.75 -7.98 24.7 -8.6 24.6 -9.7 23.3 -9.65 19.85 -9.45 11.65 -8.55 Z" _p="true"></path></g><path stroke="#000000" stroke-width="0.5" stroke-linejoin="miter" stroke-linecap="butt" stroke-miterlimit="10" fill="none" d="M24.42 -7.6 Q24.75 -7.98 24.7 -8.6 24.6 -9.7 23.3 -9.65 19.85 -9.45 11.65 -8.55 4.25 -7.75 0 -7.55 -1.75 -7.45 -11.7 -7.3 -18.85 -7.2 -23.4 -6.7 -24.08 -6.60 -24.25 -5.97 L-24.25 -5.95 Q-24.45 -5.25 -23.65 -5.1 -18.3 -4.3 -11.85 -4.15 -11.40 -4.14 -10.92 -4.12 -6.54 -4.07 0 -4.3 4.96 -4.46 8.52 -4.67 10.47 -4.80 12 -4.95 18.9 -5.65 23.7 -7.15 24.18 -7.30 24.42 -7.6 Z M11.9 -1.5 Q17.53 -1.19 23.8 -1.15 26.5 -1.15 26.5 1.3 26.5 3.75 23.8 3.7 8.7 3.7 -1.8 2.4 -4.86 1.99 -7.3 1.62 M-18.17 -0.9 Q-22.09 -2.32 -24.45 -4.35 -25.05 -4.85 -24.7 -5.5 -24.52 -5.82 -24.25 -5.97 M-1.55 -2.65 Q-0.89 -2.57 -0.25 -2.5 5.41 -1.83 11.9 -1.5 M-1.55 -2.65 Q-6.22 -3.26 -10.92 -4.12 M-18.17 -0.9 Q-16.19 -0.17 -13.8 0.4 -11.46 0.96 -7.3 1.62" _p="true" stroke-opacity="1"></path><path stroke="#000000" stroke-width="0.5" stroke-linejoin="round" stroke-linecap="round" fill="none" d="M24.42 -7.6 Q25.16 -7.29 25.45 -6.4 25.85 -5.15 24.7 -4.55 22.3 -3.35 19.1 -2.7 15 -2.05 12.2 -1.55 12.04 -1.52 11.9 -1.5 M-7.3 1.62 Q-8.53 1.84 -9.45 2 -14.05 2.85 -17.4 3.1 -21.95 3.5 -25 3.05 -25.75 3 -26 2.85 -26.35 2.65 -26.4 1.8 -26.45 1.55 -25.7 -1.3 -23.3 -0.55 -19.7 -0.8 -19.04 -0.83 -18.17 -0.9 M8.52 -4.67 Q4.98 -3.93 -0.8 -2.8 -1.16 -2.73 -1.55 -2.65" _p="true" stroke-opacity="1"></path></g></g></g>
</g></g><g transform="matrix(0.79,0,0,0.79,150,238.35)" class="body"><g><g><g class="c1"><g><g><path fill="#eaeae8" fill-opacity="1" stroke="none" d="M8.9 1.2 Q7.26 0.77 6.85 0.7 L-6.8 0.75 Q-7.39 0.85 -8.5 1.15 -12.67 5.88 -9.6 13.8 L9.9 13.8 Q13.70 9.49 8.9 1.25 L8.9 1.2 Z" _p="true"></path></g><path stroke="#000000" stroke-width="1" stroke-linejoin="miter" stroke-linecap="round" stroke-miterlimit="3" fill="none" d="M8.9 1.22 Q7.26 0.77 6.85 0.7 M-6.8 0.75 Q-7.39 0.85 -8.5 1.15" _p="true" stroke-opacity="1"></path></g></g><g class="c22"><g><g><path fill="#fbfaf6" fill-opacity="1" stroke="none" d="M15.4 7.1 Q15.75 6 13.75 5.15 15.65 4.65 14.45 3.55 13.55 2.7 6.85 -0.2 12.95 5.4 10.55 12.8 L-9.6 12.8 Q-12.3 2.9 -6.8 -0.25 L-12.9 2.65 Q-14.7 3.4 -14.65 4.25 -14.6 5.25 -12.6 5.25 -13.65 5.35 -14.75 5.9 -16.2 6.6 -16.05 7.4 -15.8 8.6 -12.85 8.65 -13.75 8.7 -14.85 9.4 -16.2 10.25 -16.05 11.15 -15.9 11.95 -14.9 12.2 -14.1 12.35 -13.15 12.1 -16.15 13.3 -15.3 14.75 -14.8 15.6 -13.3 15.25 -12.15 14.95 -11.2 14.3 -12 14.9 -12.5 15.7 -13.15 16.8 -12.55 17.4 -11.95 18 -10.55 17.35 -9.45 16.85 -8.8 16.15 -9.3 17.8 -9.3 17.9 -9.4 18.9 -8.45 19.1 -7.65 19.25 -6.7 18.4 -5.9 17.7 -5.5 16.8 -5.05 18.9 -3.05 18.9 -1 18.95 -0.8 16.65 -0.6 17.7 -0.05 18.35 0.6 19.1 1.55 18.85 2.35 18.65 2.75 17.85 3.05 16.9 3.2 16.5 3.8 19.05 6 19.15 8.2 19.3 8.35 16.5 9.7 18.6 11.05 18.15 12 17.85 12.05 16.9 12.1 16.05 11.5 15.3 12.4 15.7 13.4 15.55 14.55 15.4 14.8 14.55 15.1 13.65 14.4 12.95 13.4 12.25 13 11.85 14.9 11.25 15.05 10 15.25 8.75 13.2 8.3 13.85 8.35 14.5 8 15.25 7.65 15.4 7.1 Z" _p="true"></path></g><path stroke="#000000" stroke-width="0.9" stroke-linejoin="round" stroke-linecap="round" fill="none" d="M13.75 5.15 Q15.65 4.65 14.45 3.55 13.55 2.7 6.85 -0.2 12.95 5.4 10.55 12.8 L-9.6 12.8 Q-12.3 2.9 -6.8 -0.25 L-12.9 2.65 Q-14.7 3.4 -14.65 4.25 -14.6 5.25 -12.6 5.25 -13.65 5.35 -14.75 5.9 -16.2 6.6 -16.05 7.4 -15.8 8.6 -12.85 8.65 -13.75 8.7 -14.85 9.4 -16.2 10.25 -16.05 11.15 -15.9 11.95 -14.9 12.2 -14.1 12.35 -13.15 12.1 -16.15 13.3 -15.3 14.75 -14.8 15.6 -13.3 15.25 -12.15 14.95 -11.2 14.3 -12 14.9 -12.5 15.7 -13.15 16.8 -12.55 17.4 -11.95 18 -10.55 17.35 -9.45 16.85 -8.8 16.15 -9.3 17.8 -9.3 17.9 -9.4 18.9 -8.45 19.1 -7.65 19.25 -6.7 18.4 -5.9 17.7 -5.5 16.8 -5.05 18.9 -3.05 18.9 -1 18.95 -0.8 16.65 -0.6 17.7 -0.05 18.35 0.6 19.1 1.55 18.85 2.35 18.65 2.75 17.85 3.05 16.9 3.2 16.5 3.8 19.05 6 19.15 8.2 19.3 8.35 16.5 9.7 18.6 11.05 18.15 12 17.85 12.05 16.9 12.1 16.05 11.5 15.3 12.4 15.7 13.4 15.55 14.55 15.4 14.8 14.55 15.1 13.65 14.4 12.95 13.4 12.25 13 11.85 14.9 11.25 15.05 10 15.25 8.75 13.2 8.3 13.85 8.35 14.5 8 15.25 7.65 15.4 7.1 15.75 6 13.75 5.15 Z" _p="true" stroke-opacity="1"></path></g></g></g>
</g></g><g transform="matrix(0.8,0,0,0.81,150,225.14)" class="head"><g><g><g class="c2"><g><g><path fill="#180900" fill-opacity="1" stroke="none" d="M2.8 -12.85 Q7.8 -12.65 12.05 -14.35 15.55 -15.7 20.1 -19.05 21.8 -20.3 22.5 -21.15 23.45 -22.3 23.8 -24 24.85 -29.65 22.9 -35.4 20.75 -42.3 16.15 -46.8 8.95 -53.9 -2.6 -52.4 -13.85 -50.9 -18.7 -43.05 -23.15 -35.9 -23.35 -28.85 -23.6 -20.3 -16.75 -17 -9 -13.3 2.8 -12.85 Z" _p="true"></path></g><path stroke="#000000" stroke-width="1" stroke-linejoin="round" stroke-linecap="round" fill="none" d="M22.9 -35.4 Q24.85 -29.65 23.8 -24 23.45 -22.3 22.5 -21.15 21.8 -20.3 20.1 -19.05 15.55 -15.7 12.05 -14.35 7.8 -12.65 2.8 -12.85 -9 -13.3 -16.75 -17 -23.6 -20.3 -23.35 -28.85 -23.15 -35.9 -18.7 -43.05 -13.85 -50.9 -2.6 -52.4 8.95 -53.9 16.15 -46.8 20.75 -42.3 22.9 -35.4 Z" _p="true" stroke-opacity="1"></path></g></g></g>
</g></g><g transform="matrix(0.89,0,0,0.89,163.15,213.45)" class="head"><g><g><g class="c1"><g><g><path fill="#eaeae8" fill-opacity="1" stroke="none" d="M3.35 -2.4 Q2.4 -3.85 0.85 -2.6 0.1 -1.95 -0.5 -1 L-1.9 8.6 -1 9.5 Q0.1 9.95 0.9 8.6 L1.5 7.1 Q1.75 5.35 2.75 2.6 3.75 -0.15 3.35 -2.4 Z" _p="true"></path></g><path stroke="#000000" stroke-width="0.75" stroke-linejoin="round" stroke-linecap="round" fill="none" d="M-0.5 -1 Q0.1 -1.95 0.85 -2.6 2.4 -3.85 3.35 -2.4 3.75 -0.15 2.75 2.6 1.75 5.35 1.5 7.1 L0.9 8.6 Q0.1 9.95 -1 9.5 L-1.9 8.6" _p="true" stroke-opacity="1"></path></g><g><path stroke="#8c8c8b" stroke-opacity="1" stroke-width="0.45" stroke-linejoin="round" stroke-linecap="round" fill="none" d="M2.45 -0.2 Q2.4 -0.75 2 -1.3 0.65 0.05 0.2 2.3 0.25 2.15 0.45 2.45 0.65 2.75 0.65 2.85 0.65 3.05 0.1 3.95 -0.1 4.3 -0.3 5.2 -0.5 6.05 -0.5 6.5 -0.5 7 -0.1 7.3 0.35 7.6 0.5 6.95" _p="true"></path></g></g></g>
</g></g><g transform="matrix(-0.8896,0,0,0.89,136.85,213.45)" class="head"><g><g><g class="c1"><g><g><path fill="#eaeae8" fill-opacity="1" stroke="none" d="M3.35 -2.4 Q2.4 -3.85 0.85 -2.6 0.1 -1.95 -0.5 -1 L-1.9 8.6 -1 9.5 Q0.1 9.95 0.9 8.6 L1.5 7.1 Q1.75 5.35 2.75 2.6 3.75 -0.15 3.35 -2.4 Z" _p="true"></path></g><path stroke="#000000" stroke-width="0.75" stroke-linejoin="round" stroke-linecap="round" fill="none" d="M-0.5 -1 Q0.1 -1.95 0.85 -2.6 2.4 -3.85 3.35 -2.4 3.75 -0.15 2.75 2.6 1.75 5.35 1.5 7.1 L0.9 8.6 Q0.1 9.95 -1 9.5 L-1.9 8.6" _p="true" stroke-opacity="1"></path></g><g><path stroke="#8c8c8b" stroke-opacity="1" stroke-width="0.45" stroke-linejoin="round" stroke-linecap="round" fill="none" d="M2.45 -0.2 Q2.4 -0.75 2 -1.3 0.65 0.05 0.2 2.3 0.25 2.15 0.45 2.45 0.65 2.75 0.65 2.85 0.65 3.05 0.1 3.95 -0.1 4.3 -0.3 5.2 -0.5 6.05 -0.5 6.5 -0.5 7 -0.1 7.3 0.35 7.6 0.5 6.95" _p="true"></path></g></g></g>
</g></g><g transform="matrix(0.8,0,0,0.81,150,220.29)" class="head"><g><g><g class="c1"><g><g><path fill="#eaeae8" fill-opacity="1" stroke="none" d="M12.45 -32.95 Q8.85 -36.75 2.65 -37.45 -3.2 -38.05 -8.05 -35.65 -12.1 -33.6 -14.8 -29.35 -17.35 -25.25 -17.75 -20.45 -17.95 -18.15 -17.65 -14.8 -17.5 -12.95 -17.1 -9.2 -16.88 -6.44 -16.35 -3.4 -16.11 -2.24 -15.85 -1.05 -3.10 11.71 15.85 -1.05 15.85 -1.35 15.9 -1.7 15.93 -2.06 16.1 -3.4 16.45 -5.57 17.2 -10.35 18 -15.55 17.8 -19.05 17.25 -27.95 12.45 -32.95 Z" _p="true"></path></g><path stroke="#000000" stroke-width="0.95" stroke-linejoin="miter" stroke-linecap="round" stroke-miterlimit="3" fill="none" d="M15.85 -1.05 Q15.85 -1.35 15.9 -1.7 15.93 -2.06 16.12 -3.4 16.45 -5.57 17.2 -10.35 18 -15.55 17.8 -19.05 17.25 -27.95 12.45 -32.95 8.85 -36.75 2.65 -37.45 -3.2 -38.05 -8.05 -35.65 -12.1 -33.6 -14.8 -29.35 -17.35 -25.25 -17.75 -20.45 -17.95 -18.15 -17.65 -14.8 -17.5 -12.95 -17.1 -9.2 -16.88 -6.44 -16.32 -3.4 -16.11 -2.24 -15.85 -1.05" _p="true" stroke-opacity="1"></path></g></g></g>
</g></g><g transform="matrix(0.8,0,0,0.74,150,224.52)" class="head"><path class="customDrawFill" d="M13.95 -0.25 Q14.6 -2.2 15.8 -6.956 L-15.8 -6.956 Q-14.7 -2.25 -13.95 -0.25 Z" fill="#eaeae8"></path><path class="customDrawStroke" d="M13.95 -0.25 Q14.6 -2.2 15.8 -6.956 M-15.8 -6.956 Q-14.7 -2.25 -13.95 -0.25" fill="none" stroke-linecap="round" stroke="#000" stroke-width="1"></path><g><g><g class="c1"><g><g><path fill="#eaeae8" fill-opacity="1" stroke="none" d="M-6.55 -2.4 Q-11.3 -1.65 -13.9 -0.25 -12.6 2.25 -10.4 4.6 -8.25 6.95 -5.8 8.65 -2.75 10.65 0.05 10.65 2.9 10.65 5.9 8.65 8.4 6.95 10.55 4.6 12.75 2.25 14 -0.25 3.05 -3.8 -6.55 -2.4 Z" _p="true"></path></g><path stroke="#000000" stroke-width="0.95" stroke-linejoin="miter" stroke-linecap="round" stroke-miterlimit="1" fill="none" d="M14 -0.25 Q12.75 2.25 10.55 4.6 8.4 6.95 5.9 8.65 2.9 10.65 0.05 10.65 -2.75 10.65 -5.8 8.65 -8.25 6.95 -10.4 4.6 -12.6 2.25 -13.9 -0.25" _p="true" stroke-opacity="1"></path></g></g></g>
</g></g><g transform="matrix(1,0,0,1,140.44,217.82)" class="head"><g><g><g class="c0" transform="matrix(1,0,0,1,0,-2.65)"><g><g><path fill="#fff" fill-opacity="0.4" stroke="none" d="M1.2 -0.3 Q0.65 -0.6 0.15 -0.55 -0.55 -0.45 -1.55 0.35 -1.85 0.5 -1.75 0.65 -1.7 0.85 -0.2 0.85 -0.05 0.85 0.75 0.9 1.5 0.95 1.65 0.8 1.85 0.65 1.65 0.25 1.45 -0.1 1.2 -0.3 Z" _p="true"></path></g></g></g></g>
</g></g><g transform="matrix(1,0,0,1,159.56,217.82)" class="head"><g><g><g class="c0" transform="matrix(1,0,0,1,0,-2.65)"><g><g><path fill="#fff" fill-opacity="0.4" stroke="none" d="M1.2 -0.3 Q0.65 -0.6 0.15 -0.55 -0.55 -0.45 -1.55 0.35 -1.85 0.5 -1.75 0.65 -1.7 0.85 -0.2 0.85 -0.05 0.85 0.75 0.9 1.5 0.95 1.65 0.8 1.85 0.65 1.65 0.25 1.45 -0.1 1.2 -0.3 Z" _p="true"></path></g></g></g></g>
</g></g><g transform="matrix(0.68,0,0,0.62,156.77,212.48)" class="head"><g><g><g><g><g><path fill="#fff" stroke="none" d="M4.15 -0.15 Q3.65 -1.55 3.1 -2.1 2.9 -2.25 2.75 -2.35 2 -2.65 1.1 -2.65 0.85 -2.65 0.65 -2.6 0.5 -2.6 0.35 -2.6 -0.95 -2.45 -2.05 -1.9 -3.25 -1.3 -3.8 0.55 -3.9 0.85 -4 1.25 L-4 1.35 -4.05 1.45 Q-3.55 1.65 -3.05 1.8 -0.05 2.55 3.15 1.6 4 1.35 4.2 1.05 4.4 0.7 4.15 -0.15 Z"></path></g></g></g><mask id="0_eyeL_0_l2_e0_m1"><g><g><g><path fill="#fff" stroke="none" d="M4.15 -0.15 Q3.65 -1.55 3.1 -2.1 2.9 -2.25 2.75 -2.35 2 -2.65 1.1 -2.65 0.85 -2.65 0.65 -2.6 0.5 -2.6 0.35 -2.6 -0.95 -2.45 -2.05 -1.9 -3.25 -1.3 -3.8 0.55 -3.9 0.85 -4 1.25 L-4 1.35 -4.05 1.45 Q-3.55 1.65 -3.05 1.8 -0.05 2.55 3.15 1.6 4 1.35 4.2 1.05 4.4 0.7 4.15 -0.15 Z"></path></g></g></g></mask><g mask="url(#0_eyeL_0_l2_e0_m1)"><g class="offset"><g class="c10"><g><g><path fill="#bfc3c4" fill-opacity="1" stroke="none" d="M2.2 -0.1 Q2.15 -1.05 1.5 -1.65 0.8 -2.3 -0.1 -2.25 -0.95 -2.2 -1.55 -1.5 -2.2 -0.85 -2.15 0.1 -2.05 1.05 -1.4 1.65 -0.75 2.3 0.15 2.25 1.05 2.2 1.65 1.5 2.25 0.8 2.2 -0.1 Z" _p="true"></path></g><path stroke="#000000" stroke-width="0.5" stroke-linejoin="miter" stroke-linecap="butt" stroke-miterlimit="3" fill="none" d="M2.2 -0.1 Q2.25 0.8 1.65 1.5 1.05 2.2 0.15 2.25 -0.75 2.3 -1.4 1.65 -2.05 1.05 -2.15 0.1 -2.2 -0.85 -1.55 -1.5 -0.95 -2.2 -0.1 -2.25 0.8 -2.3 1.5 -1.65 2.15 -1.05 2.2 -0.1 Z" _p="true" stroke-opacity="1"></path></g><g><g><path fill="#bfc3c4" fill-opacity="1" stroke="none" d="M2.2 -0.1 Q2.15 -1.05 1.5 -1.65 0.8 -2.3 -0.1 -2.25 -0.95 -2.2 -1.55 -1.5 -2.2 -0.85 -2.15 0.1 -2.05 1.05 -1.4 1.65 -0.75 2.3 0.15 2.25 1.05 2.2 1.65 1.5 2.25 0.8 2.2 -0.1 Z" _p="true"></path></g></g><g><g><path fill="#fff" stroke="none" d="M0.65 -1.25 Q0.55 -1.15 0.55 -0.95 0.55 -0.55 0.95 -0.55 1.1 -0.6 1.2 -0.65 1.35 -0.8 1.35 -1 1.35 -1.4 0.9 -1.4 0.7 -1.4 0.65 -1.25 Z" _p="true"></path><path fill="#000000" fill-opacity="0.69" stroke="none" d="M0.55 -0.95 Q0.55 -1.15 0.65 -1.25 0.3 -1.45 -0.05 -1.4 -0.6 -1.4 -0.95 -0.95 -1.35 -0.55 -1.3 0.05 -1.25 0.6 -0.85 1 -0.45 1.35 0.1 1.35 0.65 1.3 1.05 0.9 1.4 0.45 1.35 -0.1 1.3 -0.4 1.2 -0.65 1.1 -0.6 0.95 -0.55 0.55 -0.55 0.55 -0.95 Z" _p="true"></path></g></g></g></g></g><g class="c1"><g><path stroke="#000000" stroke-width="0.25" stroke-linejoin="miter" stroke-linecap="round" stroke-miterlimit="3" fill="none" d="M3.95 -1.8 Q3.45 -2.95 1.7 -3.35 0.1 -3.65 -1.1 -3.15 -3.65 -2.1 -4.15 1.55" _p="true" stroke-opacity="1"></path></g><g><path stroke="#000000" stroke-width="0.5" stroke-linejoin="miter" stroke-linecap="round" stroke-miterlimit="3" fill="none" d="M-3.95 1.3 Q-3.7 -0.5 -1.45 -1.9 -0.4 -2.55 0.6 -2.6 1.75 -2.65 2.6 -1.95 3.45 -1.2 3.95 -0.4 4.7 0.8 3.95 1.3 2.6 2.2 -0.6 2.2 -3.55 2.2 -3.95 1.6 L-3.95 1.3 Z" _p="true" stroke-opacity="1"></path></g><g><path stroke="#000000" stroke-width="0.5" stroke-linejoin="round" stroke-linecap="round" fill="none" d="M3.75 -1.05 Q3.55 -1 4.25 -0.7 5.1 -0.4 5.85 -1.1 M2.85 -1.8 Q3.45 -1.65 3.95 -1.8 4.6 -1.9 5 -2.4 M2.3 -2.35 Q2.6 -2.1 3.45 -2.7 4.25 -3.2 4.5 -3.6" _p="true" stroke-opacity="1"></path></g><g><path stroke="#000000" stroke-width="1" stroke-linejoin="miter" stroke-linecap="square" stroke-miterlimit="3" fill="none" d="M-4 1.55 Q-3.65 -1.75 -0.25 -2.45 0.5 -2.6 1.4 -2.4 2.3 -2.2 2.85 -1.8 3.4 -1.35 3.8 -0.55 4.2 0.15 4.25 0.65" _p="true" stroke-opacity="1"></path></g></g></g>
</g></g><g transform="matrix(-0.6817,0,0,0.62,143.23,212.48)" class="head"><g><g><g><g><g><path fill="#fff" stroke="none" d="M4.15 -0.15 Q3.65 -1.55 3.1 -2.1 2.9 -2.25 2.75 -2.35 2 -2.65 1.1 -2.65 0.85 -2.65 0.65 -2.6 0.5 -2.6 0.35 -2.6 -0.95 -2.45 -2.05 -1.9 -3.25 -1.3 -3.8 0.55 -3.9 0.85 -4 1.25 L-4 1.35 -4.05 1.45 Q-3.55 1.65 -3.05 1.8 -0.05 2.55 3.15 1.6 4 1.35 4.2 1.05 4.4 0.7 4.15 -0.15 Z"></path></g></g></g><mask id="0_eyeR_0_l2_e0_m1"><g><g><g><path fill="#fff" stroke="none" d="M4.15 -0.15 Q3.65 -1.55 3.1 -2.1 2.9 -2.25 2.75 -2.35 2 -2.65 1.1 -2.65 0.85 -2.65 0.65 -2.6 0.5 -2.6 0.35 -2.6 -0.95 -2.45 -2.05 -1.9 -3.25 -1.3 -3.8 0.55 -3.9 0.85 -4 1.25 L-4 1.35 -4.05 1.45 Q-3.55 1.65 -3.05 1.8 -0.05 2.55 3.15 1.6 4 1.35 4.2 1.05 4.4 0.7 4.15 -0.15 Z"></path></g></g></g></mask><g mask="url(#0_eyeR_0_l2_e0_m1)"><g class="offset"><g class="c10"><g><g><path fill="#bfc3c4" fill-opacity="1" stroke="none" d="M2.2 -0.1 Q2.15 -1.05 1.5 -1.65 0.8 -2.3 -0.1 -2.25 -0.95 -2.2 -1.55 -1.5 -2.2 -0.85 -2.15 0.1 -2.05 1.05 -1.4 1.65 -0.75 2.3 0.15 2.25 1.05 2.2 1.65 1.5 2.25 0.8 2.2 -0.1 Z" _p="true"></path></g><path stroke="#000000" stroke-width="0.5" stroke-linejoin="miter" stroke-linecap="butt" stroke-miterlimit="3" fill="none" d="M2.2 -0.1 Q2.25 0.8 1.65 1.5 1.05 2.2 0.15 2.25 -0.75 2.3 -1.4 1.65 -2.05 1.05 -2.15 0.1 -2.2 -0.85 -1.55 -1.5 -0.95 -2.2 -0.1 -2.25 0.8 -2.3 1.5 -1.65 2.15 -1.05 2.2 -0.1 Z" _p="true" stroke-opacity="1"></path></g><g><g><path fill="#bfc3c4" fill-opacity="1" stroke="none" d="M2.2 -0.1 Q2.15 -1.05 1.5 -1.65 0.8 -2.3 -0.1 -2.25 -0.95 -2.2 -1.55 -1.5 -2.2 -0.85 -2.15 0.1 -2.05 1.05 -1.4 1.65 -0.75 2.3 0.15 2.25 1.05 2.2 1.65 1.5 2.25 0.8 2.2 -0.1 Z" _p="true"></path></g></g><g><g><path fill="#fff" stroke="none" d="M0.65 -1.25 Q0.55 -1.15 0.55 -0.95 0.55 -0.55 0.95 -0.55 1.1 -0.6 1.2 -0.65 1.35 -0.8 1.35 -1 1.35 -1.4 0.9 -1.4 0.7 -1.4 0.65 -1.25 Z" _p="true"></path><path fill="#000000" fill-opacity="0.69" stroke="none" d="M0.55 -0.95 Q0.55 -1.15 0.65 -1.25 0.3 -1.45 -0.05 -1.4 -0.6 -1.4 -0.95 -0.95 -1.35 -0.55 -1.3 0.05 -1.25 0.6 -0.85 1 -0.45 1.35 0.1 1.35 0.65 1.3 1.05 0.9 1.4 0.45 1.35 -0.1 1.3 -0.4 1.2 -0.65 1.1 -0.6 0.95 -0.55 0.55 -0.55 0.55 -0.95 Z" _p="true"></path></g></g></g></g></g><g class="c1"><g><path stroke="#000000" stroke-width="0.25" stroke-linejoin="miter" stroke-linecap="round" stroke-miterlimit="3" fill="none" d="M3.95 -1.8 Q3.45 -2.95 1.7 -3.35 0.1 -3.65 -1.1 -3.15 -3.65 -2.1 -4.15 1.55" _p="true" stroke-opacity="1"></path></g><g><path stroke="#000000" stroke-width="0.5" stroke-linejoin="miter" stroke-linecap="round" stroke-miterlimit="3" fill="none" d="M-3.95 1.3 Q-3.7 -0.5 -1.45 -1.9 -0.4 -2.55 0.6 -2.6 1.75 -2.65 2.6 -1.95 3.45 -1.2 3.95 -0.4 4.7 0.8 3.95 1.3 2.6 2.2 -0.6 2.2 -3.55 2.2 -3.95 1.6 L-3.95 1.3 Z" _p="true" stroke-opacity="1"></path></g><g><path stroke="#000000" stroke-width="0.5" stroke-linejoin="round" stroke-linecap="round" fill="none" d="M3.75 -1.05 Q3.55 -1 4.25 -0.7 5.1 -0.4 5.85 -1.1 M2.85 -1.8 Q3.45 -1.65 3.95 -1.8 4.6 -1.9 5 -2.4 M2.3 -2.35 Q2.6 -2.1 3.45 -2.7 4.25 -3.2 4.5 -3.6" _p="true" stroke-opacity="1"></path></g><g><path stroke="#000000" stroke-width="1" stroke-linejoin="miter" stroke-linecap="square" stroke-miterlimit="3" fill="none" d="M-4 1.55 Q-3.65 -1.75 -0.25 -2.45 0.5 -2.6 1.4 -2.4 2.3 -2.2 2.85 -1.8 3.4 -1.35 3.8 -0.55 4.2 0.15 4.25 0.65" _p="true" stroke-opacity="1"></path></g></g></g>
</g></g><g transform="matrix(0.7,0,0,0.81,150,224.32)" class="head"><g><g><g class="c3"><g><g><path fill="#dcdcdc" fill-opacity="1" stroke="none" d="M4.05 -0.2 Q4.36 -0.23 4.7 -0.3 3.65 -1.05 1.95 -1.35 L0.45 -1.5 Q-1.7 -1.55 -3.15 -1 -3.95 -0.7 -4.95 -0.15 -4.86 -0.12 -4.8 -0.1 -4.83 -0.07 -4.9 -0.05 -3.85 1.15 -2.1 1.7 1.4 2.9 4.7 0.05 4.39 -0.07 4.05 -0.2 Z" _p="true"></path></g></g><g><g><path fill="#ffffff" fill-opacity="0.4" stroke="none" d="M2.55 1 Q3.65 0.65 2.5 0.4 2.05 0.4 1.65 0.45 0.8 0.6 1.1 0.95 1.4 1.35 2.55 1 Z" _p="true"></path></g></g><g><path stroke="#000000" stroke-width="0.5" stroke-linejoin="round" stroke-linecap="round" fill="none" d="M-5.05 0 Q-4.05 -0.25 -3.6 -0.3 -2.95 -0.35 -2.1 -0.25 -1.75 -0.2 -1.1 -0.1 -0.5 -0.05 -0.05 -0.05 0.35 -0.05 1.25 -0.2 2.15 -0.4 2.55 -0.4 3 -0.45 3.9 -0.3 4.8 -0.1 5.2 -0.15" _p="true" stroke-opacity="1"></path></g></g><g class="c1"><g><path stroke="#8c8c8b" stroke-opacity="1" stroke-width="0.3" stroke-linejoin="miter" stroke-linecap="round" stroke-miterlimit="10" fill="none" d="M-2.55 1.55 Q-1.9 1.95 -1.05 2.1 0.75 2.5 2.1 1.65" _p="true"></path></g></g></g>
</g></g><g transform="matrix(0.8,0,0,0.73,150,216.87)" class="head"><g><g><g class="c0"><g><g><path fill="#fff" fill-opacity="0" stroke="none" d="M-4.5 -8.45 L-4.5 5.8 4.5 5.8 4.5 -8.45 -4.5 -8.45 Z" _p="true"></path></g></g></g><g class="c1"><g><g><path fill="#eaeae8" fill-opacity="1" stroke="none" d="M1.7 3.8 Q2.05 3.6 2 3.2 1.8 2 0.15 1.55 -1.7 1.05 -3.75 2.25 -3.85 2.35 -3.8 2.55 -3.8 2.65 -3.75 2.8 -3.65 3.45 -3.15 3.75 -2.8 3.95 -2 4.2 L-1.5 4.5 Q-0.65 4.7 1 4.05 1.5 3.9 1.7 3.8 Z" _p="true"></path></g></g><g><g><path fill="#ffffff" fill-opacity="0.4" stroke="none" d="M-2.65 2 Q-2.5 2.65 -0.35 2.15 1.8 1.65 0.15 1.35 -2.9 1.05 -2.65 2 Z" _p="true"></path><path fill="#000000" fill-opacity="0.2" stroke="none" d="M1.75 3.8 Q2.15 3.55 2 3.2 1.65 2.6 -2.45 3.1 -3.45 2.25 -3 0.95 -3.85 1.7 -3.75 2.8 -3.65 3.45 -3.15 3.75 -2.8 3.95 -2 4.2 L-1.5 4.5 Q-0.65 4.7 1 4.05 1.7 3.8 1.75 3.8 Z" _p="true"></path></g></g></g></g>
</g></g><g transform="matrix(0.89,0,0,0.81,156.73,208.43)" class="head"><g><g><g class="c20"><g><g><path fill="#180900" fill-opacity="1" stroke="none" d="M-4.85 0.3 Q-4.9 0.7 -3.35 0.35 -2.5 0.15 -1.1 -0.2 1.95 -0.6 4.4 0.1 5.9 0.5 6.5 1 4 -1.4 1.3 -1.5 -1.25 -1.6 -3.2 -0.9 -4.75 -0.3 -4.85 0.3 Z" _p="true"></path></g><path stroke="#130700" stroke-opacity="1" stroke-width="0.3" stroke-linejoin="round" stroke-linecap="butt" fill="none" d="M-1.1 -0.2 Q-2.5 0.15 -3.35 0.35 -4.9 0.7 -4.85 0.3 -4.75 -0.3 -3.2 -0.9 -1.25 -1.6 1.3 -1.5 4 -1.4 6.5 1 5.9 0.5 4.4 0.1 1.95 -0.6 -1.1 -0.2 Z" _p="true"></path></g></g></g>
</g></g><g transform="matrix(-0.8885,0,0,0.81,143.27,208.43)" class="head"><g><g><g class="c20"><g><g><path fill="#180900" fill-opacity="1" stroke="none" d="M-4.85 0.3 Q-4.9 0.7 -3.35 0.35 -2.5 0.15 -1.1 -0.2 1.95 -0.6 4.4 0.1 5.9 0.5 6.5 1 4 -1.4 1.3 -1.5 -1.25 -1.6 -3.2 -0.9 -4.75 -0.3 -4.85 0.3 Z" _p="true"></path></g><path stroke="#130700" stroke-opacity="1" stroke-width="0.3" stroke-linejoin="round" stroke-linecap="butt" fill="none" d="M-1.1 -0.2 Q-2.5 0.15 -3.35 0.35 -4.9 0.7 -4.85 0.3 -4.75 -0.3 -3.2 -0.9 -1.25 -1.6 1.3 -1.5 4 -1.4 6.5 1 5.9 0.5 4.4 0.1 1.95 -0.6 -1.1 -0.2 Z" _p="true"></path></g></g></g>
</g></g><g transform="matrix(0.8,0,0,0.81,150,225.14)" class="head"><g><g><g class="c2"><g><g><path fill="#180900" fill-opacity="1" stroke="none" d="M15.65 -43.75 Q10.65 -49 2.1 -49.35 -6.15 -49.7 -12.2 -45.45 -19.65 -40.1 -20.9 -33.3 -21.75 -28.65 -21.15 -24.95 -20.9 -23.7 -19.75 -22.25 -18.2 -20.4 -17.9 -19.85 -18.1 -22.3 -16.6 -27.6 -15.1 -33 -13.75 -34.45 -7.25 -41.8 -0.1 -41.85 6.95 -41.9 11.3 -38.15 14.85 -35.05 16.9 -29.2 17.45 -27.75 18.05 -22.7 18.6 -17.7 18.3 -17.35 19.3 -18.45 19.85 -20.7 20.3 -23.25 20.65 -24.4 22.3 -29.75 20.85 -34.95 19.45 -39.75 15.65 -43.75 Z" _p="true"></path></g></g><g><g><path fill="#ffffff" fill-opacity="0.4" stroke="none" d="M-5.35 -46 Q-3.5 -47.4 -2.8 -47.65 -3.55 -47.4 -6.2 -47.35 -8.4 -47.35 -9.4 -46.45 -10.2 -45.75 -10.65 -44.1 -10.95 -43.2 -11.35 -41.5 -10.05 -41.6 -7.7 -42.95 -7.1 -43.2 -5.85 -43.4 -4.5 -43.65 -4.05 -43.8 -6.8 -43.7 -7.05 -44 -7.4 -44.4 -5.35 -46 M11.15 -45.3 Q11.9 -45.05 13.3 -44.6 11.9 -46.2 9.75 -47 8.35 -47.5 6.9 -47.55 5.3 -47.65 4 -47.25 4.45 -47.05 5.5 -46.85 6.35 -46.6 6.7 -46.1 6.55 -46.05 5.7 -45.7 5.1 -45.5 4.85 -45.25 6.2 -45.15 6.55 -44.6 L5.4 -44.25 Q4.45 -44.15 4 -44.1 6.3 -44.25 8.5 -43.45 10.15 -42.85 12.55 -41.35 12.25 -42.3 11.1 -43.45 11.05 -43.5 9.9 -44.45 9.05 -45.1 8.95 -45.6 9.85 -45.7 11.15 -45.3 Z" _p="true"></path></g></g><g><path stroke="#000000" stroke-width="0.5" stroke-linejoin="round" stroke-linecap="round" fill="none" d="M0.05 -41.95 L0.05 -44.05 0.05 -46.25" _p="true" stroke-opacity="1"></path><path stroke="#000000" stroke-width="0.3" stroke-linejoin="round" stroke-linecap="round" fill="none" d="M0.05 -44.05 Q0.95 -44.5 2.05 -45.35 3.1 -46 4.2 -46.05" _p="true" stroke-opacity="1"></path></g></g></g>
</g></g><g transform="matrix(0.8,0,0,0.81,150,225.14)" class="head"><g><g><g class="c2"><g><g><path fill="#180900" fill-opacity="1" stroke="none" d="M12.35 -40.95 L11.55 -41.85 Q9.15 -44.4 5.85 -44.85 2.3 -45.35 -0.15 -42.85 -2.55 -44.5 -5.6 -43.75 -7.75 -43.2 -10.85 -41.25 -12.9 -39.95 -13.1 -39.75 -14.15 -38.8 -13.85 -37.5 -13.75 -37.15 -13.25 -36.35 -12.8 -35.7 -12.85 -35.15 -12.9 -34.45 -13.45 -33.75 -13.8 -33.35 -14.5 -32.65 -13.65 -32.7 -11.75 -32.35 -10.05 -32.2 -9.3 -33.1 -9.05 -33.4 -8 -35.75 -7.4 -37.05 -5.8 -37.1 -3.75 -37.1 -2.5 -37.7 -1.3 -38.3 0.1 -40 1.1 -38.55 2.9 -37.95 4.15 -37.55 6.45 -37.4 7.85 -37.3 8.15 -36.95 8.25 -36.75 8.6 -35.25 9.05 -32.9 11.95 -32.05 12.35 -31.9 14.9 -31.65 17.28 -31.25 17.35 -30.55 17.14 -33.70 15.8 -36.25 14.75 -38.3 12.35 -40.95 Z" _p="true"></path></g></g><g><g><path fill="#ffffff" fill-opacity="0.4" stroke="none" d="M-9.5 -40 Q-7.5 -40.1 -5.3 -40.9 -2.75 -41.8 -1.7 -43.1 -2.25 -43.15 -3.45 -43.05 -4.6 -42.9 -5.2 -43 -5.1 -43.15 -4.9 -43.8 L-5.5 -43.75 Q-7.05 -43.4 -9.05 -42.3 -8 -42.4 -7.85 -42.3 -7.4 -41.8 -8.25 -41 -8.35 -40.9 -9.5 -40 M10.75 -39.5 Q11 -40.55 10.25 -41.35 10.15 -41.45 8.65 -42.6 L10.65 -42.65 Q9.3 -43.85 7.55 -44.45 7.1 -44.05 6.35 -43.9 5.65 -43.8 5.15 -44 6.45 -43.45 6.75 -43 6 -42.65 3.95 -42.2 2 -41.85 1 -41.3 4.6 -41.4 6.1 -41.15 8.45 -40.85 10.75 -39.5 Z" _p="true"></path></g></g><g><path stroke="#000000" stroke-width="0.3" stroke-linejoin="round" stroke-linecap="round" fill="none" d="M0.15 -42.4 Q2.32 -45.00 7.15 -43.35 11.3 -41.95 13.9 -39.25 M0.15 -42.4 Q0.01 -42.26 -0.1 -42.1 -2.5 -43.75 -5.9 -42.5 -7.7 -41.85 -11.4 -39.4" _p="true" stroke-opacity="1"></path><path stroke="#000000" stroke-width="0.5" stroke-linejoin="round" stroke-linecap="round" fill="none" d="M0.15 -42.4 L0.1 -40 Q1.1 -38.55 2.9 -37.95 4.15 -37.55 6.45 -37.4 7.85 -37.3 8.15 -36.95 8.25 -36.75 8.6 -35.25 8.85 -33.9 9.5 -33.25 10.15 -32.65 11.6 -32.4 13.15 -32.1 13.3 -31.9 13.5 -31.7 13.4 -30.05 13.35 -28.5 14.3 -27.75 14.9 -27.25 16.6 -26.35 M0.15 -43.15 L0.15 -42.4 M-13.6 -32.05 Q-13 -32.35 -11.35 -32.3 -10 -32.25 -9.3 -33.1 -9.05 -33.4 -8 -35.75 -7.4 -37.05 -5.8 -37.1 -3.75 -37.1 -2.5 -37.7 -1.3 -38.3 0.1 -40" _p="true" stroke-opacity="1"></path></g><g><g><path fill="#180900" fill-opacity="1" stroke="none" d="M-13.45 -32.45 Q-10.45 -32.35 -9.55 -34.1 -8.9 -36.75 -8.25 -38.5 L-12.75 -39 Q-15.55 -39.4 -16.7 -37.1 -17.35 -35.75 -18.1 -32.5 -18.45 -31.5 -19.45 -30.4 -20.55 -29.15 -20.9 -28.45 -21.4 -27.4 -21.35 -25.65 -21.3 -24.7 -21.2 -22.8 -21.2 -22.15 -21.15 -21.75 -21.2 -21.45 -21.5 -20.7 -21.7 -20.2 -22.5 -19.25 -23.25 -18.35 -23.45 -17.75 -24.05 -16.05 -23.4 -14.65 -23 -13.85 -22.05 -11.95 -21.6 -10.55 -22.15 -9.05 -22.5 -8.15 -23.3 -6.3 -23.9 -4.4 -23.85 -3.3 -23.75 -1.95 -22.7 -0.45 -21.35 1.4 -21.2 2 -21.05 2.7 -21.45 4.75 -22.35 9.3 -21.05 11.75 -20.35 13.1 -19.75 13.95 -19.6 14.4 -20.7 16.3 -22.2 18.95 -21.55 20.55 -21.05 21.95 -19.35 23.2 -19.16 23.34 -18.95 23.5 -19.36 24.09 -19.6 25.25 -19.95 26.95 -18.9 30.4 -17.85 33.6 -18.85 36.05 -18.3 35.15 -17.05 34 -15.1 32.2 -14.6 31.25 -13.35 28.85 -14.95 25.95 -15.62 24.78 -16.05 24.25 -14.97 22.09 -15.1 19.9 -15.3 17.45 -16.95 14.6 -15.35 13 -14.8 11.9 -13.95 10.3 -14.25 8.5 -14.45 7.2 -15.75 5.6 -17.2 3.85 -17.5 3 -18.1 1.4 -16.9 -2.8 -15.9 -6.25 -18.15 -8.5 -16.45 -9.65 -16 -12.4 -15.65 -14.9 -16.45 -17.05 -17.15 -19 -17.1 -19.3 -16.75 -20.1 -16.3 -21.5 -15.5 -23.8 -16.95 -26.7 -14.45 -26.75 -13.55 -28.45 -12.7 -30 -13.45 -32.45 M12.55 -32.45 Q11.75 -30 12.6 -28.45 13.5 -26.75 16.05 -26.7 14.55 -23.75 15.35 -21.5 15.85 -20.1 16.2 -19.3 16.25 -19 15.5 -17.05 14.75 -14.85 15.1 -12.4 15.5 -9.65 17.2 -8.5 14.95 -6.25 15.95 -2.8 17.15 1.4 16.55 3 16.25 3.85 14.8 5.6 13.55 7.2 13.3 8.5 13 10.3 13.85 11.9 14.45 12.95 16.05 14.6 14.35 17.45 14.2 19.9 14.03 22.11 15.1 24.3 14.62 24.96 14.05 25.95 12.45 28.75 13.7 31.25 14.2 32.2 16.15 34 17.35 35.15 17.95 36.05 16.9 33.6 17.95 30.4 18.5 28.55 18.65 27.85 18.9 26.4 18.65 25.25 18.42 24.10 18 23.5 18.24 23.34 18.45 23.2 20.1 21.95 20.65 20.55 21.3 18.85 19.75 16.3 18.65 14.4 18.8 13.95 19.45 13.1 20.15 11.75 21.4 9.3 20.5 4.75 20.1 2.7 20.3 2 20.45 1.4 21.75 -0.45 22.8 -1.95 22.9 -3.3 23 -4.35 22.4 -6.3 21.55 -8.15 21.25 -9.05 20.65 -10.55 21.1 -11.95 22.1 -13.85 22.5 -14.65 23.1 -16.05 22.5 -17.75 22.3 -18.35 21.55 -19.25 20.75 -20.2 20.55 -20.7 20.25 -21.45 20.2 -21.75 20.25 -22.15 20.25 -22.8 20.4 -24.7 20.45 -25.65 20.5 -27.4 20 -28.45 19.65 -29.1 18.5 -30.4 17.55 -31.45 17.2 -32.5 16.4 -35.75 15.75 -37.1 14.6 -39.4 11.8 -39 L7.3 -38.5 Q8 -36.75 8.65 -34.1 9.5 -32.35 12.55 -32.45 Z" _p="true"></path></g></g><g><g><path fill="#000000" fill-opacity="0.2" stroke="none" d="M-8.5 -37.8 Q-8.75 -37.65 -9.1 -37.15 -9.75 -36.2 -9.75 -36.15 -11.05 -34.6 -14.2 -33.6 -14.45 -35.15 -13.7 -36.1 -12.9 -37.1 -11.25 -36.95 -12.95 -38.65 -14.5 -37.2 -15.6 -36.2 -16.4 -33.9 -16.75 -32.95 -17.9 -31.2 -19.05 -29.5 -19.45 -28.45 -18.65 -29.55 -17.35 -30 -16.05 -30.5 -14.75 -30.1 -14.95 -28.9 -16.05 -28.15 -17.5 -27.4 -18.25 -27.05 -19.45 -26.45 -19.95 -25.6 -20.35 -24.95 -20.6 -23.45 -20.35 -24 -19.1 -25.05 -18.25 -24.6 -18.1 -22.95 -17.9 -21.5 -18.3 -20.45 -18.95 -20.25 -19.55 -20.5 -20.15 -20.75 -20.4 -21.35 -20.45 -20.15 -19.45 -18.85 -18.35 -17.4 -18.25 -16.55 -17.9 -14 -18.1 -10.45 -19.75 -10.45 -20.3 -13.3 -20.85 -16.05 -19.95 -17.35 -21.8 -16 -21.8 -13.5 -21.85 -11.4 -20.65 -9.2 -20.4 -8.7 -19.55 -7.9 -18.7 -7.1 -18.45 -6.55 -18.1 -5.8 -18.15 -4.4 -18.15 -3.6 -18.25 -2.1 -19.45 -4.6 -19.75 -6.9 -21.45 -5.6 -22.1 -3.7 -22.85 -1.4 -21.25 -0.05 -21.05 0.15 -20.4 0.4 -19.8 0.6 -19.6 0.8 -19.1 1.3 -18.35 2.6 -17.95 3.3 -17.25 4.55 -17.95 4.25 -18.95 3.65 -20 2.95 -20.55 2.6 -20.4 3.95 -18.95 5.25 -17.25 6.85 -16.9 7.6 -16.1 9.25 -16.6 13.55 -18.4 13.05 -18.85 10.65 -19 7.75 -19.1 6.6 -20.95 7.7 -20.4 10.65 -19.95 13.05 -18.55 14.9 -17.9 15.7 -17 16.85 -16.4 17.8 -16.25 19.1 -16.05 20.75 -16.3 23.9 -18.75 22.9 -19.25 17.65 -20.65 19.05 -20.4 20.6 -20.2 21.75 -19 23.4 L-18.85 23.5 -18.9 23.55 -17.95 24.8 Q-16.25 27.15 -16 28.4 -15.6 30.15 -16.95 32.4 L-18.5 34.55 Q-18.55 35.25 -18.9 36.1 -18.4 35.25 -16.75 33.7 -15.1 32.2 -14.6 31.25 -13.35 28.85 -14.95 25.95 -15.6 24.85 -16.05 24.25 -13.85 19.8 -16.95 14.6 -15.35 13 -14.8 11.9 -13.95 10.3 -14.25 8.5 -14.4 7.55 -15 6.65 -15.25 6.2 -16.15 5.1 -17.15 3.9 -17.5 3 -18.1 1.4 -16.9 -2.8 -15.9 -6.25 -18.15 -8.5 -16.45 -9.65 -16 -12.4 -15.65 -14.9 -16.45 -17.05 L-17.05 -18.8 -17 -18.75 -17.05 -19.65 Q-16.5 -20.95 -16.3 -21.5 -15.5 -23.8 -16.95 -26.7 -14.45 -26.75 -13.55 -28.45 -12.7 -30 -13.45 -32.45 -10.55 -32.35 -9.7 -33.9 -9.1 -34.85 -8.5 -37.8 M8.15 -37.15 Q7.85 -37.65 7.55 -37.8 8.05 -36.25 8.75 -33.9 9.65 -32.35 12.55 -32.45 11.75 -30 12.6 -28.45 13.5 -26.75 16.05 -26.7 14.55 -23.75 15.35 -21.5 L16.1 -19.65 16.05 -18.75 16.1 -18.8 15.5 -17.05 Q14.75 -14.85 15.1 -12.4 15.5 -9.65 17.2 -8.5 14.95 -6.25 15.95 -2.8 17.15 1.4 16.55 3 16.25 3.8 15.25 5.1 15.25 5.15 15.2 5.15 13.55 7.1 13.3 8.5 13 10.3 13.85 11.9 14.45 12.95 16.05 14.6 12.95 19.8 15.1 24.25 14.7 24.8 14.05 25.95 12.45 28.75 13.7 31.25 14.2 32.2 15.8 33.7 17.45 35.3 17.95 36.1 17.75 35.55 17.55 34.55 16.2 32.65 16.05 32.4 14.65 30.15 15.05 28.4 15.3 27.15 17.05 24.8 L17.95 23.55 17.95 23.5 18.05 23.4 Q19.3 21.75 19.45 20.6 19.75 19.05 18.3 17.65 17.8 22.95 15.35 23.9 15.15 20.75 15.3 19.1 15.45 17.8 16.1 16.85 17 15.7 17.6 14.9 19.05 13.05 19.5 10.65 20.1 7.7 18.2 6.6 18.15 7.75 17.95 10.65 17.5 13.05 15.7 13.55 15.15 9.45 16 7.6 16.35 6.85 18.05 5.25 19.45 3.95 19.6 2.6 19.1 2.95 18 3.65 17.05 4.3 16.35 4.55 17 3.3 17.4 2.6 18.1 1.35 18.65 0.8 18.9 0.6 19.5 0.4 20.1 0.15 20.3 -0.05 21.95 -1.4 21.15 -3.7 20.55 -5.6 18.85 -6.9 18.5 -4.6 17.3 -2.1 17.25 -3.6 17.25 -4.4 17.2 -5.8 17.5 -6.55 17.75 -7.1 18.6 -7.9 19.45 -8.7 19.7 -9.2 20.9 -11.4 20.85 -13.5 20.85 -16 19 -17.35 19.9 -16.05 19.4 -13.3 18.8 -10.45 17.2 -10.45 17 -14.25 17.3 -16.55 17.4 -17.4 18.55 -18.85 19.55 -20.15 19.5 -21.35 19.2 -20.75 18.6 -20.5 18 -20.25 17.35 -20.45 16.95 -21.45 17.15 -22.95 17.35 -24.6 18.15 -25.05 19.35 -24.15 19.65 -23.45 19.45 -24.9 19 -25.6 18.5 -26.45 17.3 -27.05 15.8 -27.7 15.15 -28.15 14 -28.9 13.85 -30.1 15.1 -30.5 16.4 -30 17.75 -29.55 18.5 -28.45 18.15 -29.45 16.95 -31.2 15.85 -32.9 15.5 -33.9 14.65 -36.2 13.6 -37.2 12.05 -38.65 10.35 -36.95 12 -37.1 12.8 -36.1 13.5 -35.15 13.25 -33.6 10.1 -34.6 8.85 -36.15 8.7 -36.35 8.15 -37.15 Z" _p="true"></path></g></g><g><path stroke="#000000" stroke-width="0.5" stroke-linejoin="round" stroke-linecap="round" fill="none" d="M11.8 -39 Q14.6 -39.4 15.75 -37.1 16.4 -35.75 17.2 -32.5 17.55 -31.45 18.5 -30.4 19.65 -29.1 20 -28.45 20.5 -27.4 20.45 -25.65 20.4 -24.7 20.25 -22.8 20.25 -22.15 20.2 -21.75 20.25 -21.45 20.55 -20.7 20.75 -20.2 21.55 -19.25 22.3 -18.35 22.5 -17.75 23.1 -16.05 22.5 -14.65 22.1 -13.85 21.1 -11.95 20.65 -10.55 21.25 -9.05 21.55 -8.15 22.4 -6.3 23 -4.35 22.9 -3.3 22.8 -1.95 21.75 -0.45 21.44 -0.02 21.2 0.35 21.05 0.57 20.92 0.77 20.39 1.62 20.3 2 20.1 2.7 20.5 4.75 21.4 9.3 20.15 11.75 19.45 13.1 18.8 13.95 18.65 14.4 19.75 16.3 21.3 18.85 20.65 20.55 20.1 21.95 18.45 23.2 18.24 23.34 18 23.52 18.42 24.10 18.65 25.25 18.9 26.4 18.65 27.85 18.5 28.55 17.95 30.4 16.9 33.6 17.95 36.05 17.35 35.15 16.15 34 14.2 32.2 13.7 31.25 12.45 28.75 14.05 25.95 14.62 24.96 15.12 24.3 14.03 22.11 14.2 19.9 14.34 17.46 16.02 14.65 16.03 14.62 16.05 14.6 14.45 12.95 13.85 11.9 13 10.3 13.3 8.5 13.55 7.2 14.8 5.6 15.00 5.35 15.17 5.12 16.29 3.73 16.55 3 16.77 2.39 16.75 1.4 16.69 -0.19 15.95 -2.8 14.95 -6.25 17.2 -8.5 15.5 -9.65 15.1 -12.4 14.75 -14.85 15.5 -17.05 15.95 -18.23 16.12 -18.8 16.21 -19.18 16.2 -19.3 15.85 -20.1 15.35 -21.5 14.55 -23.75 16.05 -26.7 13.5 -26.75 12.6 -28.45 11.79 -29.91 12.47 -32.17 12.50 -32.30 12.55 -32.45 9.5 -32.35 8.65 -34.1 8 -36.75 7.3 -38.5 M13.55 -34.5 Q13.45 -35.85 11.45 -36.45 9.1 -36.85 8.3 -37.1 M16.3 -26.85 Q17.55 -26.75 18.75 -25.1 19.95 -23.55 19.95 -22.25 19.95 -21.15 18.4 -20.2 16.70 -19.30 16.12 -18.8 M18.45 -28.25 Q18.5 -29.55 16.25 -31 14.05 -32.35 12.47 -32.17 M19 -17.3 Q20.3 -15.2 19.75 -12.65 19.25 -10.25 17.2 -8.5 M19.3 -6.85 Q19.2 -5.9 19.15 -4.25 19 -2.85 18.45 -1.85 18.15 -1.3 17.45 -0.35 16.9 0.55 16.75 1.4 M-14.5 -34.5 Q-14.35 -35.85 -12.35 -36.45 -11.25 -36.75 -9.25 -37.1 M-19.35 -28.25 Q-19.4 -29.6 -17.15 -31 -15 -32.35 -13.37 -32.17 -13.40 -32.30 -13.45 -32.45 -10.45 -32.35 -9.55 -34.1 -8.9 -36.75 -8.25 -38.5 M-12.75 -39 Q-15.55 -39.4 -16.7 -37.1 -17.35 -35.75 -18.1 -32.5 -18.45 -31.5 -19.45 -30.4 -20.55 -29.15 -20.9 -28.45 -21.4 -27.4 -21.35 -25.65 -21.3 -24.7 -21.2 -22.8 -21.2 -22.15 -21.15 -21.75 -21.2 -21.45 -21.5 -20.7 -21.7 -20.2 -22.5 -19.25 -23.25 -18.35 -23.45 -17.75 -24.05 -16.05 -23.4 -14.65 -23 -13.85 -22.05 -11.95 -21.6 -10.55 -22.15 -9.05 -22.5 -8.15 -23.3 -6.3 -23.9 -4.4 -23.85 -3.3 -23.75 -1.95 -22.7 -0.45 -22.39 -0.02 -22.15 0.32 -21.95 0.60 -21.8 0.85 -20.08 2.47 -16.12 5.12 -17.24 3.73 -17.5 3 -17.72 2.39 -17.7 1.4 -17.85 0.55 -18.4 -0.35 -19.1 -1.3 -19.4 -1.85 -19.95 -2.85 -20.1 -4.25 -20.15 -5.9 -20.25 -6.85 M-17.25 -26.85 Q-18.45 -26.75 -19.65 -25.1 -20.85 -23.55 -20.85 -22.25 -20.9 -21.15 -19.35 -20.2 -18.5 -19.65 -17 -18.75 -17.12 -19.17 -17.1 -19.3 -16.75 -20.1 -16.3 -21.5 -15.5 -23.8 -16.95 -26.7 -14.45 -26.75 -13.55 -28.45 -12.75 -29.90 -13.37 -32.17 M-19.9 -17.3 Q-21.2 -15.2 -20.7 -12.65 -20.2 -10.25 -18.15 -8.5 -16.45 -9.65 -16 -12.4 -15.65 -14.9 -16.45 -17.05 -16.85 -18.17 -17 -18.75 M-17.7 1.4 Q-17.64 -0.19 -16.9 -2.8 -15.9 -6.25 -18.15 -8.5 M-19 7.15 Q-20.05 8.7 -19.35 11.2 -18.65 13.6 -16.92 14.65 -16.93 14.62 -16.95 14.6 -15.35 13 -14.8 11.9 -13.95 10.3 -14.25 8.5 -14.45 7.2 -15.75 5.6 -15.94 5.36 -16.1 5.15 L-16.12 5.12 M-18.6 16.65 Q-19.45 18.6 -19.15 21 -18.98 22.21 -18.55 23.12 -18.07 24.13 -17.25 24.75 L-17.15 24.82 Q-16.86 25.02 -16.55 25.25 -16.25 24.75 -16.02 24.25 -14.97 22.09 -15.1 19.9 -15.29 17.47 -16.92 14.65 M-21.8 0.85 Q-21.28 1.64 -21.2 2 -21.05 2.7 -21.45 4.75 -22.35 9.3 -21.05 11.75 -20.35 13.1 -19.75 13.95 -19.6 14.4 -20.7 16.3 -22.2 18.95 -21.55 20.55 -21.05 21.95 -19.35 23.2 -19.16 23.34 -18.95 23.5 -18.27 24.01 -17.25 24.75 M-18.95 23.5 Q-19.36 24.09 -19.6 25.25 -19.95 26.95 -18.9 30.4 -17.85 33.6 -18.85 36.05 -18.3 35.15 -17.05 34 -15.1 32.2 -14.6 31.25 -13.35 28.85 -14.95 25.95 -15.62 24.78 -16.02 24.25 M18.05 7.15 Q19.1 8.7 18.4 11.2 17.75 13.6 16.02 14.65 M17.7 16.65 Q18.55 18.6 18.25 21 18.08 22.23 17.65 23.15 17.16 24.12 16.37 24.72 17.34 24.01 18 23.52 M16.37 24.72 Q16.31 24.77 16.25 24.82 15.96 25.02 15.65 25.25 15.35 24.77 15.12 24.3 M20.92 0.77 Q19.32 2.31 15.17 5.12" _p="true" stroke-opacity="1"></path></g></g></g>
</g></g><g transform="matrix(0.79,-0.069,0.069,0.79,177.22,276.02)" class="body"><g><g><g class="c1"><g class="tb" display="none"><g><g><path fill="#eaeae8" fill-opacity="1" stroke="none" d="M-1.3 -6.25 Q-3.9 -5.7 -5.4 -3.5 -6.45 -1.85 -6.4 0 -6.4 0.65 -6.3 1.3 -5.8 3.9 -3.55 5.35 -1.9 6.45 0 6.4 0.65 6.4 1.25 6.3 3.85 5.8 5.3 3.6 6.4 1.9 6.4 0 6.4 -0.65 6.25 -1.25 5.75 -3.85 3.55 -5.35 1.85 -6.4 0 -6.4 -0.65 -6.4 -1.3 -6.25 Z" _p="true"></path></g><path stroke="#000000" stroke-width="1" stroke-linejoin="miter" stroke-linecap="round" stroke-miterlimit="1" fill="none" d="M5.3 3.6 Q3.85 5.8 1.25 6.3 0.65 6.4 0 6.4 -1.9 6.45 -3.55 5.35 -5.8 3.9 -6.3 1.3 -6.4 0.65 -6.4 0 -6.45 -1.85 -5.4 -3.5 -3.9 -5.7 -1.3 -6.25 -0.65 -6.4 0 -6.4 1.85 -6.4 3.55 -5.35 5.75 -3.85 6.25 -1.25 6.4 -0.65 6.4 0 6.4 1.9 5.3 3.6 Z" _p="true" stroke-opacity="1"></path></g></g><g class="ta" transform="matrix(1,0,0,1,0,34.45)"><g><g><path fill="#eaeae8" fill-opacity="1" stroke="none" d="M-0.7 -3.35 Q-2.1 -3.05 -2.85 -1.85 -3.45 -1 -3.45 0 -3.45 0.35 -3.35 0.7 -3.05 2.1 -1.9 2.85 -1 3.45 0 3.45 0.35 3.45 0.7 3.35 2.05 3.1 2.85 1.9 3.45 1 3.4 0 3.4 -0.35 3.35 -0.65 3.05 -2.05 1.9 -2.85 1 -3.45 0 -3.4 -0.35 -3.4 -0.7 -3.35 Z" _p="true"></path></g><path stroke="#000000" stroke-width="1" stroke-linejoin="miter" stroke-linecap="round" stroke-miterlimit="1" fill="none" d="M2.85 1.9 Q2.05 3.1 0.7 3.35 0.35 3.45 0 3.45 -1 3.45 -1.9 2.85 -3.05 2.1 -3.35 0.7 -3.45 0.35 -3.45 0 -3.45 -1 -2.85 -1.85 -2.1 -3.05 -0.7 -3.35 -0.35 -3.4 0 -3.4 1 -3.45 1.9 -2.85 3.05 -2.05 3.35 -0.65 3.4 -0.35 3.4 0 3.45 1 2.85 1.9 Z" _p="true" stroke-opacity="1"></path></g></g><g><g><path fill="#eaeae8" fill-opacity="1" stroke="none" d="M-4.9 12 Q-4.3 15.05 -3.7 24.25 -3.45 27.65 -3.5 31.3 -3.5 34.4 -3.45 34.65 L3.4 34.9 Q3.75 33.5 4.75 18.6 4.96 15.30 5.65 9.4 6.5 2.1 6.4 -0.15 L-6.4 -0.15 Q-6.35 4.5 -4.9 12 Z" _p="true"></path></g><path stroke="#000000" stroke-width="1" stroke-linejoin="miter" stroke-linecap="square" stroke-miterlimit="3" fill="none" d="M-3.45 34.65 Q-3.5 34.4 -3.5 31.3 -3.45 27.65 -3.7 24.25 -4.3 15.05 -4.9 12 -6.35 4.5 -6.4 -0.15 M6.4 -0.15 Q6.5 2.1 5.65 9.42 4.96 15.30 4.75 18.6 3.75 33.5 3.4 34.9" _p="true" stroke-opacity="1"></path></g></g></g>
</g></g><g transform="matrix(0.72,-0.0376,0.038,0.72,179.6,303.18)" class="body"><g><g><g class="c1"><g class="tb" display="none"><g><g><path fill="#eaeae8" fill-opacity="1" stroke="none" d="M-0.65 -3.2 Q-2 -2.9 -2.75 -1.8 -3.3 -0.95 -3.3 0 -3.3 0.3 -3.2 0.65 -2.95 2 -1.8 2.75 -0.95 3.3 0 3.3 0.3 3.3 0.65 3.2 2 2.95 2.7 1.8 3.3 0.95 3.3 0 3.3 -0.3 3.2 -0.65 2.95 -2 1.8 -2.75 0.95 -3.3 0 -3.3 -0.3 -3.3 -0.65 -3.2 Z" _p="true"></path></g><path stroke="#000000" stroke-width="1" stroke-linejoin="miter" stroke-linecap="round" stroke-miterlimit="1" fill="none" d="M2.7 1.8 Q2 2.95 0.65 3.2 0.3 3.3 0 3.3 -0.95 3.3 -1.8 2.75 -2.95 2 -3.2 0.65 -3.3 0.3 -3.3 0 -3.3 -0.95 -2.75 -1.8 -2 -2.9 -0.65 -3.2 -0.3 -3.3 0 -3.3 0.95 -3.3 1.8 -2.75 2.95 -2 3.2 -0.65 3.3 -0.3 3.3 0 3.3 0.95 2.7 1.8 Z" _p="true" stroke-opacity="1"></path></g></g><g><g><path fill="#eaeae8" fill-opacity="1" stroke="none" d="M0.95 24.2 Q2.25 23.1 5.6 17.3 L5.2 14.85 Q5.1 12.95 3 1.25 L-3.15 0.6 -3.4 4 Q-3.65 6.95 -2.45 10.6 -1.85 12.4 -1.2 13.6 L-0.4 14.85 Q-0.3 15.55 -1.85 19.05 L-3.45 20.15 Q-2.9 20.25 -5.15 20.05 -6.6 19.9 -7.05 20.7 -7.3 21.1 -7.25 21.55 L-4.95 22.75 -7.8 23.4 Q-8.4 24.35 -7.6 25.55 -0.4 25.35 0.95 24.2 Z" _p="true"></path></g></g><g><path stroke="#000000" stroke-width="0.75" stroke-linejoin="round" stroke-linecap="round" fill="none" d="M2.9 1.1 Q5.1 12.35 5.2 14.85 L5.6 17.3 3.75 20.3 Q1.7 23.45 0.85 24.15 -0.1 24.95 -2.8 25.3 L-5.8 25.55 Q-7.25 25.7 -7.65 25.5 -8.1 25.3 -8.15 24.4 -8.2 23.45 -6.95 23.1 -5.45 22.85 -4.95 22.75 -5.3 22.6 -6.4 22.25 -7.3 21.9 -7.35 21.35 -7.45 20.6 -6.6 20.2 -5.95 19.9 -5.25 19.95 -3.8 20.1 -3.5 20.05 L-1.65 18.75 Q-0.35 15.6 -0.5 14.85 L-1.8 12.85" _p="true" stroke-opacity="1"></path></g><g><path stroke="#8c8c8b" stroke-opacity="1" stroke-width="0.35" stroke-linejoin="round" stroke-linecap="round" fill="none" d="M3.3 18.15 L-0.45 22.35 Q-0.75 22.65 -2.5 22.65 -4.65 22.7 -4.95 22.75" _p="true"></path></g></g></g>
</g></g><g transform="matrix(0.72,-0.0376,0.038,0.72,179.6,303.18)" class="body"><g><g><g class="c1"><g><g><path fill="#eaeae8" fill-opacity="1" stroke="none" d="M-0.4 10.7 L-3.2 1.5 Q-5.3 6.45 -5.3 8.3 -5.3 12.35 -5.4 12.9 -5.5 13.5 -5.9 15.85 -6.2 18 -5.65 18.45 -4.9 19.1 -4 18.3 -2.95 17.4 -2.8 14.95 L-2.1 12.9 -0.4 10.7 Z" _p="true"></path></g></g><g><path stroke="#000000" stroke-width="0.75" stroke-linejoin="round" stroke-linecap="round" fill="none" d="M-3.15 0.75 Q-5.3 6.45 -5.3 8.3 -5.3 12.35 -5.4 12.9 -5.5 13.5 -6.2 16 -6.6 18.3 -5.65 18.65 -4.65 19 -3.9 18.3 -2.95 17.4 -2.8 14.95 -1.9 12.3 -0.5 10.75" _p="true" stroke-opacity="1"></path></g></g></g>
</g></g><g transform="matrix(-0.7884,-0.069,-0.069,0.79,124.82,276.84)" class="body"><g><g><g class="c1"><g class="tb" display="none"><g><g><path fill="#eaeae8" fill-opacity="1" stroke="none" d="M-1.3 -6.25 Q-3.9 -5.7 -5.4 -3.5 -6.45 -1.85 -6.4 0 -6.4 0.65 -6.3 1.3 -5.8 3.9 -3.55 5.35 -1.9 6.45 0 6.4 0.65 6.4 1.25 6.3 3.85 5.8 5.3 3.6 6.4 1.9 6.4 0 6.4 -0.65 6.25 -1.25 5.75 -3.85 3.55 -5.35 1.85 -6.4 0 -6.4 -0.65 -6.4 -1.3 -6.25 Z" _p="true"></path></g><path stroke="#000000" stroke-width="1" stroke-linejoin="miter" stroke-linecap="round" stroke-miterlimit="1" fill="none" d="M5.3 3.6 Q3.85 5.8 1.25 6.3 0.65 6.4 0 6.4 -1.9 6.45 -3.55 5.35 -5.8 3.9 -6.3 1.3 -6.4 0.65 -6.4 0 -6.45 -1.85 -5.4 -3.5 -3.9 -5.7 -1.3 -6.25 -0.65 -6.4 0 -6.4 1.85 -6.4 3.55 -5.35 5.75 -3.85 6.25 -1.25 6.4 -0.65 6.4 0 6.4 1.9 5.3 3.6 Z" _p="true" stroke-opacity="1"></path></g></g><g class="ta" transform="matrix(1,0,0,1,0,34.45)"><g><g><path fill="#eaeae8" fill-opacity="1" stroke="none" d="M-0.7 -3.35 Q-2.1 -3.05 -2.85 -1.85 -3.45 -1 -3.45 0 -3.45 0.35 -3.35 0.7 -3.05 2.1 -1.9 2.85 -1 3.45 0 3.45 0.35 3.45 0.7 3.35 2.05 3.1 2.85 1.9 3.45 1 3.4 0 3.4 -0.35 3.35 -0.65 3.05 -2.05 1.9 -2.85 1 -3.45 0 -3.4 -0.35 -3.4 -0.7 -3.35 Z" _p="true"></path></g><path stroke="#000000" stroke-width="1" stroke-linejoin="miter" stroke-linecap="round" stroke-miterlimit="1" fill="none" d="M2.85 1.9 Q2.05 3.1 0.7 3.35 0.35 3.45 0 3.45 -1 3.45 -1.9 2.85 -3.05 2.1 -3.35 0.7 -3.45 0.35 -3.45 0 -3.45 -1 -2.85 -1.85 -2.1 -3.05 -0.7 -3.35 -0.35 -3.4 0 -3.4 1 -3.45 1.9 -2.85 3.05 -2.05 3.35 -0.65 3.4 -0.35 3.4 0 3.45 1 2.85 1.9 Z" _p="true" stroke-opacity="1"></path></g></g><g><g><path fill="#eaeae8" fill-opacity="1" stroke="none" d="M-4.9 12 Q-4.3 15.05 -3.7 24.25 -3.45 27.65 -3.5 31.3 -3.5 34.4 -3.45 34.65 L3.4 34.9 Q3.75 33.5 4.75 18.6 4.96 15.30 5.65 9.4 6.5 2.1 6.4 -0.15 L-6.4 -0.15 Q-6.35 4.5 -4.9 12 Z" _p="true"></path></g><path stroke="#000000" stroke-width="1" stroke-linejoin="miter" stroke-linecap="square" stroke-miterlimit="3" fill="none" d="M-3.45 34.65 Q-3.5 34.4 -3.5 31.3 -3.45 27.65 -3.7 24.25 -4.3 15.05 -4.9 12 -6.35 4.5 -6.4 -0.15 M6.4 -0.15 Q6.5 2.1 5.65 9.42 4.96 15.30 4.75 18.6 3.75 33.5 3.4 34.9" _p="true" stroke-opacity="1"></path></g></g></g>
</g></g><g transform="matrix(-0.7174,0.038,0.038,0.72,122.44,304)" class="body"><g><g><g class="c1"><g class="tb" display="none"><g><g><path fill="#eaeae8" fill-opacity="1" stroke="none" d="M-0.65 -3.2 Q-2 -2.9 -2.75 -1.8 -3.3 -0.95 -3.3 0 -3.3 0.3 -3.2 0.65 -2.95 2 -1.8 2.75 -0.95 3.3 0 3.3 0.3 3.3 0.65 3.2 2 2.95 2.7 1.8 3.3 0.95 3.3 0 3.3 -0.3 3.2 -0.65 2.95 -2 1.8 -2.75 0.95 -3.3 0 -3.3 -0.3 -3.3 -0.65 -3.2 Z" _p="true"></path></g><path stroke="#000000" stroke-width="1" stroke-linejoin="miter" stroke-linecap="round" stroke-miterlimit="1" fill="none" d="M2.7 1.8 Q2 2.95 0.65 3.2 0.3 3.3 0 3.3 -0.95 3.3 -1.8 2.75 -2.95 2 -3.2 0.65 -3.3 0.3 -3.3 0 -3.3 -0.95 -2.75 -1.8 -2 -2.9 -0.65 -3.2 -0.3 -3.3 0 -3.3 0.95 -3.3 1.8 -2.75 2.95 -2 3.2 -0.65 3.3 -0.3 3.3 0 3.3 0.95 2.7 1.8 Z" _p="true" stroke-opacity="1"></path></g></g><g transform="matrix(-1,0,0,1,0.05,0)"><g><path fill="#eaeae8" fill-opacity="1" stroke="none" d="M2.05 -0.35 Q1.45 -0.9 0.85 -1 -2 -1.4 -3.9 0.4 -5.15 4.95 -5.55 5.7 -6 6.45 -8.65 12.7 L-8.8 13.65 Q-8.95 14.6 -8.85 14.85 -8.7 15.45 -8.3 18.1 -7.85 21.1 -7.9 21.75 -7.95 22.7 -4.55 26.4 L-2.15 27.85 Q-1.75 27.85 -1.4 27.6 -0.75 27.15 -1.15 26.15 L-1.6 25.4 1.65 26.65 Q2.05 26.65 2.35 26.45 3 26.1 2.45 25.3 1.9 24.5 1.1 23.85 L0.35 23.35 4 24.2 Q4.3 23.85 4.4 23.4 4.6 22.5 3.55 21.85 L2.3 21.2 Q3.05 21.45 3.35 21.3 4.1 20.8 2.6 19.45 L0.85 18.15 Q0.8 16.45 0.95 15.55 L1.45 12.55 Q3.45 9.3 3.55 7.9 3.75 5.5 3.75 1.4 L2.95 0.7 Q2.35 0 2.05 -0.35 Z" _p="true"></path></g></g><g transform="matrix(-1,0,0,1,0.05,0)"><path stroke="#8c8c8b" stroke-opacity="1" stroke-width="0.35" stroke-linejoin="round" stroke-linecap="round" fill="none" d="M4.35 16.9 L4.7 21.4 Q4.1 22.15 3.44 23 2.15 24.7 1.90 25.2" transform="matrix(-1,0,0,1,0.05,0)" _p="true"></path></g><g transform="matrix(-1,0,0,1,0.05,0)"><path stroke="#000000" stroke-width="0.75" stroke-linejoin="round" stroke-linecap="round" fill="none" d="M3.25 -0.6 L5.6 5.7 Q6.05 6.45 8.70 12.7 L8.85 13.65 Q9 14.6 8.9 14.85 8.75 15.45 8.35 18.1 7.89 21.1 7.95 21.75 8 22.7 4.6 26.4 L2.19 27.85 Q1.8 27.85 1.45 27.6 0.8 27.15 1.2 26.15 L1.65 25.4 -1.59 26.65 Q-1.99 26.65 -2.30 26.45 -2.95 26.1 -2.40 25.3 -1.84 24.5 -1.05 23.85 L-0.3 23.35 0.70 22.65 M-1.37 20.82 L-0.7 20.4 M-1.95 21.1 L-1.37 20.82 M-1.95 21.1 Q-2.95 21.5 -3.30 21.3 -4.05 20.8 -2.55 19.45 L-0.79 18.15 Q-0.75 16.45 -0.89 15.55 L-1.4 12.55 Q-3.40 9.3 -3.5 7.9 -3.6 6.5 -3.6 4.2 -3.6 1.3 -3.25 0.6 M-0.3 23.35 L-3.95 24.2 Q-4.25 23.85 -4.35 23.4 -4.55 22.5 -3.5 21.85 L-1.95 21.1" transform="matrix(-1,0,0,1,0.05,0)" _p="true" stroke-opacity="1"></path></g></g></g>
</g></g><g transform="matrix(-0.7174,0.038,0.038,0.72,122.44,304)" class="body"><g><g><g class="c1"><g transform="matrix(-1,0,0,1,-0.1,0)"><g><path fill="#eaeae8" fill-opacity="1" stroke="none" d="M2.5 6.9 Q1.55 6.1 0 5.9 -1.45 5.75 -2.75 6.6 -4.05 7.45 -4.6 8.8 -5.15 10.05 -4.45 11.3 -4.1 12 -3.15 13.5 -2.7 14.55 -2.7 16.3 -2.7 17.3 -2.75 19.2 -2.6 21.6 -2.05 22.2 -1.35 22.95 -0.45 22.35 0.3 21.8 0.7 20.8 1.1 19.75 0.95 16.55 0.85 13.65 1.5 12.55 2.65 10.65 3 9.75 3.6 7.9 2.5 6.9 Z" _p="true"></path></g></g><g transform="matrix(-1,0,0,1,-0.1,0)"><path stroke="#000000" stroke-width="0.75" stroke-linejoin="round" stroke-linecap="round" fill="none" d="M-1 18.15 Q-0.95 16.45 -1.1 15.55 L-1.6 12.55 Q-3.5 9.3 -3.55 7.9" transform="matrix(-1,0,0,1,-0.1,0)" _p="true" stroke-opacity="1"></path></g><g transform="matrix(-1,0,0,1,-0.1,0)"><path stroke="#8c8c8b" stroke-opacity="1" stroke-width="0.35" stroke-linejoin="round" stroke-linecap="round" fill="none" d="M3.99 12 Q2.69 13.6 2.69 13.95 L2.69 19.6 Q2.69 20.35 2.5 21.1 2.1 22.45 1.25 22.75 0.8 22.8 0.35 22.5 -0.6 21.85 -0.75 19.9 L-1 18.15" transform="matrix(-1,0,0,1,-0.1,0)" _p="true"></path></g></g></g>
</g></g></g></svg>