<?xml version="1.0" encoding="UTF-8" standalone="no"?>
<svg
   xmlns:dc="http://purl.org/dc/elements/1.1/"
   xmlns:cc="http://creativecommons.org/ns#"
   xmlns:rdf="http://www.w3.org/1999/02/22-rdf-syntax-ns#"
   xmlns:svg="http://www.w3.org/2000/svg"
   xmlns="http://www.w3.org/2000/svg"
   xmlns:sodipodi="http://sodipodi.sourceforge.net/DTD/sodipodi-0.dtd"
   xmlns:inkscape="http://www.inkscape.org/namespaces/inkscape"
   width="73.16mm"
   height="79.72mm"
   version="1.1"
   viewBox="0 0 259.22679 282.47336"
   id="svg12"
   sodipodi:docname="gravestone-2026737.svg"
   inkscape:version="0.92.5 (2060ec1f9f, 2020-04-08)">
  <metadata
     id="metadata18">
    <rdf:RDF>
      <cc:Work
         rdf:about="">
        <dc:format>image/svg+xml</dc:format>
        <dc:type
           rdf:resource="http://purl.org/dc/dcmitype/StillImage" />
      </cc:Work>
    </rdf:RDF>
  </metadata>
  <defs
     id="defs16" />
  <sodipodi:namedview
     pagecolor="#ffffff"
     bordercolor="#666666"
     borderopacity="1"
     objecttolerance="10"
     gridtolerance="10"
     guidetolerance="10"
     inkscape:pageopacity="0"
     inkscape:pageshadow="2"
     inkscape:window-width="817"
     inkscape:window-height="480"
     id="namedview14"
     showgrid="false"
     inkscape:zoom="0.78326224"
     inkscape:cx="138.25513"
     inkscape:cy="150.65197"
     inkscape:window-x="0"
     inkscape:window-y="0"
     inkscape:window-maximized="0"
     inkscape:current-layer="svg12" />
  <g
     transform="matrix(-1,0,0,1,376.24674,-495.42)"
     id="g10">
    <path
       d="m 117.64,775.41 c 1.8651,-32.328 1.2434,-30.463 1.2434,-30.463 l 4.3518,-14.921 v -24.868 l 8.082,-44.14 4.9735,-29.22 0.6217,-32.328 14.921,-88.902 29.841,-9.3254 34.815,-4.3518 39.167,2.4868 57.817,11.812 31.706,24.246 -21.138,116.26 -9.9471,57.817 -3.1085,31.085 -4.9735,34.815 z"
       id="path2"
       inkscape:connector-curvature="0"
       style="fill:#4d6b6b;fill-rule:evenodd;stroke:#000000;stroke-width:1px" />
    <path
       d="m 337.1,774.16 9.9471,-57.196 5.5952,-32.95 v -19.272 l 6.2169,-18.029 14.299,-87.037 3.1085,-18.029 -15.542,-15.542 -38.545,-16.786 -0.6217,6.2169 23.624,20.516 -18.029,101.34 -15.542,90.146 -3.7302,49.114 z"
       id="path4"
       inkscape:connector-curvature="0"
       style="fill:#354a4a;fill-rule:evenodd;stroke:#000000;stroke-width:1px" />
    <path
       d="m 117.02,777.89 223.19,-1.2434 -5.5952,-9.9471 -32.95,4.9736 -3.1085,-11.812 -8.082,10.569 -10.569,-9.9471 -11.812,6.8386 -8.7037,-6.8386 -5.5952,8.7037 -8.7037,-10.569 -9.3254,5.5952 -5.5952,-4.3518 -17.407,8.7037 h 0.62169 l -3.1085,-8.7037 -4.9735,6.2169 -5.5952,-3.1085 -8.082,6.8386 -3.1085,-10.569 -6.2169,13.056 -1.8651,-14.921 c 0,0 -7.4603,23.003 -8.7037,10.569 -1.2434,-12.434 -1.8651,-12.434 -1.8651,-12.434 l -8.082,12.434 -2.4868,-14.921 -4.9736,14.921 -3.1085,-8.7037 -7.4603,1.8651 -8.7037,-10.569 -14.299,5.5952 -3.7302,3.7302 z"
       id="path6"
       inkscape:connector-curvature="0"
       style="fill:#005e00;fill-rule:evenodd" />
    <path
       d="m 225.52,495.42 c -9.0887,-0.0352 -22.035,0.28307 -26.482,0.83007 -20.769,2.5546 -29.679,4.8082 -39.441,9.9746 l -7.875,4.166 -1.7949,7.5 c -0.9865,4.125 -2.077,9.2921 -2.4238,11.48 -0.3467,2.1884 -0.81366,4.2759 -1.0391,4.6406 -0.2254,0.3648 -0.62974,2.3996 -0.89844,4.5215 -0.2688,2.1218 -0.71293,4.9824 -0.98633,6.3574 -0.2734,1.375 -0.71401,4.525 -0.97851,7 -0.2644,2.475 -0.81035,7.425 -1.2148,11 -0.40445,3.575 -0.76197,7.5125 -0.79297,8.75 -0.0307,1.2375 -0.32851,2.25 -0.66211,2.25 -0.3335,0 -0.61972,1.2375 -0.63671,2.75 -0.0349,3.0291 -0.61584,6.6747 -1.5527,9.75 -0.3352,1.1 -0.85003,4.1732 -1.1445,6.8281 -0.29447,2.6549 -0.76036,5.1901 -1.0352,5.6348 -0.3962,0.641 -1.3821,17.294 -1.9414,32.787 -0.0447,1.2375 -0.36323,2.25 -0.70703,2.25 -1.3433,0 -1.8511,6.326 -0.62891,7.8359 0.9944,1.233 0.9951,1.3948 0,0.79687 -0.6875,-0.413 -1.25,-0.31004 -1.25,0.22656 0,0.5367 0.5625,1.2011 1.25,1.4785 0.7998,0.3228 0.66646,0.53298 -0.36914,0.58398 -1.2751,0.0622 -1.7487,1.6162 -2.2324,7.3281 -0.3378,3.9875 -1.0954,9.95 -1.6856,13.25 -0.5902,3.3 -1.2731,8.25 -1.5176,11 -0.2445,2.75 -0.89486,7.025 -1.4434,9.5 -0.54854,2.475 -1.1747,6.6035 -1.3926,9.1738 -0.2179,2.5703 -0.66488,5.1073 -0.99218,5.6367 -0.6157,0.99622 -2.0161,18.458 -2.0801,25.939 -0.0201,2.3375 -0.48711,4.2556 -1.0371,4.2656 -0.55,0.008 -0.325,0.45118 0.5,0.98438 1,0.6462 1.0833,0.97633 0.25,0.98633 -0.6875,0.008 -1.25,0.82445 -1.25,1.8144 0,0.98995 -0.47012,2.2709 -1.0449,2.8457 -0.93355,0.93355 -1.5076,5.8654 -1.3106,8.5664 0.14645,0.49484 0.29641,1.0739 0.44727,1.7285 0.0466,0.0345 0.0947,0.0586 0.14843,0.0586 0.483,0 0.59967,0.45 0.25977,1 -0.0603,0.0975 -0.0841,0.18612 -0.11133,0.27539 0.0341,0.17136 0.0692,0.39969 0.10352,0.58008 0.10323,0.0896 0.25195,0.14453 0.44922,0.14453 0.5824,0 1.0586,-1.0868 1.0586,-2.416 0,-1.3291 0.45436,-2.5687 1.0098,-2.7539 1.8988,-0.6329 3.8205,-15.274 3.9277,-29.93 0.0346,-4.7304 0.50783,-9.9054 1.0527,-11.5 1.0159,-2.9728 3.7699,-22.05 4.4434,-30.781 0.2072,-2.6854 0.75816,-5.1604 1.2227,-5.5 1.1474,-0.8388 1.421,-2.3837 1.8809,-10.582 0.217,-3.8697 0.44672,-7.0371 0.51172,-7.0371 0.0646,0 0.25779,-0.9 0.42968,-2 0.1719,-1.1 1.0078,-5.825 1.8555,-10.5 0.9043,-4.987 1.4454,-12.84 1.3106,-19 -0.1263,-5.775 0.0838,-12.3 0.4668,-14.5 0.383,-2.2 0.98178,-5.8 1.3301,-8 0.9595,-6.0608 1.1408,-6.8668 1.9277,-8.5938 0.3998,-0.8774 0.50894,-2.7899 0.24414,-4.25 -0.2647,-1.4601 -0.0536,-2.6562 0.46875,-2.6562 0.5223,0 0.85478,-1.2492 0.73828,-2.7774 -0.1164,-1.5283 0.12777,-3.3283 0.54297,-4 0.4317,-0.6986 0.24992,-1.2226 -0.42578,-1.2226 -0.8316,0 -0.77655,-0.48749 0.18945,-1.6504 0.7548,-0.9087 1.4625,-3.4962 1.5723,-5.75 0.5615,-11.52 3.7131,-33.42 5.8945,-40.963 0.7737,-2.6757 1.4062,-5.7434 1.4062,-6.8164 0,-2.8518 1.8398,-5.8203 3.6074,-5.8203 0.8452,0 3.417,-1.0853 5.7148,-2.4121 5.6595,-3.2678 19.168,-7.0189 29.178,-8.1016 0.55,-0.0595 3.7,-0.46921 7,-0.91211 5.9906,-0.804 19.55,-0.86311 37.5,-0.16211 11.876,0.4639 30.863,2.9909 46,6.123 1.375,0.2845 3.625,0.92277 5,1.418 1.375,0.49523 4.975,1.4333 8,2.084 13.978,3.007 31.969,11.39 42.07,19.604 l 5.9785,4.8594 -0.56641,5 c -0.3118,2.75 -0.80576,7.25 -1.0976,10 -0.2919,2.75 -1.1293,7.25 -1.8613,10 -0.732,2.75 -1.6918,8.15 -2.1328,12 -0.441,3.85 -0.85587,7.45 -0.92187,8 -0.0658,0.55 -0.89329,3.475 -1.8379,6.5 -1.8194,5.8264 -2.2317,8.403 -3.1016,19.33 -0.299,3.7564 -0.93085,7.5814 -1.4024,8.5 -0.4661,0.9185 -0.68004,2.1565 -0.46484,2.75 0.2152,0.5935 -1.4203,10.174 -3.6348,21.289 -2.2145,11.115 -4.0273,22.584 -4.0273,25.488 0,2.9039 -0.71227,7.6821 -1.584,10.617 -1.5893,5.3517 -1.9015,6.8606 -4.8594,23.525 -1.7894,10.081 -2.4288,13.848 -2.9688,17.5 -0.2033,1.375 -1.0264,6.55 -1.8301,11.5 -0.8036,4.95 -1.3728,13.5 -1.2637,19 0.1616,8.1491 -0.26096,11.538 -2.2852,18.312 -1.9075,6.3836 -2.2102,8.5867 -1.3047,9.4922 0.9056,0.9056 1.3718,0.86753 2.0117,-0.16797 0.64171,-1.0382 1.008,-1.0691 1.5879,-0.13086 0.4205,0.6804 0.1444,1.6044 -0.625,2.0918 -0.758,0.4801 -0.90563,0.87868 -0.32813,0.88868 1.7664,0.0257 3.4492,-2.2612 3.4492,-4.6856 0,-3.0712 1.623,-2.9373 2.4102,0.19922 0.6795,2.7074 2.5898,3.4449 2.5898,1 0,-0.825 0.43605,-1.5 0.96875,-1.5 0.5327,0 0.70757,0.68052 0.38867,1.5117 -0.415,1.0815 -0.12175,1.3369 1.0312,0.89453 0.8862,-0.3401 1.6113,-1.2173 1.6113,-1.9492 0,-0.732 0.86974,-1.2656 1.9316,-1.1856 1.06186,0.08 1.7088,0.5017 1.4394,0.9375 -0.9782,1.5827 0.74928,2.9366 2.2051,1.7285 1.5626,-1.2969 4.4238,-0.5904 4.4238,1.0918 0,0.59978 -0.44458,0.81451 -0.98828,0.47851 -0.5434,-0.336 -0.75568,-0.002 -0.47071,0.74023 0.414,1.0788 -1.4475,1.3398 -9.2617,1.2988 -5.3787,-0.0279 -10.971,0.24392 -12.428,0.60352 -1.5242,0.3762 -3.1785,0.16435 -3.8965,-0.49805 -0.9636,-0.8889 -1.0635,-0.82882 -0.4375,0.26758 0.6295,1.1025 0.38258,1.2449 -1.1035,0.63672 -3.6627,-1.4991 -5.4141,-1.7839 -5.4141,-0.88086 0,0.4998 -1.3552,0.89114 -3.0117,0.86914 -1.7723,-0.0236 -2.837,-0.49338 -2.5879,-1.1426 0.2937,-0.7654 -2.7651,-1.0664 -9.9883,-0.98242 -6.4771,0.0751 -10.418,-0.26619 -10.428,-0.90039 -0.009,-0.588 -0.3263,-0.53591 -0.75,0.12109 -0.5376,0.8337 -1.0577,0.79059 -1.9414,-0.16211 -0.9488,-1.0228 -0.88855,-1.5682 0.28125,-2.5391 1.2117,-1.0056 1.7461,-0.88179 2.875,0.66211 1.3116,1.7938 1.4239,1.7338 2.0527,-1.1016 1.2727,-5.7391 1.4916,-6.1238 2.5371,-4.4707 0.512,0.80957 0.93531,2.4366 0.94531,3.6152 0.016,2.2414 2.5409,3.9326 3.5156,2.3555 0.3102,-0.502 1.2976,-0.63081 2.1934,-0.28711 1.3343,0.5121 1.4932,0.18853 0.88476,-1.793 -0.8722,-2.8408 -1.3781,-5.6689 -1.4941,-8.3359 -0.1259,-2.8973 -1.31,-1.0878 -2.0644,3.1562 l -0.66797,3.7598 -1.334,-4.25 c -1.195,-3.807 -3.0176,-5.7893 -3.0176,-3.2832 0,1.5906 -6.0983,8.0332 -7.6035,8.0332 -1.6685,0 -1.8289,-3.3207 -0.29882,-6.1797 0.866,-1.6183 0.8133,-1.9565 -0.25,-1.6055 -0.7409,0.2445 -1.9026,1.5336 -2.582,2.8652 -0.7802,1.5293 -1.2851,1.8674 -1.3691,0.91992 -0.179,-2.0167 -0.14746,-2.2365 0.61524,-4.1953 0.5364,-1.3783 0.12772,-1.6546 -2.1758,-1.4707 -2.6743,0.2135 -2.8357,0.49185 -2.8457,4.873 -0.005,2.5558 -0.3165,4.9533 -0.6914,5.3281 -1.0476,1.0476 -3.909,-6.6126 -3.248,-8.6953 0.4408,-1.3888 0.0673,-1.8398 -1.5273,-1.8398 -1.1611,0 -2.0382,0.5625 -1.9492,1.25 0.535,4.1196 -0.20222,7.75 -1.5742,7.75 -0.825,0 -1.5,-0.675 -1.5,-1.5 0,-0.825 -0.35486,-1.5 -0.78906,-1.5 -0.4342,0 -0.772,-1.1936 -0.75,-2.6524 0.0217,-1.4588 -0.52344,-2.845 -1.2109,-3.082 -0.8345,-0.2877 -1.2556,0.67715 -1.2656,2.9024 -0.0261,5.6678 -1.6523,6.777 -2.9375,2.0039 -0.7123,-2.645 -1.697,-4.1719 -2.6914,-4.1719 -0.982,0 -1.3538,0.56087 -0.99414,1.498 0.3159,0.82331 -0.50246,3.6209 -1.8184,6.2168 -1.31594,2.5959 -2.1744,5.0712 -1.9082,5.502 0.26629,0.43079 -0.21868,0.7832 -1.0762,0.7832 -0.8574,0 -1.5937,0.5625 -1.6367,1.25 -0.0627,0.9896 -0.18343,0.98853 -0.58593,-0.01 -0.2785,-0.6908 -0.86559,-1.0331 -1.3047,-0.76172 -0.4392,0.2714 -0.56374,-2.4261 -0.27734,-5.9941 0.3036,-3.783 0.12456,-6.4863 -0.42774,-6.4863 -0.5208,10e-6 -2.3762,1.3977 -4.125,3.1074 -2.6457,2.5867 -3.2844,2.8383 -3.7988,1.498 -0.3402,-0.886 -0.35169,-2.8482 -0.0254,-4.3594 0.528,-2.4447 0.45868,-2.5414 -0.64062,-0.87891 -0.6796,1.0277 -1.9904,2.8277 -2.9121,4 -1.6551,2.1053 -1.683,2.1083 -2.3398,0.13281 -1.2066,-3.629 -2.81,-6.5 -3.6289,-6.5 -0.4435,0 -0.36648,1.1537 0.16992,2.5645 1.9148,5.0365 0.33947,13.436 -2.5195,13.436 -0.6451,0 -1.1719,0.69518 -1.1719,1.5469 l 0.004,0.004 c 0,1.3674 3.323,1.5181 28.471,1.291 21.346,-0.1928 28.785,-0.57258 29.734,-1.5215 1.0209,-1.0209 1.3756,-0.98217 1.832,0.20703 0.4854,1.2651 6.2468,1.4746 40.598,1.4746 26.021,0 40.031,-0.35 40.031,-1 0,-0.55 -0.48297,-1 -1.0723,-1 -0.5892,0 -1.7788,-0.70852 -2.6445,-1.5742 -1.2543,-1.2543 -1.7372,-1.3094 -2.375,-0.27734 -2.5974,4.2026 -3.2376,-7.7353 -0.70508,-13.148 2.229,-4.7644 2.6023,-6.4029 3.291,-14.467 0.3274,-3.8325 1.0573,-9.0075 1.6211,-11.5 0.5638,-2.4926 1.2127,-6.7291 1.4434,-9.4141 0.2569,-2.9898 1.0589,-5.3498 2.0684,-6.0879 0.27962,-0.20446 0.51682,-0.46084 0.71094,-0.73633 l 0.37695,-2.1602 c -0.15738,-0.86674 0.0435,-2.4034 0.5,-3.6348 0.10935,-0.29493 0.22699,-0.73238 0.34375,-1.2031 l 0.90625,-5.1914 c 0.0656,-0.52899 0.13458,-1.0629 0.18164,-1.5723 0.2779,-3.0074 0.79198,-5.9327 1.1426,-6.5 0.061,-0.099 0.10731,-0.26711 0.15625,-0.42578 l 0.21875,-1.248 c 0.0511,-0.63074 0.0549,-1.3375 -0.0156,-2.0098 -0.153,-1.4583 0.24808,-2.9767 0.89258,-3.375 0.032,-0.0198 0.0426,-0.0354 0.0723,-0.0547 l 0.20508,-1.1797 c -0.0934,-0.0735 -0.16361,-0.14345 -0.29493,-0.22461 -0.40921,-0.25291 -0.17818,-0.44377 0.42969,-0.54687 l 0.47656,-2.7324 c -0.26525,-0.61829 -0.56576,-1.4668 -0.875,-2.5449 -0.6111,-2.1307 -0.52953,-3.1986 0.26368,-3.4629 0.63069,-0.2103 1.044,-1.6112 0.91992,-3.1113 -0.1434,-1.7321 0.16731,-2.4842 0.84961,-2.0625 0.31842,0.19679 0.5155,0.69714 0.58789,1.3144 l 0.83398,-4.6543 c -1.5244,-0.14349 -2.0828,-1.1054 -2.0547,-3.2148 0.0219,-1.65 0.37927,-3 0.79297,-3 0.4137,0 0.75196,-1.125 0.75196,-2.5 0,-1.375 0.47609,-2.5 1.0586,-2.5 0.582,0 0.8509,-0.3371 0.5957,-0.75 -0.2553,-0.4129 0.11314,-3.6754 0.82031,-7.25 0.70721,-3.5746 1.3402,-5.9375 1.4063,-5.25 0.0514,0.5385 0.38276,0.99113 0.79687,1.166 l 0.33789,-1.8828 c -0.007,-0.0126 -0.009,-0.0204 -0.0156,-0.0332 -0.633,-1.1829 -0.68215,-2 -0.11914,-2 0.15084,0 0.31201,0.0577 0.47265,0.14062 l 0.13867,-0.77148 c -0.0205,-0.009 -0.0378,-0.0233 -0.0586,-0.0312 -1.1881,-0.4559 -1.4204,-1.4734 -0.96875,-4.2188 0.3273,-1.9898 0.79797,-5.1941 1.0469,-7.1191 0.24893,-1.925 1.1348,-7.325 1.9688,-12 0.8341,-4.675 1.5168,-10.201 1.5176,-12.281 7e-4,-2.0802 0.60023,-5.2302 1.332,-7 0.7319,-1.7699 1.4302,-5.787 1.5508,-8.9277 0.1206,-3.1407 0.38348,-6.5157 0.58398,-7.5 0.4768,-2.3397 3.0205,-13.961 4.9902,-22.791 0.8587,-3.85 1.8125,-10.273 2.1191,-14.275 0.5451,-7.1161 0.48072,-7.3806 -2.9297,-12 -1.918,-2.5979 -4.4658,-5.3996 -5.6602,-6.2246 -1.1945,-0.825 -3.0976,-2.2875 -4.2305,-3.25 -1.1328,-0.9625 -2.3566,-1.75 -2.7188,-1.75 -0.3622,0 -1.644,-0.91756 -2.8476,-2.0391 -1.2037,-1.1214 -2.1875,-1.7881 -2.1875,-1.4824 0,0.3057 -2.3625,-0.64718 -5.25,-2.1172 -5.6524,-2.8776 -23.206,-9.3542 -33.75,-12.453 -3.575,-1.0507 -8.75,-2.5935 -11.5,-3.4277 -2.75,-0.8343 -6.575,-1.565 -8.5,-1.625 -1.925,-0.0601 -7.55,-0.7058 -12.5,-1.4336 -4.95,-0.7278 -13.95,-1.554 -20,-1.8359 -6.05,-0.2819 -12.125,-0.73728 -13.5,-1.0137 -1.375,-0.27642 -5.534,-0.63081 -9.2422,-0.78711 -3.7081,-0.1562 -6.742,-0.51015 -6.752,-0.78515 -0.006,-0.30158 -4.0702,-0.44956 -9.5234,-0.4707 z m 103.1,18.922 c 0.0773,-0.0155 0.175,-0.0156 0.29297,0.002 0.1573,0.0235 0.34781,0.0767 0.57032,0.16211 0.8536,0.3276 1.5527,0.77208 1.5527,0.98828 0,0.8099 -1.9049,0.3545 -2.4922,-0.5957 -0.19704,-0.31888 -0.15558,-0.51017 0.0762,-0.55664 z m 15.172,8.1641 c 0.29376,-0.0401 0.75191,0.11841 1.4102,0.47071 1.0083,0.5396 1.834,1.0946 1.834,1.2324 0,0.1378 -0.82565,0.25 -1.834,0.25 -1.0083,0 -1.832,-0.55492 -1.832,-1.2324 0,-0.44225 0.12812,-0.68057 0.42188,-0.72071 z m 13.779,6.7793 c 0.10159,-0.0242 0.1945,-7.8e-4 0.27148,0.0762 0.3079,0.3079 -1.9e-4,1.1146 -0.68359,1.793 -0.9876,0.9802 -1.1013,0.86465 -0.5586,-0.56055 0.28163,-0.73965 0.66593,-1.2361 0.97071,-1.3086 z m 4.2383,3.6016 c 0.8578,0 1.3718,0.12746 1.1426,0.28321 -0.22919,0.1556 -1.2144,0.89537 -2.1894,1.6426 -1.5434,1.1827 -1.691,1.1459 -1.1426,-0.2832 0.3465,-0.9028 1.3317,-1.6426 2.1895,-1.6426 z m -10.035,7.9492 c 0.29766,-0.0324 0.64032,0.0974 0.99414,0.45117 0.33,0.33 0.0196,0.59961 -0.68945,0.59961 -1.0414,0 -1.0455,0.29389 -0.0234,1.5254 0.6957,0.8383 1.0707,1.7164 0.83398,1.9531 -0.23669,0.2367 -0.96569,-0.42706 -1.6211,-1.4766 -0.87007,-1.3932 -0.38711,-2.9556 0.50586,-3.0527 z m 10.508,0.54688 c 0.27995,-0.0202 0.92242,0.43206 1.543,1.1055 0.7091,0.7695 0.8478,1.3984 0.3086,1.3984 -1.0385,0 -2.5405,-1.9013 -1.9473,-2.4648 0.0241,-0.0229 0.0557,-0.0362 0.0957,-0.0391 z m 8,2 c 0.27995,-0.0202 0.92242,0.43206 1.543,1.1055 0.7091,0.7695 0.8478,1.3984 0.3086,1.3984 -1.0385,0 -2.5405,-1.9013 -1.9473,-2.4648 0.0241,-0.0229 0.0557,-0.0362 0.0957,-0.0391 z m -9.6894,0.14648 c 0.24056,0.008 0.24009,0.40949 0.17969,1.2109 -0.0712,0.9451 -0.9418,1.7188 -1.9336,1.7188 -0.9919,0 -1.8027,-0.0275 -1.8027,-0.0625 0,-0.035 0.87059,-0.80855 1.9336,-1.7188 0.90145,-0.7721 1.3825,-1.1568 1.623,-1.1484 z m 4.0273,1.373 c 2.0783,-0.0294 2.4088,1.3365 0.76368,3.1543 -2.01,2.2211 -3.3477,2.3523 -3.3477,0.33008 0,-0.8844 0.9235,-1.5056 2.25,-1.5156 1.8195,-0.0124 1.963,-0.20048 0.75,-0.98438 -0.825,-0.5332 -1.0119,-0.97437 -0.41602,-0.98437 z m 7.416,1.9844 c 1.1649,0 1.8399,0.45 1.5,1 -0.3399,0.55 -1.0149,1 -1.5,1 -0.4851,0 -1.1601,-0.45 -1.5,-1 -0.3399,-0.55 0.3351,-1 1.5,-1 z m -23.584,1.4551 c 0.23179,0.0465 0.27328,0.23776 0.0762,0.55664 -0.336,0.5437 -1.0333,0.98828 -1.5508,0.98828 -1.4384,0 -1.1212,-0.71606 0.61132,-1.3809 0.22248,-0.0854 0.41302,-0.13866 0.57032,-0.16211 0.11797,-0.0176 0.21574,-0.0174 0.29296,-0.002 z m 18.57,0.54492 c 0.6195,0 0.84966,0.45 0.50976,1 -0.34,0.55 -0.14099,1 0.44141,1 0.5825,0 1.0586,-0.54499 1.0586,-1.2129 0,-0.7859 0.56969,-0.64516 1.6172,0.40234 1.6833,1.6832 1.1418,3.8694 -0.92578,3.7324 -0.8587,-0.057 -0.84271,-0.22029 0.0586,-0.58399 0.6875,-0.2774 1.25,-0.93158 1.25,-1.4551 0,-0.5586 -0.83919,-0.50408 -2.0293,0.13282 -1.1154,0.5969 -1.769,1.5027 -1.4531,2.0137 0.3158,0.511 0.058,1.8926 -0.57226,3.0703 -0.9303,1.7384 -0.89073,1.9898 0.20507,1.3301 0.9784,-0.589 0.93962,-0.31103 -0.13671,1.0137 -0.81672,1.0051 -1.49,2.5555 -1.5,3.4434 -0.01,1.0155 -0.70209,1.4965 -1.8672,1.2969 -1.5786,-0.2705 -1.6525,-0.10177 -0.5,1.1445 0.7438,0.8043 1.7409,1.2272 2.2148,0.93945 1.7426,-1.0578 2.5046,2.1091 0.81641,3.3926 -1.5544,1.1819 -1.5448,1.2786 0.14258,1.3086 1.6905,0.0295 1.7029,0.15064 0.17578,1.6777 -1.2028,1.2028 -1.326,1.8416 -0.46289,2.375 0.9076,0.5583 0.90866,0.89947 0.01,1.4551 -0.6481,0.3993 -0.93397,1.3556 -0.63867,2.125 0.2952,0.7693 0.11511,1.3984 -0.40039,1.3984 -0.5155,0 -0.67793,0.675 -0.36133,1.5 h -0.004 c 0.317,0.825 0.30271,1.5 -0.0313,1.5 -0.6046,0 -0.97417,-1.753 -0.70117,-3.3242 0.0787,-0.453 -0.42976,-0.46089 -1.1309,-0.0176 -0.7011,0.4432 -2.572,0.87589 -4.1562,0.96289 -1.7317,0.095 -2.3777,-0.15155 -1.6211,-0.61915 0.7448,-0.46028 0.93258,-1.3346 0.45898,-2.1406 -0.44,-0.749 0.10369,-0.57052 1.209,0.39648 1.922,1.6815 2.0858,1.675 3.752,-0.16601 1.3431,-1.4842 1.5011,-2.3737 0.69336,-3.8828 -0.8277,-1.5466 -0.63488,-2.3312 0.91992,-3.7383 1.0823,-0.97952 1.9688,-2.2382 1.9688,-2.7988 0,-0.5606 -1.1314,0.0433 -2.5137,1.3418 -2.004,1.8827 -2.7639,2.1087 -3.75,1.1152 -0.9841,-0.9915 -0.91148,-1.1238 0.35352,-0.64258 0.907,0.345 2.1955,-0.13845 3,-1.127 1.2324,-1.5142 1.2109,-1.6592 -0.16602,-1.1445 -2.1134,0.7899 -1.8644,-2.1291 0.48633,-5.7168 0.989,-1.5094 1.2871,-2.4281 0.66406,-2.043 -1.1463,0.7084 -6.0246,-3.1999 -6.0566,-4.8516 -0.01,-0.4928 1.1074,0.31903 2.4824,1.8027 l 2.5,2.6973 0.11719,-2.3008 c 0.065,-1.2658 0.0556,-2.6736 -0.0234,-3.127 -0.0787,-0.4534 0.39368,-0.49203 1.0508,-0.0859 0.8335,0.5151 0.98536,0.19319 0.50196,-1.0664 -0.6094,-1.5881 -0.49179,-1.6389 0.97461,-0.42188 1.4906,1.2371 1.5914,1.1453 0.95508,-0.85937 -0.44971,-1.4171 -0.29784,-2.2422 0.41406,-2.2422 z m -6.3223,0.67383 c 0.10515,0.0256 0.22844,0.15121 0.36914,0.37891 0.4304,0.6963 0.55058,1.87 0.26758,2.6074 -0.7634,1.9894 -1.0508,1.6439 -1.0508,-1.2656 0,-1.0417 0.10963,-1.6224 0.31445,-1.7129 0.0307,-0.0136 0.0646,-0.0163 0.0996,-0.008 z m -10.627,0.0352 c 0.32746,-0.0443 0.53512,0.42584 0.53516,1.3066 -1e-5,2.2722 -0.18676,2.4198 -1.127,0.89843 -0.3696,-0.598 -0.26764,-1.4921 0.22656,-1.9863 0.13285,-0.13288 0.25609,-0.20401 0.36524,-0.21875 z m 5.332,1.3945 c 0.13625,0.0482 0.38356,0.26328 0.75391,0.63086 0.6834,0.6784 0.99149,1.4851 0.68359,1.793 -0.3079,0.3078 -0.86669,-0.24818 -1.2422,-1.2344 -0.33918,-0.89075 -0.42239,-1.2699 -0.19531,-1.1894 z m 10.572,2.8965 c -0.5825,0 -0.78131,0.45 -0.44141,1 0.3399,0.55 0.81609,1 1.0586,1 0.2426,0 0.44141,-0.45 0.44141,-1 0,-0.55 -0.47609,-1 -1.0586,-1 z m -14.209,0.33399 c 0.78604,0.0481 0.90219,0.27389 0.29297,0.65039 -0.7048,0.4356 -0.97165,1.2928 -0.59375,1.9043 1.0453,1.6913 0.0731,1.3272 -1.7051,-0.63867 -1.4673,-1.6221 -1.3946,-1.7597 0.99805,-1.9023 0.40905,-0.0243 0.7458,-0.0297 1.0078,-0.0137 z m 6.6406,4.1426 c 0.47755,0.0126 0.94568,0.23025 1.25,0.72266 0.4157,0.6726 0.23035,0.82855 -0.46875,0.39649 -1.0719,-0.66251 -1.5489,0.72313 -1.4258,4.1445 0.0245,0.681 -0.35389,0.993 -0.84179,0.6914 -0.4879,-0.3015 -0.88672,-0.0988 -0.88672,0.45117 0,0.55 0.48086,1.2971 1.0684,1.6602 0.5874,0.3631 0.84175,1.2471 0.56641,1.9648 -0.27541,0.7177 0.37656,2.0975 1.4473,3.0664 1.1902,1.0771 1.7215,2.4715 1.3672,3.5879 -0.4577,1.4421 -0.19933,1.6823 1.2344,1.1445 1.5965,-0.5988 1.6503,-0.47794 0.44336,1.0059 v 0.004 c -1.6523,2.0313 -1.263,2.1246 -3.4102,-0.82617 -1.4491,-1.9916 -1.4959,-2.3393 -0.25,-1.8613 0.8429,0.321 1.5332,0.31783 1.5332,-0.01 0,-1.012 -3.3936,-4.6191 -4.3457,-4.6191 -0.4951,0 -0.339,0.675 0.3457,1.5 0.8601,1.0364 0.89855,1.5 0.12305,1.5 -1.0257,0 -1.5423,-1.3496 -1.2422,-3.25 0.1745,-1.1053 -1.6625,-0.9124 -2.3809,0.25 -0.3399,0.55 -1.1536,0.99438 -1.8086,0.98438 -0.7512,-0.01 -0.66342,-0.34932 0.23828,-0.91993 0.7862,-0.49759 1.547,-1.6988 1.6894,-2.6699 0.3216,-2.1908 -3.28,-5.4619 -5.2012,-4.7246 -2.1776,0.8356 -1.6829,2.2134 0.58203,1.6211 2.1428,-0.5603 2.7601,1.1215 0.8457,2.3047 -0.7153,0.44209 -0.8834,0.27389 -0.4414,-0.44141 0.3925,-0.635 0.28537,-1.1543 -0.23829,-1.1543 -1.476,0 -2.2012,2.8139 -0.85937,3.334 0.6566,0.2545 0.21543,0.41542 -0.98047,0.35742 -1.7376,-0.0841 -1.989,-0.45083 -1.252,-1.8281 0.6464,-1.2077 0.45136,-2.1931 -0.64844,-3.293 -1.4259,-1.4259 -1.3664,-1.5703 0.64258,-1.5703 1.2161,0 2.8084,-0.7875 3.5391,-1.75 1.2457,-1.641 1.331,-1.6254 1.375,0.25 0.0399,1.6938 0.21305,1.7704 1.127,0.5 0.9328,-1.2967 1.0087,-1.2786 0.5625,0.12891 -0.2839,0.8955 -0.0466,2.0979 0.52735,2.6719 1.1887,1.1887 3.8008,0.49223 3.8008,-1.0137 0,-0.55 -0.6992,-0.7319 -1.5527,-0.4043 -0.94491,0.3624 -1.2958,0.18021 -0.89844,-0.46289 0.3592,-0.5812 1.3335,-0.79536 2.1641,-0.47656 1.023,0.3923 1.3321,0.11759 0.96094,-0.84961 -0.45471,-1.185 0.6486,-2.1448 1.6992,-2.1172 z m -11.814,0.52344 c 0.2426,0 0.44141,0.45 0.44141,1 0,0.55 -0.47609,1 -1.0586,1 -0.58251,0 -0.78131,-0.45 -0.44141,-1 0.3399,-0.55 0.81609,-1 1.0586,-1 z m 12.805,5.3457 c 0.0909,0.0138 0.20061,0.16765 0.32031,0.46679 0.2888,0.7219 0.25224,1.5857 -0.0801,1.918 -0.3323,0.3323 -0.56839,-0.2584 -0.52539,-1.3125 0.03,-0.72812 0.13361,-1.0953 0.28516,-1.0723 z m -4.9414,1.0117 c -0.29846,0.0104 -0.49073,0.38044 -0.77343,1.1172 -0.3439,0.8962 -0.21273,1.3732 0.29297,1.0606 0.5057,-0.3125 1.2217,-0.0799 1.5898,0.51562 0.368,0.5956 0.93509,0.81689 1.2598,0.49219 0.32471,-0.3247 -0.11024,-1.2899 -0.96484,-2.1445 -0.70245,-0.70235 -1.1058,-1.0514 -1.4043,-1.041 z m -9.2324,5.0078 c 0.30108,-0.0248 0.25684,0.0833 -0.16601,0.29297 -1.7629,0.87427 -1.1155,2.3147 0.72656,1.6172 1.6508,-0.6249 1.6533,-0.56425 0.043,1.0606 -0.97,0.9788 -1.4377,2.4267 -1.082,3.3535 0.5204,1.3563 0.76834,1.25 1.4648,-0.63281 0.5666,-1.5316 1.3562,-2.0649 2.4414,-1.6484 1.1635,0.4465 1.4408,0.18408 1.0059,-0.94922 -0.366,-0.9542 -0.18777,-1.3087 0.45703,-0.91016 0.5809,0.3592 0.81473,1.2833 0.51953,2.0527 -0.6108,1.5916 0.95949,1.9208 1.9004,0.39844 0.3399,-0.55 1.074,-1 1.6309,-1 0.5568,0 0.25754,0.75428 -0.66406,1.6758 -1.3493,1.3494 -2.0407,1.4467 -3.5566,0.5 -2.7172,-1.6969 -3.4562,-1.4454 -1.6856,0.57422 h -0.002 c 1.3881,1.5832 1.3502,1.9396 -0.4043,3.7383 -1.6232,1.6641 -1.8298,1.7048 -1.2715,0.25 0.6615,-1.724 -0.21217,-2.1706 -3.5469,-1.8144 -1.3333,0.1424 -1.3333,0.0452 0,-0.86719 1.2818,-0.8771 0.8752,-1.3878 -1,-1.2578 -0.275,0.0191 -0.56744,-1.0768 -0.64844,-2.4336 -0.1371,-2.2957 -0.0499,-2.3416 1.2383,-0.66602 1.2897,1.6777 1.3673,1.6385 1.1465,-0.58789 -0.1304,-1.3143 0.33591,-2.5189 1.0371,-2.6758 0.17532,-0.0392 0.31565,-0.062 0.41601,-0.0703 z m 9.957,6.1602 c 0.30471,0.0335 0.51953,0.41893 0.51953,1.0195 1e-5,1.6862 -0.31434,1.8338 -1.123,0.52539 -0.3164,-0.512 -0.19386,-1.1682 0.27344,-1.457 0.11685,-0.0722 0.2285,-0.0991 0.33007,-0.0879 z m -3.7695,3.4746 c 0.5872,0 0.0597,0.70576 -1.1719,1.5684 -1.2316,0.8627 -1.9787,1.9877 -1.6621,2.5 0.6658,1.0773 0.10359,1.2461 -0.87891,0.26367 -0.8088,-0.8089 2.2107,-4.332 3.7129,-4.332 z m -11.545,1.4453 c 0.0679,0.01 0.14252,0.0384 0.22266,0.0879 0.5649,0.3491 0.75247,1.497 0.41797,2.5508 -0.805,2.5362 0.29107,2.4313 2.4512,-0.23633 1.3771,-1.7007 1.7422,-1.8159 1.7422,-0.54492 0,0.8851 -0.37373,1.379 -0.83203,1.0957 -0.4584,-0.2833 -0.83398,-0.0395 -0.83398,0.54297 0,0.5824 0.50565,1.0586 1.123,1.0586 0.768,0 0.72222,0.48144 -0.14258,1.5234 -1.0489,1.2639 -1.0005,1.4222 0.2832,0.92969 1.2198,-0.4681 1.5001,0.0787 1.3262,2.5898 -0.1255,1.8132 0.45441,3.8654 1.3457,4.7656 1.422,1.436 1.3913,1.5138 -0.33008,0.86132 -1.2079,-0.4578 -2.5671,-0.10956 -3.75,0.96094 -1.0434,0.9442 -1.8555,1.1884 -1.8555,0.55664 0,-0.6533 -0.7325,-0.85005 -1.75,-0.46875 -1.571,0.5888 -1.6009,0.47248 -0.28711,-1.1406 0.8767,-1.0765 1.6124,-1.3522 1.834,-0.6875 0.2034,0.6104 0.76691,1.1094 1.2539,1.1094 0.4869,0 0.59925,-0.74886 0.24805,-1.6641 -0.4637,-1.2083 -0.27616,-1.4401 0.68554,-0.8457 0.8626,0.5331 1.0858,0.43248 0.63868,-0.29102 -0.3776,-0.6105 -1.3488,-0.85873 -2.1562,-0.54883 -0.8074,0.3098 -1.4668,0.0658 -1.4668,-0.54297 0,-0.6089 -0.43605,-1.1074 -0.96875,-1.1074 -0.5327,0 -0.6872,0.7875 -0.3418,1.75 0.3676,1.0245 0.25115,1.4057 -0.28125,0.91797 -0.5001,-0.4581 -0.93008,-1.9124 -0.95508,-3.2324 l -0.0449,-2.4004 2.2949,2.1562 c 1.4388,1.3517 2.2969,1.6738 2.2969,0.86133 0,-1.0394 0.2978,-1.0504 1.5,-0.0527 2.1004,1.7431 1.8118,-0.0466 -0.44336,-2.75 -2.2007,-2.6379 -3.5375,-2.9448 -2.6406,-0.60742 0.54341,1.4162 0.40645,1.4541 -1.002,0.28516 -0.8979,-0.7452 -1.196,-1.5011 -0.66015,-1.6797 0.5353,-0.1786 0.8179,-1.6791 0.625,-3.3359 -0.19163,-1.6454 -0.022,-2.5356 0.45312,-2.4668 z m 20.609,0.80469 c 1.8893,0 2.1521,0.26997 1.2305,1.2637 -0.7592,0.8186 -1.3973,0.90675 -1.8105,0.24805 -0.7286,-1.1616 -2.8613,-0.15163 -2.8613,1.3555 0,0.55 0.5194,0.67951 1.1543,0.28711 0.6804,-0.4205 0.88369,-0.27554 0.49609,0.35156 -0.8358,1.3524 0.23954,4.2441 1.5781,4.2441 0.63872,0 0.60255,-0.4981 -0.0976,-1.3418 -0.6126,-0.73812 -0.82129,-1.6358 -0.46289,-1.9942 0.3584,-0.3584 1.2861,0.25368 2.0605,1.3594 0.77441,1.1057 1.8968,1.7071 2.4942,1.3379 0.6701,-0.4141 0.79627,-0.20167 0.33007,0.55273 -0.4156,0.6725 -1.303,1.0128 -1.9726,0.75586 -0.8281,-0.3178 -1.2103,0.75643 -1.1953,3.3633 0.0214,3.6557 1.5286,4.6868 1.6934,1.1582 0.0511,-1.0941 0.26211,-1.2387 0.59571,-0.4082 0.2836,0.706 -0.0615,1.9778 -0.76563,2.8262 -1.0484,1.2632 -1.0194,1.7073 0.15625,2.4512 1.1499,0.7274 1.1647,0.91183 0.0781,0.92383 -0.7805,0.009 -1.1179,0.63956 -0.79297,1.4863 0.3105,0.80898 -0.16389,2.201 -1.0547,3.0918 -1.373,1.373 -1.404,1.756 -0.20703,2.5137 0.9032,0.5718 0.9825,0.89821 0.2207,0.90821 -0.655,0.008 -1.5052,-0.49268 -1.8887,-1.1133 -0.4764,-0.7708 -0.98778,-0.60989 -1.6133,0.50781 -0.9854,1.7609 -0.31235,3.6211 1.3106,3.6211 0.55,0 0.67961,-0.51934 0.28711,-1.1543 -0.4562,-0.73831 -0.27214,-0.88164 0.50976,-0.39844 0.6729,0.4157 0.98075,1.3849 0.68555,2.1543 -0.2953,0.7693 -0.11511,1.3984 0.40039,1.3984 0.5155,0 0.67783,0.675 0.36133,1.5 -0.3166,0.825 -1.2319,1.5 -2.0352,1.5 -0.9839,0 -1.2632,0.62522 -0.85351,1.916 0.3345,1.0538 0.14076,2.2048 -0.43165,2.5586 -0.5724,0.3537 -1.0354,1.179 -1.0254,1.834 0.01,0.733 0.42328,0.6146 1.0762,-0.3086 0.8628,-1.2196 0.98797,-1.2317 0.67187,-0.0625 -0.2137,0.7906 -0.88167,1.6018 -1.4844,1.8027 -1.4051,0.4684 -2.5943,-1.4224 -1.752,-2.7852 0.3548,-0.5741 0.0844,-1.7168 -0.59961,-2.541 -0.9771,-1.177 -0.98314,-1.7585 -0.0273,-2.707 0.9532,-0.946 1.0727,-0.82793 0.55078,0.54297 -0.3664,0.9625 -0.21601,1.75 0.33399,1.75 1.873,0 2.2337,-3.0557 0.44726,-3.7891 -0.9534,-0.3914 -1.7324,-1.3859 -1.7324,-2.2109 0,-0.8703 -0.90706,-1.5 -2.1602,-1.5 -1.1879,0 -3.0441,-1.0174 -4.125,-2.2598 l -1.9648,-2.2578 v 2.6152 c 0,1.9385 0.24627,2.2653 0.95117,1.2598 0.7696,-1.0979 0.87242,-1.0712 0.54102,0.14258 -0.5607,2.054 -3.2734,1.9042 -3.1172,-0.17187 0.0778,-1.0338 -0.3988,-1.4692 -1.25,-1.1426 -2.5783,0.9894 -1.3307,-1.179 2.1211,-3.6856 3.6349,-2.6395 4.0525,-4.6204 0.91016,-4.3223 -1.0328,0.098 -2.1811,-0.31011 -2.5508,-0.90821 -0.8422,-1.3628 0.0245,-3.7695 1.3574,-3.7695 0.5499,0 0.77731,0.58242 0.50391,1.2949 -0.3022,0.7874 0.3357,1.36 1.6289,1.457 1.508,0.11361 1.7379,-0.083 0.78516,-0.67187 -0.8949,-0.553 -0.98895,-1.0489 -0.28125,-1.4863 0.5847,-0.3614 0.79088,-1.4301 0.45898,-2.375 -0.4742,-1.3499 -0.33063,-1.4672 0.66797,-0.54492 1.943,1.7944 4.2432,-0.5967 2.373,-2.4668 -0.7424,-0.7424 -1.3459,-1.8811 -1.3359,-2.5293 0.0107,-0.8214 0.26228,-0.78935 0.83008,0.10547 0.4676,0.7366 1.634,1.017 2.7363,0.65624 1.375,-0.44979 1.5438,-0.35938 0.5957,0.32032 -1.0685,0.7659 -0.972,1.3046 0.5,2.7891 1.5098,1.5226 1.543,1.7325 0.19531,1.2227 -2.0652,-0.7812 -3.874,0.97131 -3.1992,3.0996 0.4462,1.4075 0.3703,1.4256 -0.5625,0.1289 -0.5935,-0.825 -1.1209,-1.275 -1.1699,-1 -0.0493,0.275 -0.28539,1.5627 -0.52539,2.8613 -0.3112,1.6839 -0.0478,2.2116 0.91602,1.8418 0.7433,-0.2852 1.9555,-0.1447 2.6953,0.3125 1.0613,0.6559 1.0905,1.1394 0.13477,2.291 -0.9637,1.1611 -0.91149,1.5752 0.26171,2.0254 1.0428,0.4001 1.3159,0.0687 0.93164,-1.1328 -0.4644,-1.4519 -0.38431,-1.481 0.55079,-0.19922 0.9113,1.2491 1.2426,1.2719 1.9746,0.13672 0.742,-1.1508 0.95448,-1.1508 1.3633,0 0.2662,0.7497 0.8153,1.0556 1.2207,0.67969 1.232,-1.1425 -0.5197,-2.9341 -2.3125,-2.3652 -0.9793,0.3109 -2.1456,-0.21316 -2.7969,-1.2559 -0.92139,-1.4755 -0.78249,-1.8134 0.78711,-1.9316 1.1456,-0.0863 1.6336,0.29268 1.2266,0.95118 -0.3874,0.6269 -0.21892,0.80998 0.39648,0.42968 0.5906,-0.365 1.7539,0.0157 2.584,0.84571 2.0282,2.0285 2.3623,1.9096 2.0684,-0.74024 -0.1372,-1.2375 -0.28798,-2.5875 -0.33398,-3 -0.0459,-0.4125 -0.51808,-0.75 -1.0508,-0.75 -0.53272,0 -0.67305,0.7724 -0.31055,1.7168 0.5783,1.5073 0.47104,1.5421 -0.88086,0.2793 -1.293,-1.2078 -1.3245,-1.6559 -0.1914,-2.7891 1.9194,-1.9194 1.6707,-2.4489 -0.58399,-1.2422 -3.0054,1.6085 -3.5881,1.2233 -1.2363,-0.81641 1.1742,-1.0184 1.8194,-2.167 1.4336,-2.5527 -0.3857,-0.3855 0.18438,-0.36804 1.2676,0.0391 1.7214,0.6468 1.803,0.53403 0.64648,-0.88867 -0.7277,-0.8953 -2.0777,-1.386 -3,-1.0918 -1.4354,0.4579 -1.4598,0.37878 -0.17578,-0.54492 1.3973,-1.0051 0.70518,-1.5761 -1.4199,-1.1719 -0.5056,0.0962 -0.39622,-0.45345 0.24219,-1.2226 0.6383,-0.7691 0.87409,-1.6846 0.52539,-2.0332 -1.1279,-1.128 1.6208,-3.4316 4.0938,-3.4316 z m -5.1035,0.13086 c 0.27028,0.007 0.29909,0.40086 0.043,1.0684 -0.6648,1.7324 -1.3809,2.0478 -1.3809,0.60938 0,-0.5175 0.44458,-1.2148 0.98828,-1.5508 0.1417,-0.0876 0.25952,-0.12921 0.34961,-0.12695 z m -5.0352,1.0606 c 0.40478,-0.0469 1.3176,0.58726 2.1914,1.5527 2.1264,2.3496 1.7822,2.5302 -0.92187,0.48438 -1.0598,-0.8018 -1.6943,-1.6905 -1.4102,-1.9746 0.0355,-0.0355 0.0828,-0.0558 0.14062,-0.0625 z m 13.908,0.63281 c 0.12954,0.004 0.23747,0.0422 0.31445,0.11914 0.3079,0.3079 -0.24622,0.86669 -1.2324,1.2422 -1.4252,0.5427 -1.5408,0.42902 -0.56055,-0.5586 0.50873,-0.51255 1.0899,-0.81416 1.4785,-0.80273 z m -17.6,1.2695 c 0.11953,0.0201 0.25117,0.0713 0.38867,0.15625 0.55,0.3399 1,0.8161 1,1.0586 0,0.2426 -0.45,0.4414 -1,0.4414 -0.55,0 -1,-0.47619 -1,-1.0586 0,-0.43688 0.25273,-0.65795 0.61133,-0.59766 z m 1.7266,3.0371 c 0.27028,0.007 0.29909,0.40086 0.043,1.0684 -0.3276,0.8535 -0.1457,1.5508 0.4043,1.5508 0.55,0 1.2482,0.6451 1.5508,1.4336 0.3701,0.9645 -0.0852,1.385 -1.3926,1.2871 -2.0752,-0.1564 -2.7937,-4.0766 -0.95508,-5.2129 0.1417,-0.0876 0.25952,-0.12921 0.34961,-0.12695 z m -8.1699,10.836 c 0.5726,-0.0132 0.77176,0.14215 0.17187,0.5332 -0.8307,0.5416 -0.6182,1.4237 0.75,3.1133 1.0501,1.2961 1.9102,1.8851 1.9102,1.3066 0,-0.5785 -0.45,-1.33 -1,-1.6699 -1.2607,-0.7794 -1.3085,-2.5 -0.0684,-2.5 0.5129,0 1.2329,0.94616 1.5996,2.1016 0.4851,1.5285 0.96668,1.8008 1.7676,1 2.3074,-2.3075 2.9345,-0.97876 0.67383,1.4277 -1.307,1.3912 -2.8798,2.3374 -3.4942,2.1016 -0.6887,-0.2642 -1.0945,0.82726 -1.0605,2.8477 0.0332,1.96 0.4984,3.1067 1.1582,2.8535 0.6067,-0.2328 1.6766,0.26733 2.377,1.1113 0.7005,0.844 1.667,1.2916 2.1484,0.99414 0.4814,-0.2976 0.6502,0.0456 0.375,0.76172 -0.2752,0.716 -1.6198,1.3663 -2.9883,1.4453 -2.5012,0.145 -3.373,-1.039 -1.4629,-1.9863 0.5638,-0.2797 0.4513,-0.38001 -0.25,-0.22461 -0.7012,0.1555 -1.2099,1.0424 -1.1289,1.9726 0.0809,0.9303 -0.3691,1.5083 -1,1.2832 -0.6309,-0.22509 -1.0486,-1.3173 -0.92968,-2.4258 0.1189,-1.1084 -0.6686,-2.8144 -1.75,-3.793 -1.0814,-0.97871 -1.9668,-1.3088 -1.9668,-0.73243 0,0.57637 0.72145,1.3257 1.6035,1.6641 0.99771,0.3827 1.3657,1.2375 0.97266,2.2617 -0.3839,1.0004 0.23081,2.5667 1.5664,3.9883 1.2094,1.2873 1.8714,2.6658 1.4726,3.0644 -0.3988,0.3987 -1.1426,0.063 -1.6543,-0.74609 -0.5117,-0.809 -0.93532,-0.97722 -0.94532,-0.375 -0.008,0.6023 0.961,1.9523 2.1543,3 1.9477,1.7102 2.1042,1.7254 1.5312,0.15429 -0.3765,-1.0324 -0.1601,-1.75 0.5293,-1.75 0.8745,0 0.86625,-0.30172 -0.0312,-1.1992 -1.6928,-1.6928 -1.4979,-3.2925 0.22656,-1.8613 1.5512,1.2877 1.508,5.1655 -0.0801,7.252 -0.5481,0.7201 -0.87627,2.5461 -0.73047,4.0586 0.1458,1.5125 -0.15868,2.75 -0.67578,2.75 -0.9118,0 -1.3079,-1.3537 -1.0508,-3.5879 0.0689,-0.5989 -0.79828,-1.925 -1.9258,-2.9453 -2.0011,-1.8109 -2.0347,-1.8079 -1.3867,0.0898 0.4484,1.3129 -0.41777,0.83063 -2.6719,-1.4844 -1.9202,-1.9721 -2.8454,-3.592 -2.1777,-3.8145 0.6386,-0.2128 0.93004,-0.9868 0.64844,-1.7207 -0.7669,-1.9985 1.471,-2.8976 3.418,-1.373 1.5076,1.1806 1.5592,1.1473 0.43945,-0.28711 -0.6967,-0.89269 -0.99255,-2.4677 -0.65625,-3.5 0.5047,-1.5487 0.4237,-1.6148 -0.4668,-0.37695 -0.5935,0.825 -1.1389,1.05 -1.2109,0.5 -0.4218,-3.2287 -0.34367,-4.1231 0.45703,-5.25 0.5852,-0.8235 0.41982,-1.2556 -0.48438,-1.2656 -1.0793,-0.0121 -1.0507,-0.2257 0.12891,-1 1.3333,-0.8753 1.3333,-1.1054 0,-2.0781 -1.2702,-0.9267 -1.2319,-1.008 0.25,-0.53125 1.9673,0.6329 2.3048,-0.4199 0.66211,-2.0625 -0.7828,-0.7829 -0.7128,-1.3194 0.25,-1.9199 1.0599,-0.661 3.0515,-1.1538 4.0059,-1.1758 z m -2.9453,1.291 c -0.14889,-0.002 -0.29582,0.0379 -0.4336,0.12305 -0.6161,0.3808 -0.48078,0.94992 0.35352,1.4785 1.8208,1.1537 1.8833,1.1233 1.2207,-0.60352 -0.23655,-0.6165 -0.69397,-0.99249 -1.1406,-0.99805 z m 13.92,2.5234 c -0.55104,0.0825 -1.3963,0.56908 -2.0781,1.3906 -1.6043,1.9331 0.72524,5.7797 3.0527,5.041 0.9355,-0.2969 1.8987,0.13816 2.2324,1.0078 0.585,1.5243 1.8415,2.2055 1.4375,0.77929 -0.1169,-0.4125 0.34384,-1.7515 1.0234,-2.9766 1.0508,-1.8944 1.0092,-2.1417 -0.28125,-1.6465 -0.8346,0.3202 -1.2692,0.98612 -0.96485,1.4785 1.0452,1.6912 -1.2558,0.89499 -3.0078,-1.041 -0.9642,-1.0653 -1.4571,-2.4153 -1.0957,-3 0.49,-0.79284 0.23268,-1.1157 -0.31836,-1.0332 z m -10.834,0.96875 c -1.4506,0 -4.4324,3.5441 -3.6445,4.332 0.3679,0.3678 1.1562,0.63285 1.752,0.58985 0.5958,-0.0435 0.50307,-0.31266 -0.20703,-0.59766 -0.9253,-0.3713 -0.67015,-1.0561 0.90235,-2.4199 1.2071,-1.0467 1.7462,-1.9043 1.1973,-1.9043 z m 12.979,8 c 0.8143,0 0.81313,0.30005 -0.01,1.123 -0.6167,0.617 -0.88937,1.8545 -0.60547,2.75 0.4374,1.3794 0.35777,1.4026 -0.52343,0.15625 -0.5719,-0.8091 -1.1823,-1.2591 -1.3555,-1 -0.1733,0.259 -1.1095,1.4195 -2.0801,2.5781 -1.6861,2.0134 -1.6849,2.1656 0.0117,3.4512 1.5028,1.1385 1.5868,1.1332 0.54883,-0.0332 -0.8658,-0.973 -0.91668,-1.7498 -0.17578,-2.6426 1.2727,-1.5335 3.9023,-0.70789 3.9023,1.2246 0,0.7661 0.50575,1.3926 1.123,1.3926 0.8098,0 0.79723,0.38995 -0.043,1.4024 -0.894,1.0771 -0.8631,1.5239 0.1289,1.9219 0.8657,0.3474 0.74954,0.54466 -0.35156,0.59766 -0.9037,0.0434 -1.8998,-0.5886 -2.2129,-1.4043 -0.9153,-2.3854 -3.8111,-0.66104 -3.1094,1.8516 0.4733,1.6947 0.37992,1.8235 -0.45508,0.63086 -0.5776,-0.825 -1.0545,-1.0267 -1.0645,-0.44922 -0.008,0.5775 0.5236,1.59 1.1836,2.25 0.9334,0.9333 0.9206,1.1992 -0.0586,1.1992 -0.692,0 -0.99296,0.43103 -0.66796,0.95703 0.8843,1.4307 3.3044,0.15765 3.1562,-1.6602 -0.0708,-0.87 0.44528,-1.7078 1.1465,-1.8633 0.7013,-0.1554 0.8138,-0.0549 0.25,0.22461 -1.5016,0.74468 -1.2505,2.0424 0.52734,2.7246 0.8535,0.3275 1.3073,0.20005 1.0098,-0.28125 -0.6813,-1.1024 1.452,-2.8388 3.4375,-2.7988 0.8804,0.0179 1.5643,1.0582 1.6543,2.5176 0.1101,1.7811 -0.0934,2.0891 -0.71485,1.084 -0.7186,-1.1623 -1.1749,-1.0788 -2.6543,0.48828 -1.4786,1.5661 -1.512,1.7966 -0.19532,1.3418 0.8749,-0.3022 2.1398,-0.20942 2.8106,0.20507 0.6707,0.4145 -0.63429,0.75391 -2.9004,0.75391 -2.5721,0 -3.6284,-0.31343 -2.8106,-0.83203 0.9178,-0.5821 0.62629,-0.8347 -0.97461,-0.8457 -2.0049,-0.0134 -2.1493,0.2397 -1.1738,2.0625 0.61222,1.1438 1.7288,1.8407 2.4844,1.5508 0.895,-0.3436 1.1781,-0.0192 0.8125,0.93359 -0.3763,0.9805 -0.0837,1.2782 0.89062,0.9043 0.7981,-0.3062 1.997,0.1005 2.6641,0.9043 0.9872,1.1895 0.83085,1.583 -0.83985,2.1133 -2.191,0.6954 -2.8329,2.5156 -0.88672,2.5156 0.64171,0 0.8787,0.28918 0.5254,0.64258 -0.3534,0.3534 -1.3297,0.0726 -2.168,-0.62305 -1.1414,-0.9472 -1.5234,-0.96441 -1.5234,-0.0703 0,0.779 -0.5316,0.66372 -1.5293,-0.33398 -1.5252,-1.5252 -4.4707,-1.2012 -4.4707,0.49218 h 0.004 c 0,0.4911 -0.5625,0.87738 -1.25,0.85938 -0.6875,-0.0183 -0.14834,-0.94836 1.1973,-2.0684 1.3476,-1.1215 2.0214,-2.3419 1.5,-2.7168 -0.5206,-0.3743 -0.94726,-1.3566 -0.94726,-2.1816 0,-0.8349 -0.72864,-1.3807 -1.6445,-1.2305 -1.1922,0.1955 -1.6054,-0.42274 -1.5,-2.248 0.1682,-2.9125 1.4054,-3.3142 2.3789,-0.77149 0.6966,1.8195 4.5037,5.3393 5.1172,4.7305 0.3753,-0.3723 -1.1987,-2.412 -4.207,-5.4512 -1.0745,-1.0854 -1.536,-2.395 -1.0957,-3.1074 0.4883,-0.7901 0.34637,-0.97548 -0.39453,-0.51758 -1.6998,1.0505 -1.4026,-0.46962 0.50196,-2.5742 0.9394,-1.0379 1.169,-1.8301 0.53125,-1.8301 -0.6178,0 -0.8831,-0.62914 -0.5879,-1.3984 0.2952,-0.7694 0.0562,-1.6955 -0.53124,-2.0586 -0.5875,-0.3631 -1.0684,-1.1102 -1.0684,-1.6602 0,-0.55 0.48602,-0.69988 1.0781,-0.33398 0.5922,0.366 1.9272,-0.25104 2.9688,-1.3691 1.3256,-1.4228 1.5281,-2.1632 0.67383,-2.4688 -0.6712,-0.2401 -0.85842,-0.82312 -0.41602,-1.2949 0.4424,-0.4719 1.2643,-0.19582 1.8262,0.61328 0.77318,1.1131 1.1455,1.1666 1.5293,0.2207 0.279,-0.6875 1.0088,-1.25 1.623,-1.25 z m 2.9199,0.95508 c -0.28752,0.009 0.007,0.39403 0.82617,1.3164 1.6706,1.8813 2.9668,2.1997 2.9668,0.72851 0,-0.55 -0.18797,-1 -0.41797,-1 -0.23,0 -1.2274,-0.30975 -2.2168,-0.68945 -0.60258,-0.23123 -0.98569,-0.36104 -1.1582,-0.35547 z m -22.207,4.7129 0.37305,3.207 c 0.2053,1.7635 0.7121,3.5256 1.125,3.916 0.4132,0.3904 0.4421,-0.41602 0.0664,-1.791 -0.6484,-2.3736 -0.53984,-2.3384 2.127,0.67188 2.4499,2.7656 4.3086,4.0563 4.3086,2.9941 0,-0.1835 -1.8001,-2.2831 -4,-4.666 l -4,-4.332 z m 16.924,1.332 c -0.4739,0 -0.60176,0.675 -0.28516,1.5 0.3166,0.825 0.9636,1.5 1.4375,1.5 0.4739,0 0.60166,-0.675 0.28516,-1.5 -0.3166,-0.825 -0.9636,-1.5 -1.4375,-1.5 z m -18.547,5.3945 c 0.25443,-0.0404 1.0079,0.71183 2.5625,2.3711 1.683,1.7962 3.0606,2.8087 3.0606,2.25 0,-0.5587 0.46887,-1.0156 1.043,-1.0156 0.57413,0 0.93659,0.5625 0.80469,1.25 -0.392,2.0429 1.1946,5.7496 2.4688,5.7656 0.7795,0.0101 0.72047,0.3084 -0.17383,0.875 -0.9458,0.5993 -1.0216,1.0662 -0.25,1.543 0.6087,0.3762 1.1074,0.25602 1.1074,-0.26758 0,-0.5236 0.6188,-1.1883 1.375,-1.4785 0.9387,-0.3602 1.375,0.25772 1.375,1.9492 0,1.6149 -1.1748,3.4147 -3.373,5.1699 v 0.002 c -3.8044,3.0375 -6.3443,3.5231 -8.1758,1.5625 -1.0266,-1.099 -0.70327,-1.2732 1.8281,-0.97852 2.8639,0.3335 5.9707,-1.3968 5.9707,-3.3262 0,-1.6516 -5.2202,-5.9245 -7.0684,-5.7852 -1.062,0.08 -1.9316,0.53 -1.9316,1 0,0.47 1.0125,0.57076 2.25,0.22266 1.5954,-0.4488 1.8482,-0.35589 0.87109,0.32031 -0.758,0.5245 -1.0693,1.453 -0.6914,2.0644 0.9527,1.5414 2.8603,1.4082 1.957,-0.13672 -0.402,-0.6875 0.2469,-0.3935 1.4414,0.6543 2.6005,2.2809 2.5673,2.0284 0.48438,3.7227 -1.4723,1.1976 -1.6061,1.1565 -1.0508,-0.32617 0.4262,-1.1386 0.21352,-1.5376 -0.64258,-1.209 -0.7029,0.2697 -2.1425,-0.70341 -3.1992,-2.1621 -1.0566,-1.4587 -2.4146,-3.1781 -3.0195,-3.8203 -0.8037,-0.8531 -0.7364,-1.5063 0.25,-2.4277 1.0621,-0.9927 1.3496,-0.99679 1.3496,-0.0215 0,0.9595 0.26936,0.96892 1.1934,0.0449 0.924,-0.924 1.7428,-0.68642 3.6348,1.0508 l 2.4434,2.2422 -1.1719,-2.25 c -1.1209,-2.1539 -2.1714,-2.6655 -4.7969,-2.3359 -0.6588,0.0826 -1.716,-0.81805 -2.3496,-2.002 -0.8903,-1.6637 -0.87811,-1.9828 0.0547,-1.4062 0.8725,0.5392 1.0213,0.0862 0.53906,-1.6309 -0.26359,-0.93861 -0.36781,-1.4491 -0.16992,-1.4805 z m 23.682,2.6055 c -0.5824,0 -1.0586,0.45 -1.0586,1 0,0.55 0.19891,1 0.44141,1 0.2425,0 0.71869,-0.45 1.0586,-1 0.33991,-0.55 0.14109,-1 -0.44141,-1 z m -25.748,8.5371 c 0.31552,0.038 1.0828,0.82095 2.5293,2.4629 3.3826,3.8399 4.2662,6.3083 1.2969,3.6211 -1.7764,-1.6076 -1.8526,-1.5684 -1.5938,0.78906 0.1495,1.3622 0.56257,2.9464 0.91797,3.5215 0.406,0.6568 -0.0243,0.80207 -1.1562,0.38867 -1.669,-0.6096 -1.6602,-0.49772 0.10937,1.5176 1.0508,1.1966 1.6133,2.4726 1.25,2.8359 -0.3633,0.3633 -0.66015,0.18241 -0.66015,-0.40039 0,-0.5829 -0.60049,-1.2888 -1.334,-1.5703 -0.9434,-0.362 -1.2825,0.33758 -1.1602,2.3926 0.095,1.5976 -0.23247,2.9043 -0.72657,2.9043 -0.494,0 -0.64293,0.41302 -0.33203,0.91602 0.3109,0.503 0.0212,1.0951 -0.64258,1.3164 -0.9416,0.3126 -0.94276,0.56794 -0.01,1.1445 0.6608,0.40851 1.2012,0.23835 1.2012,-0.37695 0,-0.6149 0.44468,-0.84186 0.98828,-0.50586 0.5669,0.3504 0.73408,-0.0514 0.39258,-0.9414 -0.5774,-1.5047 0.26374,-1.8991 3.6191,-1.6992 1.0066,0.06 1.0888,-0.093 0.25,-0.46485 -1.8766,-0.8321 -1.5066,-2.7006 0.39062,-1.9726 1.367,0.5246 1.4325,0.37684 0.38868,-0.88086 -1.4043,-1.6921 -0.6061,-5.0098 0.9707,-4.0352 0.5577,0.3446 2.2472,-0.22076 3.7559,-1.2559 1.5579,-1.0688 4.037,-1.7612 5.7363,-1.6035 2.1959,0.2036 2.5951,0.0263 1.5,-0.66602 -0.8207,-0.5188 -0.98534,-0.94898 -0.36524,-0.95898 0.6202,-0.008 1.6495,0.61256 2.2871,1.3809 0.6376,0.7682 1.9805,1.1824 2.9844,0.91992 1.0952,-0.2864 2.0754,0.17675 2.4512,1.1562 0.3446,0.8978 0.22141,1.3812 -0.27539,1.0742 -0.4967,-0.307 -1.1316,0.006 -1.4102,0.69726 -0.2785,0.6909 -0.54956,0.35586 -0.60156,-0.74414 -0.074,-1.5698 -0.28603,-1.696 -0.98633,-0.58984 -1.212,1.9146 -0.15228,4.334 1.6035,3.6602 0.7831,-0.3003 1.1678,-0.1341 0.85547,0.3711 -1.0355,1.6756 -5.5446,0.42415 -8.4297,-2.3398 l -2.8438,-2.7246 0.27734,2.5391 c 0.1533,1.3964 1.1688,3.6688 2.2559,5.0508 1.713,2.1778 2.1412,2.3147 3.2129,1.0234 1.3735,-1.6551 3.4665,-2.0667 2.4922,-0.49024 -0.3399,0.55 -0.17918,1 0.35742,1 0.5367,0 1.1764,-0.5625 1.4219,-1.25 0.2456,-0.688 0.75436,-0.96624 1.1309,-0.61914 0.3765,0.347 -0.0395,1.3559 -0.92579,2.2422 -0.8862,0.8862 -1.3348,2.0595 -0.99609,2.6074 0.3556,0.5754 -0.0411,0.74634 -0.9375,0.40234 -0.8536,-0.3276 -1.5508,-1.0734 -1.5508,-1.6562 0,-0.5828 -0.28928,-0.76941 -0.64258,-0.41601 -0.3534,0.3533 -0.10336,1.2927 0.55664,2.0879 0.9354,1.1267 0.92503,1.8871 -0.0469,3.4434 -1.0056,1.61 -0.98817,2.3074 0.0859,3.6016 0.7328,0.8829 1.0429,1.8948 0.68946,2.248 -0.3533,0.3534 -0.64258,0.11816 -0.64258,-0.52344 0,-0.6417 -0.4217,-1.168 -0.9375,-1.168 -1.256,0 -0.93643,4.3054 0.38867,5.2344 0.6735,0.4721 0.57707,0.74 -0.26953,0.75 -0.8605,0.01 -1.0962,0.70922 -0.68164,2.0156 0.4147,1.3064 0.17691,2.0056 -0.68359,2.0156 -0.9679,0.0113 -0.91851,0.27217 0.18359,0.98437 0.9013,0.5825 1.0243,0.97438 0.30859,0.98438 -0.655,0.008 -1.4562,-0.41346 -1.7812,-0.93946 -0.7175,-1.161 -3.5273,-0.22917 -3.5273,1.1699 0,0.5504 0.64098,0.75237 1.4258,0.45117 0.7848,-0.3011 1.974,0.11237 2.6426,0.91797 h 0.004 c 0.6687,0.8056 0.98266,1.699 0.69726,1.9844 -0.2855,0.2854 -0.78142,-0.16841 -1.1035,-1.0078 -0.32209,-0.8395 -1.1872,-1.2956 -1.9219,-1.0137 -0.7347,0.282 -2.4006,-0.61961 -3.7012,-2.0039 -1.9613,-2.0878 -2.6345,-2.3058 -3.9512,-1.2793 -1.3699,1.068 -1.4176,1.0181 -0.3418,-0.36132 1.031,-1.3218 0.84775,-2.0638 -1.0644,-4.2891 -2.2687,-2.6403 -5.6816,-2.8249 -5.6816,-0.30664 0,0.7734 -0.3272,0.76666 -1.1211,-0.0273 -0.6171,-0.6168 -1.698,-0.90231 -2.4004,-0.63281 -0.7023,0.2695 -1.5705,0.0148 -1.9297,-0.56641 -0.4154,-0.6722 0.002,-0.81076 1.1484,-0.38086 1.5925,0.5972 1.6408,0.47724 0.41016,-1.0352 -2.0283,-2.4929 -0.8224,-2.979 1.6582,-0.66796 1.919,1.7879 2.2682,1.8275 3.6777,0.41796 0.8564,-0.8564 1.5566,-1.8398 1.5566,-2.1855 0,-0.3457 -0.53922,-0.0877 -1.1992,0.57226 -1.8218,1.8218 -2.3987,1.462 -2.3477,-1.4668 0.0255,-1.4668 0.68183,-2.8784 1.457,-3.1367 1.0224,-0.3407 1.212,0.0411 0.69336,1.3926 -0.6125,1.596 -0.37415,1.5441 1.6562,-0.36329 3.0425,-2.8583 3.3688,-2.8044 3.166,0.52344 -0.2541,4.1718 -0.34748,4.4164 -1.4258,3.75 -0.55,-0.3399 -1,-0.16719 -1,0.38281 0,0.55 0.45,1.2773 1,1.6172 0.55,0.3399 1,0.1149 1,-0.5 0,-0.6149 0.49892,-0.80989 1.1074,-0.43359 0.7715,0.4768 0.6958,0.94367 -0.25,1.543 -1.4649,0.9282 -1.4553,0.93534 1.8926,1.3066 2.8427,0.3153 2.8795,-0.86046 0.0898,-2.8145 -1.6842,-1.1797 -1.906,-1.8155 -1.0137,-2.8906 1.2575,-1.5152 3.891,-1.609 6.1914,-0.2207 1.2594,0.76 1.2843,0.64865 0.16016,-0.73829 -0.7277,-0.89787 -1.9652,-1.387 -2.75,-1.0859 -0.7848,0.3012 -1.4277,0.0884 -1.4277,-0.47461 0,-2.1627 2.6218,-1.8316 5.4043,0.68359 2.0479,1.8511 2.7244,2.1179 2.293,0.9043 -0.3365,-0.9465 0.0441,-2.3761 0.8457,-3.1777 0.8016,-0.8017 1.4418,-1.8275 1.4238,-2.2793 -0.0183,-0.4518 -0.92999,0.25481 -2.0254,1.5703 -1.0955,1.3154 -2.2902,2.0926 -2.6562,1.7266 -0.366,-0.3661 0.0622,-1.3941 0.95117,-2.2832 1.4886,-1.4886 1.3643,-1.9557 -1.5605,-5.9238 -1.7468,-2.3699 -3.8011,-4.5673 -4.5664,-4.8828 -1.1886,-0.4901 -1.1886,-0.32604 0,1.1348 1.2293,1.5109 1.1799,1.6322 -0.41211,1.0352 -1.1489,-0.4299 -1.5638,-0.29134 -1.1484,0.38086 0.3592,0.5811 1.274,0.81864 2.0332,0.52734 0.9512,-0.365 1.3079,0.15744 1.1484,1.6816 -0.142,1.3571 0.34914,2.2627 1.2695,2.3457 3.2337,0.2902 3.4395,0.46277 1.7422,1.4512 -0.9669,0.5631 -2.199,0.74936 -2.7383,0.41601 -0.5796,-0.35819 -0.71789,0.13217 -0.33789,1.1973 0.4446,1.2464 -0.36922,0.87588 -2.6406,-1.1992 -2.7656,-2.5265 -3.1001,-2.6449 -2.1191,-0.75 0.6406,1.2375 1.5983,2.25 2.1289,2.25 0.5307,0 0.96485,0.52095 0.96485,1.1562 0,0.7325 -0.64,0.59581 -1.75,-0.37109 -0.9625,-0.8385 -2.425,-1.3232 -3.25,-1.0781 -1.1538,0.3428 -1.201,0.23455 -0.20313,-0.46875 1.0301,-0.7261 0.93969,-1.2052 -0.44141,-2.3262 -1.391,-1.1291 -1.5758,-1.1399 -0.91992,-0.0508 0.5045,0.8378 0.29116,1.6993 -0.55664,2.2363 -0.9979,0.6321 -1.0341,0.87572 -0.1289,0.88672 0.6875,0.008 1.25,0.44485 1.25,0.96875 0,0.5234 -1.3119,0.78698 -2.916,0.58398 -2.7299,-0.3455 -2.8918,-0.17447 -2.5312,2.6738 0.3758,2.9693 0.33682,3 -1.584,1.2617 -2.0167,-1.8251 -2.7582,-4.0772 -0.98047,-2.9785 0.5668,0.3504 0.73407,-0.0514 0.39258,-0.9414 -0.33921,-0.8839 -0.0655,-1.5527 0.63476,-1.5527 0.9445,0 0.95859,-0.32565 0.0586,-1.4102 -0.8143,-0.9811 -0.84792,-1.6126 -0.10742,-2.0703 0.5857,-0.3619 0.76343,-1.1452 0.39453,-1.7422 -0.4311,-0.6975 -0.1968,-0.79358 0.6543,-0.26758 0.9617,0.5944 1.1492,0.36259 0.68555,-0.84571 -0.3512,-0.9152 -0.17653,-1.6641 0.38867,-1.6641 0.5652,0 0.7343,-0.47524 0.375,-1.0566 -1.2914,-2.0895 -1.1918,-6.1106 0.16406,-6.6309 0.7543,-0.2895 1.3711,-0.95491 1.3711,-1.4785 0,-0.52359 -0.45,-0.67389 -1,-0.33399 -0.55,0.3399 -1,0.16914 -1,-0.38086 0,-0.55 0.40785,-1.2525 0.90625,-1.5605 0.4984,-0.308 0.6665,-1.5716 0.375,-2.8086 -0.19338,-0.82062 -0.22002,-1.2424 0.0254,-1.2129 z m 18.561,1.5039 c -0.0659,-0.009 -0.12575,-0.007 -0.17968,0.006 -0.0616,0.0141 -0.11495,0.0427 -0.15821,0.0859 -0.3462,0.3462 0.0831,1.3408 0.95313,2.2109 1.2722,1.2722 2.0658,1.3625 4.0488,0.45899 3.1375,-1.4296 3.1572,-2.5527 0.0449,-2.5527 -1.7955,0 -2.279,0.4196 -1.8672,1.625 0.3813,1.1161 0.0704,0.99947 -0.99609,-0.37305 -0.65385,-0.84157 -1.3844,-1.4007 -1.8457,-1.4609 z m -0.22851,8.3144 c -2.2482,0.1375 -2.2831,0.24788 -0.75,2.3633 1.8791,2.5929 2.5578,2.8966 1.7461,0.78125 -0.3166,-0.825 -0.14012,-1.5 0.39258,-1.5 0.5327,0 0.96875,-0.40273 0.96875,-0.89453 0,-0.4918 -1.0606,-0.829 -2.3574,-0.75 z m -4.2559,2.6309 c 0.47194,-0.0251 1.7726,0.98205 2.9102,2.5449 0.988,1.3577 1.4382,2.4526 1,2.4316 -0.8319,-0.0398 -2.3471,-1.5814 -3.6504,-3.7129 -0.52758,-0.86284 -0.54292,-1.2486 -0.25976,-1.2637 z m -12.387,3.0137 c 0.55,0 1,0.45 1,1 0,0.55 -0.45,1 -1,1 -0.55,0 -1,-0.45 -1,-1 0,-0.55 0.45,-1 1,-1 z m 11,2 c 0.55,0 1,0.45 1,1 0,0.55 -0.45,1 -1,1 -0.55,0 -1,-0.45 -1,-1 0,-0.55 0.45,-1 1,-1 z m -4.6777,0.20508 c -0.20615,-0.0261 -0.32227,0.11443 -0.32227,0.42773 0,0.5684 0.29935,1.3346 0.66601,1.7012 0.3667,0.3667 0.8995,0.43459 1.1836,0.15039 0.2842,-0.2841 -0.0152,-1.0503 -0.66602,-1.7012 -0.3588,-0.35875 -0.65524,-0.55199 -0.86132,-0.57813 z m -0.32227,7.7949 c 0.55,0 1,0.45 1,1 0,0.55 -0.45,1 -1,1 -0.55,0 -1,-0.45 -1,-1 0,-0.55 0.45,-1 1,-1 z m 7.0352,4.3574 c -0.15636,-0.008 -0.31401,-0.008 -0.47266,0.002 -1.2691,0.0771 -2.1142,0.64692 -1.877,1.2656 0.2373,0.6188 1.496,1.125 2.7949,1.125 1.4936,0 2.1821,-0.46542 1.875,-1.2656 -0.23363,-0.60883 -1.2258,-1.0721 -2.3203,-1.127 z m -4.4395,1.6543 c -0.4977,-0.006 -0.20265,0.77578 0.65625,1.7383 1.3196,1.4789 1.3492,1.9452 0.18946,3.0078 -0.7545,0.6916 -1.1159,1.9291 -0.80079,2.75 v 0.002 c 0.7275,1.8934 1.7817,1.8913 3.3594,-0.01 0.7516,-0.9056 0.83248,-1.5 0.20508,-1.5 -0.5715,0 -1.2656,0.5625 -1.543,1.25 -0.3637,0.9013 -0.52699,0.9174 -0.58399,0.0586 -0.1352,-2.0395 2.1649,-2.6957 3.4219,-0.97657 0.6585,0.9005 1.4861,1.3498 1.8379,0.99805 0.7214,-0.7214 -5.341,-7.3024 -6.7422,-7.3184 z m 4.8652,1.4141 c -0.13339,-0.008 -0.24467,0.0259 -0.32422,0.10547 -0.3182,0.3182 0.0835,0.99611 0.89258,1.5078 2.117,1.3388 2.3938,1.1758 0.95117,-0.5625 -0.52185,-0.62872 -1.1194,-1.026 -1.5195,-1.0508 z m -13.074,0.55664 c 0.52885,-0.10397 1.6891,0.88727 2.4356,2.5254 1.0195,2.2376 0.81024,2.8038 -1.9395,5.25 -1.6952,1.508 -3.6011,2.7488 -4.2344,2.7598 -0.6333,0.0105 -2.2638,0.798 -3.623,1.75 -1.3587,0.952 -1.9465,1.7324 -1.3066,1.7324 0.6399,0 1.4414,-0.45 1.7812,-1 1.2158,-1.9671 2.2325,-0.94995 1.9004,1.9024 -0.2177,1.8697 0.27366,3.3826 1.3809,4.25 1.4841,1.1627 1.5729,1.1426 0.64648,-0.15235 -1.3576,-1.8977 -1.6075,-6 -0.36523,-6 0.5158,0 0.97548,0.3375 1.0215,0.75 0.0459,0.4125 0.19122,1.7158 0.32422,2.8965 0.1331,1.1807 1.0552,2.9594 2.0488,3.9531 1.7422,1.7422 1.7817,1.7282 1.1074,-0.39648 -0.4227,-1.3318 -0.27596,-2.2031 0.36914,-2.2031 0.5871,0 1.0664,0.4762 1.0664,1.0586 0,0.5825 0.48999,0.75621 1.0879,0.38671 0.5937,-0.3696 0.86515,-1.5206 0.59375,-2.5586 -0.2715,-1.0379 -0.0864,-1.8867 0.41211,-1.8867 0.8877,0 1.274,1.3859 1.0098,3.6191 -0.0804,0.6797 1.0782,0.98057 2.9414,0.76367 2.746,-0.3198 2.9116,-0.19679 1.5566,1.1582 -0.8339,0.834 -1.2601,2.1827 -0.94726,2.998 0.4193,1.0924 0.10137,1.3029 -1.207,0.80079 -1.3544,-0.5197 -1.5729,-0.34307 -0.91993,0.74023 0.738,1.2259 0.61669,1.2268 -0.88281,0.01 -1.3572,-1.1017 -1.457,-1.5873 -0.45117,-2.209 1.0303,-0.6369 1.0394,-1.0465 0.041,-2.0449 -0.9984,-0.9984 -1.5903,-0.90787 -2.9551,0.45703 -0.9389,0.9389 -1.2107,1.709 -0.60157,1.709 0.609,1e-5 1.3919,0.73783 1.7383,1.6406 0.52671,1.3725 0.38083,1.4338 -0.89257,0.37695 -1.7945,-1.4893 -2.0719,0.0335 -0.32422,1.7812 0.9334,0.9333 0.9334,1.2012 0,1.2012 -0.66,0 -1.1992,0.4341 -1.1992,0.9668 0,0.5328 0.74876,0.68128 1.6641,0.33008 1.037,-0.3979 1.4185,-0.23848 1.0117,0.41992 -0.3592,0.5811 0.0995,1.6682 1.0215,2.418 1.4481,1.1778 1.5959,1.1465 1.0781,-0.23828 -0.8691,-2.324 2.4236,-4.9792 4.0352,-3.2539 0.6619,0.7083 1.8304,1.0475 2.5957,0.75391 0.7653,-0.2937 1.6512,-0.11341 1.9688,0.40039 0.3244,0.5247 -0.72664,0.78259 -2.3984,0.58789 -1.637,-0.1906 -2.9766,0.0936 -2.9766,0.63281 0,0.5393 0.5625,0.9861 1.25,0.9961 0.8359,0.0103 0.7531,0.3416 -0.25,1 -1.3333,0.8753 -1.3333,1.104 0,2.0605 1.3334,0.9566 1.3334,1.0306 0,0.66407 -0.825,-0.2267 -1.5608,-1.0485 -1.6348,-1.8262 -0.0741,-0.7776 -0.187,-1.9746 -0.25,-2.6621 -0.0635,-0.6875 -0.515,-1.25 -1.0039,-1.25 -0.4889,10e-6 -0.826,0.78752 -0.75,1.75 0.0764,0.9625 -0.53633,1.8088 -1.3613,1.8828 -0.82497,0.074 -2.0625,0.187 -2.75,0.25 -0.6875,0.0634 -1.25,0.61375 -1.25,1.2226 0,0.6084 0.64098,0.86175 1.4258,0.56055 0.7848,-0.3011 1.9712,0.10675 2.6348,0.90625 0.6636,0.7996 1.9251,1.3342 2.8047,1.1894 2.1562,-0.35479 2.4155,4.1786 0.37305,6.4883 -0.85201,0.96156 -1.9984,1.748 -2.5469,1.748 -0.5489,0 -0.11958,-0.7875 0.95312,-1.75 2.3497,-2.1082 3.132,-7.1395 0.81055,-5.2129 -0.788,0.6539 -1.1429,1.6579 -0.78907,2.2305 0.3647,0.5901 0.16076,0.74252 -0.46874,0.35352 -0.61152,-0.3776 -0.86325,-1.3323 -0.56055,-2.1211 0.4364,-1.1371 -0.24527,-1.3361 -3.293,-0.96679 -2.1142,0.2561 -3.3827,0.12704 -2.8184,-0.28516 1.522,-1.1118 1.1789,-14.695 -0.41992,-16.621 -0.733,-0.88328 -1.759,-1.3424 -2.2812,-1.0195 -0.5224,0.3228 -1.7198,-0.10798 -2.6602,-0.95898 -1.176,-1.0644 -2.1714,-1.2526 -3.1875,-0.59961 -1.262,0.811 -1.2723,1.0821 -0.0684,1.8574 0.7752,0.4991 2.0127,0.67548 2.75,0.39258 1.3123,-0.5036 1.7858,0.75468 1.3711,3.6465 -0.1728,1.2055 0.0559,1.2283 1.3711,0.13672 0.8674,-0.7202 1.2875,-1.779 0.93359,-2.3516 -0.3539,-0.5727 -0.2149,-0.77477 0.3086,-0.45117 1.5671,0.9685 1.0377,6.2046 -0.64258,6.3555 -0.825,0.074 -2.0625,0.187 -2.75,0.25 -0.6875,0.0634 -1.2444,1.3527 -1.2344,2.8652 0.0107,1.923 0.2739,2.3414 0.875,1.3926 0.5993,-0.9458 1.0662,-1.0215 1.543,-0.25 0.3763,0.6088 1.22,1.1018 1.875,1.0918 0.7157,-0.009 0.59271,-0.40188 -0.30859,-0.98438 -1.3018,-0.8413 -1.2824,-0.97333 0.14453,-0.98633 1.1128,-0.0104 1.598,0.76172 1.5,2.3867 -0.1207,2.0095 -0.44458,2.2399 -1.9883,1.4141 -1.4245,-0.76197 -2.4041,-0.46133 -4.3027,1.3223 -2.0495,1.9254 -2.6077,2.07 -3.3535,0.86328 -0.4919,-0.7961 -0.53626,-1.6851 -0.0977,-1.9746 0.4387,-0.2895 1.3555,-1.5836 2.0371,-2.877 1.0919,-2.072 0.93154,-2.6736 -1.3516,-5.0566 -2.3255,-2.4273 -2.4451,-2.9043 -1.166,-4.6484 1.2455,-1.6982 1.2221,-2.1696 -0.1914,-3.7363 -1.4949,-1.6575 -1.4884,-1.7436 0.0879,-1.1387 1.2856,0.4933 1.5514,0.25455 1.082,-0.96875 -0.4467,-1.1641 -0.19668,-1.4587 0.88672,-1.043 0.8306,0.3188 1.8049,0.10269 2.1641,-0.47851 0.3876,-0.6272 0.0623,-0.8304 -0.79883,-0.5 -1.9983,0.7668 -3.0903,-1.3456 -1.6152,-3.123 0.9301,-1.1203 0.93217,-1.4551 0.0137,-1.4551 -0.779,0 -0.66176,-0.5316 0.33594,-1.5293 0.8409,-0.84101 1.293,-2.1449 1.0039,-2.8984 -0.2892,-0.7534 0.002,-1.6984 0.64844,-2.0977 0.893,-0.5522 0.88364,-0.90431 -0.0391,-1.4746 -0.7172,-0.4432 -0.0639,-0.75 1.5977,-0.75 h 2.8125 l -2.2051,1.7852 c -1.2127,0.9819 -2.2051,2.1045 -2.2051,2.4961 0,0.3917 0.68584,0.14432 1.5234,-0.55078 1.2734,-1.0568 1.4193,-0.99555 0.89257,0.37695 -0.36209,0.9435 -0.13504,1.6426 0.53516,1.6426 0.6413,0 0.84563,-0.52125 0.45313,-1.1562 -0.4421,-0.7153 -0.2739,-0.88155 0.4414,-0.43945 0.635,0.3924 1.1543,0.2368 1.1543,-0.3457 0,-0.5824 -0.47609,-1.0586 -1.0586,-1.0586 -0.58251,0 -0.77715,-0.45858 -0.43164,-1.0176 1.0029,-1.6228 2.7143,0.0544 2.1719,2.1289 -0.6531,2.4973 0.44435,2.3907 2.7188,-0.26562 1.4407,-1.6826 1.5048,-2.0248 0.29492,-1.5606 -0.8518,0.3269 -2.1454,-0.1379 -2.873,-1.0332 -1.1371,-1.399 -1.0834,-1.537 0.37695,-0.99023 1.215,0.4549 1.5401,0.2234 1.1426,-0.8125 -0.3633,-0.9468 -0.27239,-1.4044 0.0449,-1.4668 z m 6.6133,2.0176 c -0.55,0 -1,0.45 -1,1 0,0.55 0.45,1 1,1 0.55,0 1,-0.45 1,-1 0,-0.55 -0.45,-1 -1,-1 z m -9.4414,6 c -0.2425,0 -0.71869,0.45 -1.0586,1 -0.33991,0.55 -0.14109,1 0.44141,1 0.5825,0 1.0586,-0.45 1.0586,-1 0,-0.55 -0.19881,-1 -0.44141,-1 z m -3.3613,0.0156 c -0.53819,0.0539 -1.2071,0.56855 -1.5391,1.4336 -0.3716,0.968 -0.076,1.2642 0.89258,0.89258 0.7969,-0.3059 1.4492,-0.95802 1.4492,-1.4492 0,-0.5391 -0.24502,-0.81633 -0.58203,-0.87109 -0.0702,-0.0114 -0.14383,-0.0136 -0.2207,-0.006 z m 8.207,1 c 0.6023,0.008 0.4341,0.43371 -0.375,0.94531 -0.8091,0.5117 -1.1095,1.2928 -0.66797,1.7344 0.4416,0.4415 1.4928,-0.0981 2.3359,-1.1973 0.8432,-1.0991 1.3405,-1.3512 1.1055,-0.56055 -0.4203,1.4142 2.9443,5.6495 3.8047,4.7891 0.2425,-0.2424 -0.24568,-1.0094 -1.084,-1.7051 -0.8383,-0.6958 -1.5234,-1.7156 -1.5234,-2.2656 0,-0.55 0.7595,-0.38185 1.6875,0.37305 1.4948,1.2159 1.604,1.1499 0.95703,-0.57227 -0.7122,-1.896 -0.6801,-1.899 1.3125,-0.0957 1.1237,1.0169 2.0078,2.343 1.9648,2.9453 -0.0456,0.6321 -0.29278,0.56525 -0.58398,-0.15625 -0.8103,-2.0082 -1.9076,-1.4414 -1.9356,1 -0.0142,1.2375 0.45136,2.5803 1.0352,2.9844 0.7126,0.4932 0.66456,0.74 -0.14844,0.75 -0.6661,0.008 -2.0945,-0.93135 -3.1738,-2.0898 -1.9424,-2.0848 -4.6604,-1.7591 -3.8105,0.45703 0.2478,0.6462 -0.59714,1.212 -1.9316,1.293 -2.8863,0.1755 -3.1374,-1.2671 -0.37305,-2.1445 1.1,-0.3491 2,-1.1092 2,-1.6894 0,-0.6331 -0.63047,-0.53098 -1.5762,0.2539 -1.305,1.083 -1.7262,1.0643 -2.4492,-0.10546 -0.938,-1.5177 1.4576,-4.9714 3.4297,-4.9434 z m 12.717,4.0391 c 0.85007,0.0927 1.5791,1.3755 1.2227,2.7383 -0.2575,0.985 -1.453,1.8404 -2.6562,1.8984 -1.2033,0.0584 -1.6226,-0.11301 -0.93164,-0.37891 0.6904,-0.2659 0.9592,-0.96473 0.5957,-1.5527 -0.3755,-0.6076 -0.19307,-0.77974 0.42383,-0.39844 0.597,0.369 1.3694,0.21525 1.7148,-0.34375 0.3455,-0.559 0.0765,-1.0176 -0.59765,-1.0176 -0.6746,0 -0.955,-0.26961 -0.625,-0.59961 0.27467,-0.27467 0.57016,-0.37659 0.85351,-0.3457 z m 8.123,1.1328 c -0.15452,-0.005 -0.0883,0.49849 0.0762,1.332 l 0.19922,-1.1367 c -0.11863,-0.11426 -0.21569,-0.19328 -0.27539,-0.19531 z m -15.303,5.8125 c -0.5825,0 -0.78131,0.45 -0.44141,1 0.3399,0.55 0.81609,1 1.0586,1 0.2426,0 0.44141,-0.45 0.44141,-1 0,-0.55 -0.47609,-1 -1.0586,-1 z m 6.582,1.25 c 1.4079,0 2.3548,0.20373 2.1055,0.45313 -0.7868,0.7867 -5.5949,1.051 -5.1191,0.28125 0.24968,-0.4039 1.6057,-0.73438 3.0137,-0.73438 z m -22.164,2.0977 c -0.81911,0.069 -0.76575,0.40561 -0.0469,1.2246 1.4703,1.6751 1.2502,1.6587 2.4785,0.17773 0.7763,-0.9359 0.44605,-1.2855 -1.3144,-1.3906 -0.47467,-0.0283 -0.84415,-0.0347 -1.1172,-0.0117 z m 20.852,0.72656 c 0.12954,0.004 0.23747,0.0422 0.31445,0.11914 0.3079,0.3079 -0.24622,0.86669 -1.2324,1.2422 -1.4252,0.5427 -1.5408,0.42902 -0.56055,-0.5586 0.50873,-0.51255 1.0899,-0.81416 1.4785,-0.80273 z m -22.914,0.92773 c -1.2541,0 -1.1165,0.42201 0.63086,1.9375 v -0.002 c 2.1399,1.8565 5.0723,1.8318 5.0723,-0.043 0,-1.3972 -1.9972,-1.0458 -2.0312,0.35742 -0.0169,0.69372 -0.48313,0.4712 -1.0488,-0.5 -0.5606,-0.96249 -1.7412,-1.75 -2.623,-1.75 z m 7.7031,0.99805 c -0.55,0 -1,0.45 -1,1 0,0.55 0.45,1 1,1 0.55,0 1,-0.45 1,-1 0,-0.55 -0.45,-1 -1,-1 z m -9.5156,2.4648 c 0.2263,0.0212 0.69416,0.25597 1.4102,0.70312 1.1575,0.7229 2.1059,1.5421 2.1055,1.8223 -4e-4,0.2802 -1.1954,0.57906 -2.6543,0.66406 -1.6702,0.0968 -2.1779,-0.14007 -1.3711,-0.63867 0.7048,-0.4356 0.95183,-1.3245 0.54883,-1.9766 -0.2493,-0.40335 -0.26537,-0.59544 -0.0391,-0.57421 z m 14.516,2.5371 c -0.55,0 -1,0.45002 -1,1 0,0.55003 0.45,1 1,1 0.55,0 1,-0.45 1,-1 0,-0.55 -0.45,-1 -1,-1 z m -13.584,2.4531 c 0.23179,0.0465 0.27328,0.23776 0.0762,0.55664 -0.336,0.5437 -1.0333,0.98828 -1.5508,0.98828 -1.4384,0 -1.1212,-0.71606 0.61132,-1.3809 0.22248,-0.0854 0.41302,-0.13866 0.57032,-0.16211 0.11797,-0.0176 0.21574,-0.0174 0.29296,-0.002 z m 3.2969,1.0098 c -0.40539,0.0215 -0.82812,0.39488 -1.0566,0.99023 -0.3694,0.9623 -0.0722,1.2596 0.89453,0.88867 1.6798,-0.6446 1.7948,-1.0109 0.55469,-1.7773 -0.1231,-0.0761 -0.25745,-0.10872 -0.39258,-0.10156 z m 11.846,1.5371 c -0.2425,0 -0.71869,0.45002 -1.0586,1 -0.3399,0.55003 -0.14109,1 0.44141,1 0.5825,0 1.0586,-0.45 1.0586,-1 0,-0.55 -0.19881,-1 -0.44141,-1 z m -8.0605,0.29297 c 0.0847,-3.2e-4 0.14919,0.0203 0.19336,0.0645 0.3534,0.3533 0.0921,0.64257 -0.58204,0.64257 -0.6737,0 -0.95986,0.42908 -0.63476,0.95508 0.3251,0.526 1.3637,0.67809 2.3086,0.33789 1.0479,-0.3773 0.6442,0.4014 -1.0332,1.9961 -3.0624,2.9115 -3.5396,4.2277 -1.2109,3.334 0.875,-0.3357 1.7836,0.0486 2.1074,0.89258 0.3131,0.8157 1.0184,1.4844 1.5684,1.4844 0.55,10e-6 0.70285,-0.775 0.33985,-1.7207 -0.3629,-0.9457 -0.29902,-1.3576 0.14258,-0.91601 1.3714,1.3714 0.97093,8.4465 -0.44727,7.9023 -1.2494,-0.4795 -1.5646,-1.4446 -1.3965,-4.2656 0.0606,-1.0159 -0.09,-1.0949 -0.46679,-0.24414 -0.306,0.691 -1.0802,0.9426 -1.7207,0.5586 -0.6405,-0.384 -0.53933,0.0737 0.22657,1.0176 0.7659,0.9439 1.1676,1.9398 0.89258,2.2148 -0.27502,0.275 -1.1084,-0.23306 -1.8535,-1.1309 -1.1545,-1.391 -1.1017,-1.8179 0.35742,-2.8848 2.301,-1.6825 2.1638,-2.0312 -0.79883,-2.0313 -1.7342,0 -2.3453,0.42973 -1.9766,1.3906 0.4477,1.1663 0.27454,1.1764 -1.0723,0.0586 -1.8276,-1.5168 -5.4414,-2.0369 -5.4414,-0.7832 0,0.4581 0.831,0.83404 1.8457,0.83398 1.0148,0 2.6764,0.91937 3.6934,2.043 1.798,1.9879 1.798,2.0238 -0.01,1.3301 -1.3319,-0.5111 -1.642,-0.36437 -1.0957,0.51953 0.4349,0.7036 0.0102,2.0645 -0.99023,3.1699 -0.9641,1.0654 -1.2815,1.9375 -0.70508,1.9375 1.8658,0 2.4455,3.3165 0.74609,4.2676 -1.1988,0.6708 -1.3214,1.2236 -0.49218,2.2227 0.7755,0.9347 0.78726,1.5259 0.0391,1.9883 -0.5857,0.3619 -0.76148,1.1471 -0.39258,1.7441 0.4004,0.6478 0.20473,0.79698 -0.48437,0.3711 -0.6349,-0.3924 -1.1543,-0.2629 -1.1543,0.2871 0,0.55 0.48086,1.2972 1.0684,1.6602 0.5877,0.3631 0.83137,1.2756 0.54297,2.0273 -0.5842,1.5224 0.93749,2.7691 3.6211,2.9668 2.0269,0.1494 2.2577,-0.6465 0.6543,-2.25 -2.7693,-2.7692 2.4939,-3.657 5.8926,-0.99414 0.9085,0.7117 1.9418,0.37987 3.5644,-1.1445 1.2568,-1.1808 2.6543,-2.1484 3.1055,-2.1484 0.4513,0 -0.36525,0.93432 -1.8144,2.0742 -3.4567,2.719 -3.3357,3.9692 0.34179,3.541 1.6369,-0.1906 2.7695,-0.013 2.5176,0.39453 -0.8904,1.4408 -5.4332,0.71513 -7.1074,-1.1348 -1.9013,-2.1009 -3.9152,-2.5579 -2.7539,-0.625 0.4969,0.8271 0.17066,0.77882 -0.96484,-0.14258 -0.9439,-0.7659 -1.9418,-1.1656 -2.2168,-0.89062 -0.275,0.27498 0.16742,1.0521 0.98242,1.7285 1.2984,1.0775 1.2588,1.4707 -0.32422,3.1699 -1.2148,1.3035 -2.4308,1.7046 -3.709,1.2246 -1.6982,-0.6376 -1.7499,-0.52837 -0.49023,1.0195 0.7922,0.9733 2.0928,1.4709 2.9688,1.1348 0.8576,-0.3291 1.1994,-0.23837 0.75781,0.20313 -0.4416,0.4416 -2.4696,0.80273 -4.5059,0.80273 -2.8273,0 -3.7031,-0.40424 -3.7031,-1.7109 0,-1.5792 0.13891,-1.5854 1.7871,-0.0937 0.9822,0.8889 1.7852,1.1223 1.7852,0.51954 0,-0.60276 -0.42827,-1.3604 -0.95117,-1.6836 -0.5232,-0.3231 -0.74464,-2.1885 -0.49414,-4.1445 0.3275,-2.5581 0.10172,-3.4372 -0.80078,-3.1328 -0.6901,0.2328 -1.2539,1.4112 -1.2539,2.6172 0,1.206 -0.50128,2.5146 -1.1133,2.9102 -1.1687,0.755 -1.2487,4.0169 -0.14258,5.8066 0.3574,0.5783 2.6817,0.9437 5.166,0.8125 l 4.5176,-0.23828 -2.0332,2.1699 c -1.9136,2.0411 -2.1104,2.0644 -3.3242,0.41797 -1.6466,-2.2334 -2.9838,-2.2672 -2.1348,-0.0547 0.5701,1.4857 0.39977,1.466 -1.3906,-0.15429 -2.0176,-1.8258 -2.0367,-1.8101 -1.6738,1.3066 0.422,3.6246 0.32728,3.7081 -1.7988,1.582 -2.0373,-2.0373 -1.9876,-2.5224 0.17773,-1.7109 1.5325,0.5743 1.5807,0.44635 0.37891,-1.0312 -0.8859,-1.089 -0.97636,-1.6855 -0.25586,-1.6856 0.6973,0 0.94571,-1.3315 0.66211,-3.5469 -0.3199,-2.4984 -0.0247,-3.7124 1,-4.1055 0.8001,-0.307 1.2004,-0.96745 0.89062,-1.4688 -0.3099,-0.5013 -1.0946,-0.60311 -1.7441,-0.22461 -0.6495,0.3785 -0.36524,-0.2414 0.63086,-1.3789 1,-1.1375 1.4462,-2.2659 1,-2.5078 -0.4461,-0.2419 -0.25,-0.30432 0.4375,-0.13672 0.6875,0.1676 1.25,-0.0401 1.25,-0.46289 0,-0.4227 -0.5625,-1.3348 -1.25,-2.0273 -1.0022,-1.0097 -0.9031,-1.1278 0.5,-0.59375 1.677,0.6385 2.5501,-0.93388 1,-1.8008 -0.4125,-0.2303 -0.12262,-0.25805 0.64258,-0.0605 1.1317,0.292 1.1572,0.0773 0.13672,-1.1523 -0.6901,-0.8315 -1.5424,-1.3355 -1.8926,-1.1191 -0.3502,0.2164 -0.63672,-1.1062 -0.63672,-2.9395 0,-3.18 0.0864,-3.2557 1.8516,-1.6582 1.5375,1.391 1.8126,1.4223 1.6309,0.17969 -0.4372,-2.989 0.0403,-5.1001 1.0176,-4.4961 0.55,0.33993 1,0.1411 1,-0.4414 0,-1.6517 -1.7806,-1.2446 -3.0254,0.6914 -1.0716,1.6667 -1.0983,1.6667 -0.58008,0 0.6623,-2.1299 -0.94656,-2.359 -1.7559,-0.25 -0.3166,0.825 -1.0712,1.5 -1.6777,1.5 -0.6125,0 -0.41554,-0.68797 0.44336,-1.5469 0.9091,-0.909 1.4053,-2.7639 1.2031,-4.5 -0.1891,-1.6244 0.0737,-2.9531 0.58399,-2.9531 0.5103,0 0.64849,-0.45 0.30859,-1 -0.8654,-1.4002 0.84968,-1.2519 2.3008,0.19922 0.66,0.66 1.1992,0.90257 1.1992,0.53907 0,-0.3636 -0.92208,-1.5208 -2.0508,-2.5723 -1.7962,-1.6734 -1.8532,-1.9886 -0.44922,-2.5273 1.0593,-0.4065 1.3615,-0.22203 0.88867,0.54297 -0.4872,0.7882 -0.14941,0.94016 1.0586,0.47656 1.2566,-0.4807 1.6239,-0.28408 1.2578,0.66992 -0.2854,0.7437 -0.15233,1.9469 0.29687,2.6738 0.6614,1.0701 1.1168,1.0218 2.3906,-0.25196 0.8651,-0.86509 2.1425,-1.7746 2.8398,-2.0234 0.6974,-0.2488 0.93459,-0.8114 0.52539,-1.25 -0.4091,-0.4386 -1.5709,-0.05 -2.5801,0.86328 -3.3278,3.0116 -3.6239,1.7265 -0.34179,-1.4824 1.5468,-1.5123 3.0691,-2.5622 3.6621,-2.5645 z m 6.3516,4.0293 c 0.82099,0.0409 0.81158,0.27744 0.0527,0.75781 -1.7317,1.0964 -2.6461,1.1429 -3.248,0.16797 -0.2547,-0.4125 0.6891,-0.81734 2.0957,-0.90234 0.46095,-0.0277 0.82595,-0.0371 1.0996,-0.0234 z m 1.3613,4.75 c 0.12954,0.004 0.23747,0.0422 0.31445,0.11914 0.3079,0.3079 -0.24622,0.86864 -1.2324,1.2441 -1.4252,0.5427 -1.5408,0.42707 -0.56055,-0.56055 0.50873,-0.51255 1.0899,-0.81416 1.4785,-0.80273 z m -16.211,2.2012 c -2.0826,0.1568 -2.515,0.8776 -1.2715,2.1211 0.40101,0.4011 0.89004,0.24795 1.0859,-0.33985 0.1959,-0.5875 0.76849,-0.81285 1.2715,-0.50195 0.5031,0.3109 0.91406,0.11656 0.91406,-0.43164 0,-0.5483 -0.9,-0.93066 -2,-0.84766 z m 17.111,0.18946 c 0.3624,-0.0691 0.59101,0.45985 0.52539,1.2969 -0.0854,1.083 0.51846,1.6866 1.6016,1.6016 0.9565,-0.0754 1.4751,0.29296 1.1504,0.81836 -0.3247,0.5254 -1.271,0.69576 -2.1016,0.37696 -1.0503,-0.403 -1.3331,-0.11956 -0.92969,0.93164 0.319,0.8312 0.36913,1.5117 0.11133,1.5117 -1.0731,10e-6 -1.5418,-5.837 -0.51953,-6.4687 0.0568,-0.0351 0.11034,-0.0585 0.16211,-0.0684 z m -10.686,4.043 c 0.326,0.0427 0.82855,0.31729 1.4707,0.89844 1.2267,1.1102 2.0818,1.3335 2.4238,0.63086 0.3212,-0.6589 0.43707,-0.60865 0.29297,0.12695 -0.3415,1.7434 -1.9916,2.0592 -3.4004,0.65039 -1.3688,-1.3689 -1.5043,-2.4006 -0.78711,-2.3066 z m -1.8906,0.89063 c 0.10159,-0.0242 0.1945,-7.8e-4 0.27148,0.0762 0.3079,0.3079 -1.9e-4,1.1146 -0.68359,1.793 -0.9876,0.9802 -1.1013,0.86465 -0.5586,-0.56055 0.28163,-0.73965 0.66593,-1.2361 0.97071,-1.3086 z m 15.881,2.0566 c 0.23179,0.0465 0.27328,0.23776 0.0762,0.55664 -0.336,0.5437 -1.0333,0.99029 -1.5508,0.99023 -1.4384,0 -1.1212,-0.71801 0.61132,-1.3828 0.22248,-0.0854 0.41302,-0.13866 0.57032,-0.16211 0.11797,-0.0176 0.21574,-0.0174 0.29296,-0.002 z m -4.2051,0.61914 c 0.12954,0.004 0.23747,0.0422 0.31445,0.11914 0.3079,0.3079 -0.24622,0.86864 -1.2324,1.2441 -1.4252,0.5427 -1.5408,0.42707 -0.56055,-0.56055 0.50873,-0.51254 1.0899,-0.81416 1.4785,-0.80273 z m 12.008,0.98242 c -0.0107,0.0107 0.005,0.0551 0.0156,0.0937 l 0.0137,-0.084 c -0.007,2.6e-4 -0.0254,-0.0136 -0.0293,-0.01 z m -23.697,0.31836 c 0.20272,-0.0398 0.58644,0.30519 1.2344,0.95313 0.8859,0.8859 1.673,2.4692 1.75,3.5176 0.1025,1.3904 -0.51606,1.9063 -2.2891,1.9062 -1.3365,0 -1.9797,-0.28119 -1.4297,-0.625 0.5499,-0.3437 0.85413,-1.9271 0.67773,-3.5176 -0.16582,-1.4956 -0.204,-2.1832 0.0566,-2.2344 z m -5.0215,0.87695 c -2.0395,0 -2.3138,0.26982 -1.3965,1.375 0.62762,0.75631 1.2562,1.375 1.3965,1.375 0.1403,0 0.76888,-0.61868 1.3965,-1.375 0.9172,-1.1052 0.64312,-1.375 -1.3965,-1.375 z m 17.711,5.8223 c 0.12954,0.004 0.23747,0.0422 0.31445,0.11914 0.3079,0.3079 -0.24622,0.86864 -1.2324,1.2441 -1.4252,0.5427 -1.5408,0.42707 -0.56055,-0.56055 0.50873,-0.51254 1.0899,-0.81416 1.4785,-0.80273 z m -11.08,1.2344 c 3.1037,0 3.4856,0.2175 2.3574,1.3457 -1.5709,1.571 -2.8869,1.8016 -1.9883,0.34765 0.3399,-0.55 0.14109,-1 -0.44141,-1 -0.5824,0 -1.0586,0.40148 -1.0586,0.89258 0,0.4912 -0.57796,1.1153 -1.2852,1.3867 -0.7427,0.285 -1.2871,-0.23933 -1.2871,-1.2402 0,-1.3315 0.85703,-1.7324 3.7031,-1.7324 z m -2.1309,8.6934 c -0.55,0 -1,0.45002 -1,1 0,0.55003 0.45,1 1,1 0.55,0 1,-0.45 1,-1 0,-0.55 -0.45,-1 -1,-1 z m 4.5,1 c 0.825,0 1.5,0.4762 1.5,1.0586 0,0.5825 -0.44458,0.78326 -0.98828,0.44726 -0.5669,-0.3504 -0.73408,0.0514 -0.39258,0.94141 0.3275,0.8535 1.0233,1.5528 1.5469,1.5527 0.52361,0 0.67389,-0.45 0.33399,-1 -0.3399,-0.55 -0.18836,-1 0.33594,-1 0.5243,0 0.88759,1.0663 0.80859,2.3711 -0.1009,1.6609 -0.59443,2.2043 -1.6445,1.8125 -1.2879,-0.4806 -1.3054,-0.3199 -0.12695,1.1289 0.9678,1.1898 1.0226,1.6875 0.18945,1.6875 -0.6502,10e-6 -0.93125,0.40214 -0.62695,0.89454 0.3043,0.4924 -0.21766,1.191 -1.1602,1.5527 -0.943,0.3619 -1.3948,0.33817 -1.0039,-0.0527 0.391,-0.391 0.15155,-1.3991 -0.53125,-2.2402 -1.0309,-1.2701 -0.96483,-1.4268 0.38477,-0.92187 1.222,0.4571 1.625,0.004 1.625,-1.8301 0,-1.3414 -0.3937,-2.683 -0.875,-2.9805 -1.4469,-0.8942 -0.9852,-3.4218 0.625,-3.4219 z m -6.5,7 c -0.55,0 -1,0.45002 -1,1 0,0.55003 0.45,1 1,1 0.55,0 1,-0.45 1,-1 0,-0.55 -0.45,-1 -1,-1 z m 15.309,1 c 0.5489,10e-6 -0.0133,0.87452 -1.248,1.9453 -1.2346,1.0708 -1.9516,2.4208 -1.5938,3 0.358,0.5792 0.42539,1.0547 0.15039,1.0547 -0.275,0 -0.79495,-0.47985 -1.1562,-1.0644 -0.715,-1.1569 2.2312,-4.9355 3.8476,-4.9356 z m -204.74,0.0371 c -1.8556,0.0761 -3.9943,0.57029 -5.1309,1.4297 -1.7879,1.3518 -1.6878,1.3976 1.2656,0.58203 1.7636,-0.487 4.1261,-0.64546 5.25,-0.35156 1.1569,0.3025 2.043,0.0502 2.043,-0.58203 0,-0.81275 -1.5722,-1.1543 -3.4277,-1.0781 z m 26.377,1.1367 c -0.44406,-0.0131 -1.6355,1.7684 -3.332,5.3516 -2.8041,5.9223 -3.3977,11.026 -1.3672,11.754 2.0846,0.7477 2.7141,-0.21431 2.1113,-3.2285 -0.3435,-1.7174 0.23234,-5.1147 1.4355,-8.4609 1.2927,-3.595 1.5964,-5.403 1.1524,-5.416 z m -16.23,2.0391 c -0.29407,0.0752 -0.96433,0.7124 -2.0039,1.9746 -1.2178,1.4785 -3.5055,2.8585 -5.082,3.0664 -1.7456,0.2302 -3.3938,1.3304 -4.2148,2.8125 -0.7414,1.3386 -1.4198,1.8711 -1.5078,1.1836 -0.0883,-0.6875 -0.21616,-1.7763 -0.28516,-2.418 -0.23,-2.1468 -2.625,-2.0698 -2.625,0.084 0,1.1458 -0.40138,2.084 -0.89258,2.084 -1.1021,0 -2.1074,-2.4829 -2.1074,-5.2051 0,-1.7549 -0.2236,-1.8555 -1.5957,-0.7168 -2.0026,1.662 -1.148,8.4267 1.4414,11.41 0.96,1.1061 2.3637,3.2492 3.1191,4.7617 1.4558,2.915 4.7012,3.778 4.7012,1.25 0,-0.82497 -0.37373,-1.5 -0.83203,-1.5 -0.4584,0 -0.83398,-0.52626 -0.83398,-1.168 0,-0.6416 0.2963,-0.86972 0.6582,-0.50782 0.3619,0.3619 1.2616,0.15577 2,-0.45703 1.062,-0.8814 1.4727,-0.46073 1.9668,2.0098 0.3781,1.8909 1.2661,3.1626 2.25,3.2226 0.9269,0.0568 0.551,0.44291 -0.875,0.90039 -1.3845,0.44421 10.568,0.83219 26.787,0.86719 18.583,0.0402 29.07,-0.28984 28.691,-0.90234 -0.3281,-0.5308 -1.2446,-0.96481 -2.0371,-0.96485 -0.7926,0 -1.4414,-0.45 -1.4414,-1 0,-0.54998 -0.675,-1 -1.5,-1 -1.5825,0 -1.8779,-1.9889 -0.85938,-5.791 0.9156,-3.4183 2.6017,-2.1474 3.0586,2.3066 0.2211,2.1546 0.55403,4.0698 0.74023,4.2559 0.1861,0.1862 1.5688,-0.80207 3.0742,-2.1973 2.5133,-2.3292 5.2906,-2.6858 3.9434,-0.50586 -0.3165,0.512 0.12688,0.93166 0.98438,0.93164 1.1212,1e-5 1.5798,-1.053 1.6348,-3.75 0.0421,-2.0625 0.22781,-4.5375 0.41211,-5.5 0.1843,-0.96249 -0.0749,-1.75 -0.57617,-1.75 -0.5013,0 -0.91211,0.53355 -0.91211,1.1856 0,1.6489 -4.0647,5.8144 -5.6738,5.8144 -0.7292,0 -1.3603,-1.0125 -1.4023,-2.25 -0.1011,-2.989 -2.3959,-9.25 -3.3906,-9.25 -0.4339,0 -0.89759,1.3691 -1.0293,3.043 -0.1316,1.6739 -1.0057,4.5266 -1.9434,6.3398 -0.9376,1.8133 -1.4684,3.9181 -1.1777,4.6758 0.2908,0.7578 0.15155,1.6108 -0.31054,1.8965 -1.6076,0.9935 -3.2375,-5.0688 -2.4414,-9.0801 0.4232,-2.132 0.67505,-4.3673 0.56055,-4.9687 -0.1146,-0.6016 0.80898,-1.5848 2.0508,-2.1836 2.0916,-1.0084 2.1104,-1.0908 0.25781,-1.1328 -2.7979,-0.0636 -5.9703,2.7135 -8.4648,7.4102 -1.1684,2.2 -2.8336,5.0125 -3.7012,6.25 -0.9024,1.287 -1.1192,2.25 -0.50586,2.25 0.5898,0 1.5108,-0.78428 2.0469,-1.7422 1.0885,-1.945 2.3912,-1.1857 2.5898,1.5098 0.0716,0.9719 0.47173,2.3222 0.89063,3 0.519,0.8396 0.0262,1.2361 -1.5469,1.2461 -1.27,0.007 -3.4336,0.2888 -4.8086,0.625 -2.4343,0.5953 -2.4474,0.57026 -0.5,-0.96094 1.8402,-1.447 1.6805,-1.4652 -2,-0.21289 l -4,1.3613 -0.80664,-3.0234 c -0.4439,-1.6627 -0.5564,-3.2738 -0.25,-3.5801 0.3063,-0.3064 0.55664,0.14611 0.55664,1.0039 0,1.4582 1.948,2.7734 4.1074,2.7734 0.5192,0 0.21512,-1.4098 -0.67578,-3.1328 -1.1467,-2.2174 -1.2955,-3.3343 -0.50586,-3.8223 0.6135,-0.3792 2.0073,-3.1259 3.0957,-6.1035 2.2696,-6.2094 2.214,-5.9414 1.2285,-5.9414 -0.4125,6.1e-4 -2.037,2.2923 -3.6094,5.0918 -2.8883,5.1423 -4.1952,5.4106 -4.8066,0.98633 -0.1841,-1.3319 -0.90059,-2.6082 -1.5918,-2.8359 -1.5079,-0.4966 -1.1938,2.2554 0.63672,5.5898 1.0765,1.961 1.0289,2.613 -0.29883,4.0801 -0.8689,0.9601 -1.6172,2.8343 -1.6602,4.166 -0.0434,1.3315 -0.28897,1.9064 -0.54687,1.2773 -0.258,-0.6334 -1.3482,-0.91361 -2.4219,-0.63281 -2.2936,0.5998 -2.6258,2.2774 -0.45117,2.2773 0.825,0 1.5,0.48006 1.5,1.0684 0,0.5882 -1.0125,0.9257 -2.25,0.75 -1.5969,-0.2268 -2.1694,-0.89895 -1.9727,-2.3184 0.2733,-1.9706 0.25581,-1.973 -1.2461,-0.0644 -1.649,2.0957 -1.6499,2.6876 -0.0156,-10.936 l 0.48047,-4 -2.1016,2.4883 c -1.6951,2.0071 -1.9874,3.3206 -1.5117,6.791 0.426,3.1076 0.24652,4.2576 -0.64648,4.1426 -2.6941,-0.3468 -3.7395,0.15454 -3.8145,1.8281 -0.0551,1.2201 -0.24309,1.3372 -0.62109,0.38672 -0.4577,-1.1508 -0.67715,-1.1508 -1.4062,0 -0.6324,0.9983 -0.86791,1.0287 -0.87891,0.11328 -0.008,-0.6875 -0.69965,-1.25 -1.5352,-1.25 -1.1499,0 -1.3588,-0.6684 -0.86133,-2.75 0.8783,-3.6744 1.2623,-4.25 2.832,-4.25 0.733,0 1.631,1.19 1.9961,2.6445 0.50659,2.0188 0.93923,2.3674 1.832,1.4746 0.89277,-0.8928 0.85116,-1.6821 -0.18164,-3.3359 -1.2199,-1.9534 -1.0848,-2.3977 1.3887,-4.5254 2.9925,-2.574 2.8404,-4.0396 -0.24805,-2.3867 -1.3528,0.7236 -2.2608,0.706 -3.0293,-0.0625 -0.7971,-0.7972 -1.2798,-0.37343 -1.7617,1.5469 -0.3651,1.4545 -1.0662,2.6445 -1.5566,2.6445 -1.525,0 -0.97371,-3.3525 1.1133,-6.7754 1.6476,-2.7022 2.205,-4.1371 1.7148,-4.0117 z m 158.16,0.9746 c -0.53309,0.11069 -2.768,3.3619 -4.4062,6.5195 -1.4503,2.7955 -1.346,2.8751 -2.9688,-2.2715 -1.1154,-3.5375 -2.204,-0.18812 -1.377,4.2383 0.5642,3.0203 0.5197,5.074 -0.125,5.7188 -0.5534,0.5533 -1.0059,1.6236 -1.0059,2.3789 0,2.2383 3.4718,0.90726 3.8106,-1.4609 0.1705,-1.1919 0.93449,-2.6857 1.6992,-3.3203 1.1232,-0.9322 1.5532,-0.52673 2.2363,2.1094 0.9367,3.6148 3.2539,5.1529 3.2539,2.1602 0,-1.0479 -0.70621,-3.9796 -1.5703,-6.5156 -1.1732,-3.4433 -1.2999,-5.1188 -0.5,-6.6133 0.5891,-1.1008 1.0703,-2.3555 1.0703,-2.7891 0,-0.1218 -0.041,-0.1701 -0.11719,-0.1543 z m 30.547,0.16211 c 0.0228,-0.005 0.0487,0.002 0.0781,0.0195 0.14124,0.086 0.3614,0.43298 0.6875,1.0156 0.5583,0.9977 0.6297,2.1893 0.1582,2.6602 -0.4712,0.4706 -0.92471,-0.33874 -1.0117,-1.8066 -0.074,-1.2508 -0.0716,-1.8536 0.0879,-1.8887 z m -17.723,1.25 c 0.334,-0.0396 0.60864,0.10229 0.80859,0.42579 0.342,0.5535 1.0353,0.75 1.541,0.4375 0.5057,-0.3126 0.64735,0.14216 0.31445,1.0098 -0.4994,1.3014 -0.88018,1.355 -2.1758,0.30274 -1.3332,-1.0828 -1.4709,-1.011 -0.91406,0.4746 0.771,2.0573 0.36981,2.2468 -1.0586,0.5 -0.713,-0.8718 -0.61509,-1.6254 0.32421,-2.4902 0.43295,-0.39865 0.82616,-0.62052 1.1602,-0.66016 z m -138.52,1.3984 c -0.731,0 -3.321,4.4694 -5.3887,9.3008 -1.3776,3.2189 0.93913,0.82449 3.6074,-3.7285 2.7875,-4.7565 3.0492,-5.5723 1.7812,-5.5723 z m 55.352,1.2031 c -0.0656,0.0167 -0.12789,0.0556 -0.1875,0.11523 -0.2686,0.2686 0.10448,2.443 0.83008,4.834 1.1729,3.8648 1.3557,4.0491 1.6328,1.6484 0.28753,-2.4916 -1.2912,-6.8488 -2.2754,-6.5976 z m -51.002,0.19531 c 0.10159,-0.0242 0.1945,-7.8e-4 0.27148,0.0762 0.3079,0.3079 -1.9e-4,1.1146 -0.68359,1.793 -0.9876,0.9802 -1.1013,0.86465 -0.5586,-0.56055 0.28163,-0.73965 0.66593,-1.2361 0.97071,-1.3086 z m 132.19,1.9453 c 0.23693,-0.0258 0.46503,0.15923 0.70703,0.55078 0.3762,0.6088 0.15371,1.1074 -0.49609,1.1074 -0.8808,0 -0.8652,0.38222 0.0625,1.5 0.7175,0.8646 0.81577,1.5 0.23047,1.5 -1.4224,1e-5 -2.1992,-2.4324 -1.2617,-3.9492 0.2768,-0.44795 0.52089,-0.68324 0.75781,-0.70899 z m -152.63,1.6973 c -0.24673,0.0134 -0.59258,0.14562 -1.0332,0.41797 -0.5866,0.3625 -1.0522,1.4196 -1.0352,2.3496 0.028,1.4847 0.21023,1.4575 1.4902,-0.23438 1.1661,-1.5413 1.3183,-2.5735 0.57813,-2.5332 z m 127.9,0.95898 c -1.0973,0 -1.3568,4.9054 -0.39258,7.418 0.3339,0.87 1.0555,1.582 1.6055,1.582 0.55,0 0.72843,-0.71203 0.39453,-1.582 -0.3338,-0.87 -0.60742,-2.895 -0.60742,-4.5 0,-1.605 -0.45,-2.918 -1,-2.918 z m -80.91,0.39453 c -0.20559,-0.0249 -0.45922,-0.0152 -0.76172,0.0293 -1.2781,0.188 -1.8402,1.1408 -1.8652,3.1719 -0.02,1.5972 -0.38369,3.4669 -0.80859,4.1543 -0.4249,0.6875 -0.33358,1.25 0.20312,1.25 0.5366,0 1.1651,-0.5625 1.3965,-1.25 0.3267,-0.9708 0.79742,-0.93882 2.1074,0.14258 2.3484,1.9387 2.8238,1.018 1.1445,-2.2188 -0.7805,-1.5044 -1.1786,-3.3614 -0.88477,-4.127 0.2652,-0.69128 0.0855,-1.0776 -0.53125,-1.1524 z m 32.885,0.10742 -0.0566,3.5 c -0.0784,4.7088 -1.0638,6.6386 -3.168,6.209 -2.1875,-0.4467 -2.2244,-0.17482 0.73828,-5.3574 l 2.4863,-4.3516 z m -14.248,1.209 v 3.9785 c 0,2.6928 -0.44028,3.9785 -1.3633,3.9785 -2.9311,0 -3.115,-2.1335 -0.47851,-5.5625 l 1.8418,-2.3945 z m 19.479,2.7129 c 0.46282,-0.0542 0.79492,0.7476 0.79492,2.0176 0,1.4074 -0.45,2.5606 -1,2.5605 -0.55,0 -1,-0.8738 -1,-1.9414 0,-1.0675 0.45,-2.2187 1,-2.5586 0.0709,-0.0438 0.13896,-0.0704 0.20508,-0.0781 z m 6.7871,0.51172 c 0.66753,0.12475 1.9764,2.5077 1.9922,3.875 0.008,0.72 -0.43437,1.0313 -0.98437,0.6914 -0.55,-0.33987 -1,-0.0138 -1,0.72657 0,0.7404 -0.9,1.415 -2,1.498 -1.1,0.0829 -2,-0.0622 -2,-0.32226 0,-0.4054 2.684,-4.9659 3.752,-6.375 0.0636,-0.0839 0.14487,-0.11157 0.24024,-0.0937 z m -33.758,0.19726 c 0.15268,0.005 0.28245,0.052 0.38086,0.1504 0.3116,0.31199 0.29414,1.4268 -0.0391,2.4766 -0.6617,2.0847 -3.5762,2.6529 -3.5762,0.69726 0,-1.2937 2.1656,-3.3563 3.2344,-3.3242 z m 117.42,0.73633 c 0.23189,-0.0296 0.3457,0.15577 0.3457,0.55469 0,0.8672 -0.45,1.5781 -1,1.5781 -0.55,0 -1,0.38568 -1,0.85938 0,0.4735 1.125,0.64757 2.5,0.38477 1.4594,-0.279 2.5,-0.0131 2.5,0.63867 0,0.6141 -1.088,1.1172 -2.418,1.1172 -1.33,0 -3.13,0.27157 -4,0.60547 -2.2586,0.8667 -1.9592,-0.36966 0.91797,-3.7891 1.0542,-1.2528 1.7678,-1.8999 2.1543,-1.9492 z m -197.75,1.1328 c 0.4985,0 0.67041,0.90001 0.38281,2 -0.2877,1.1 -0.69545,2 -0.90625,2 -0.2109,10e-6 -0.38281,-0.89998 -0.38281,-2 0,-1.1 0.40775,-2 0.90625,-2 z m 41.988,0.0527 c 0.56942,0.0728 1.0779,0.73656 1.3945,1.9473 0.5664,2.1662 -0.0149,2.4594 -2.168,1.0957 -0.758,-0.4801 -1.0674,-1.3729 -0.68945,-1.9844 0.39548,-0.6399 0.81444,-0.98644 1.2148,-1.0527 0.0834,-0.0138 0.16671,-0.0163 0.24805,-0.006 z m 32.74,2.2832 c 0.22236,0.0463 0.36523,0.23555 0.36523,0.54492 0,0.55 -0.45,1.2793 -1,1.6191 -0.55,0.3399 -1,0.16719 -1,-0.38281 0,-0.55 0.45,-1.2773 1,-1.6172 0.1375,-0.085 0.26914,-0.13902 0.38867,-0.1621 0.0897,-0.0173 0.17194,-0.0174 0.2461,-0.002 z m -9.1113,1.7363 c -0.39436,-10e-4 -0.39774,0.32103 -0.006,0.95508 0.5858,0.9478 0.22637,1.1379 -1.3613,0.72265 -1.186,-0.31009 -2.1562,-0.1567 -2.1562,0.3418 0,0.4985 1.3881,0.9082 3.084,0.9082 3.0753,10e-6 3.7252,-1.8984 0.96485,-2.8184 -0.21783,-0.0726 -0.39394,-0.10893 -0.52539,-0.10938 z m 146.61,1.6836 c -0.0881,0.0671 -0.13477,0.14188 -0.13477,0.22461 0,0.0703 0.0713,0.13741 0.18945,0.20118 l -0.0547,-0.42579 z m -222.26,0.36133 c -0.90625,-0.003 -1.8494,0.0531 -2.6094,0.16797 -1.5201,0.2299 -0.51367,0.42164 2.2363,0.43164 2.7498,0.007 3.9936,-0.18067 2.7637,-0.41797 -0.615,-0.11885 -1.4844,-0.17913 -2.3906,-0.18164 z"
       id="path8"
       inkscape:connector-curvature="0" />
  </g>
</svg>
