<?xml version="1.0" encoding="UTF-8" standalone="no"?>
<svg
   xmlns:dc="http://purl.org/dc/elements/1.1/"
   xmlns:cc="http://creativecommons.org/ns#"
   xmlns:rdf="http://www.w3.org/1999/02/22-rdf-syntax-ns#"
   xmlns:svg="http://www.w3.org/2000/svg"
   xmlns="http://www.w3.org/2000/svg"
   xmlns:sodipodi="http://sodipodi.sourceforge.net/DTD/sodipodi-0.dtd"
   xmlns:inkscape="http://www.inkscape.org/namespaces/inkscape"
   width="688.99701"
   height="390.68515"
   viewBox="0 0 516.7479 293.01404"
   version="1.1"
   id="svg3845"
   sodipodi:docname="cropped_Good-Loop_PrimaryLogo_White.svg"
   inkscape:version="0.92.4 (unknown)">
  <metadata
     id="metadata3851">
    <rdf:RDF>
      <cc:Work
         rdf:about="">
        <dc:format>image/svg+xml</dc:format>
        <dc:type
           rdf:resource="http://purl.org/dc/dcmitype/StillImage" />
        <dc:title>GoodLoopLogos</dc:title>
      </cc:Work>
    </rdf:RDF>
  </metadata>
  <defs
     id="defs3849" />
  <sodipodi:namedview
     pagecolor="#ffffff"
     bordercolor="#666666"
     borderopacity="1"
     objecttolerance="10"
     gridtolerance="10"
     guidetolerance="10"
     inkscape:pageopacity="0"
     inkscape:pageshadow="2"
     inkscape:window-width="1920"
     inkscape:window-height="1052"
     id="namedview3847"
     showgrid="false"
     fit-margin-top="5"
     fit-margin-left="5"
     fit-margin-right="5"
     fit-margin-bottom="5"
     units="px"
     inkscape:zoom="1.0847917"
     inkscape:cx="243.56024"
     inkscape:cy="195.34397"
     inkscape:window-x="1920"
     inkscape:window-y="0"
     inkscape:window-maximized="1"
     inkscape:current-layer="svg3845" />
  <title
     id="title3819">GoodLoopLogos</title>
  <g
     id="g3843"
     transform="translate(-162.569,-151.132)">
    <g
       id="g3839">
      <path
         d="m 195.777,399.106 a 16.132,16.132 0 0 1 12.522,5.708 l 9.277,-8.344 c -5.079,-6.075 -12.888,-9.371 -22.537,-9.371 -16.719,0 -28.72,11.054 -28.72,26.648 0,15.594 12,26.648 28.427,26.648 7.514,0 15.688,-2.272 21.655,-6.516 v -21.23 h -12.888 v 14.056 a 18.636,18.636 0 0 1 -7.88,1.685 c -8.7,0 -14.585,-6 -14.585,-14.643 0,-8.859 5.889,-14.641 14.729,-14.641 z"
         id="path3821"
         inkscape:connector-curvature="0"
         style="fill:#ffffff" />
      <path
         d="m 251.711,387.1 c -16.5,0 -28.648,11.274 -28.648,26.648 0,15.374 12.15,26.648 28.648,26.648 16.498,0 28.647,-11.275 28.647,-26.648 0,-15.373 -12.15,-26.648 -28.647,-26.648 z m 0,41.292 c -7.808,0 -13.919,-5.787 -13.919,-14.644 0,-8.857 6.111,-14.64 13.919,-14.64 7.808,0 13.919,5.782 13.919,14.64 0,8.858 -6.111,14.642 -13.919,14.642 z"
         id="path3823"
         inkscape:connector-curvature="0"
         style="fill:#ffffff" />
      <path
         d="m 314.055,387.1 c -16.5,0 -28.647,11.274 -28.647,26.648 0,15.374 12.15,26.648 28.647,26.648 16.497,0 28.645,-11.277 28.645,-26.65 0,-15.373 -12.147,-26.646 -28.645,-26.646 z m 0,41.292 c -7.808,0 -13.919,-5.787 -13.919,-14.644 0,-8.857 6.111,-14.64 13.919,-14.64 7.808,0 13.919,5.782 13.919,14.64 0,8.858 -6.111,14.642 -13.919,14.642 z"
         id="path3825"
         inkscape:connector-curvature="0"
         style="fill:#ffffff" />
      <path
         d="M 374.78,388.124 H 350.4 v 51.245 h 24.38 c 17.085,0 28.8,-9.884 28.8,-25.623 0,-15.739 -11.715,-25.622 -28.8,-25.622 z m -0.587,39.678 h -9.212 v -28.111 h 9.212 c 8.761,0 14.65,5.2 14.65,14.055 0,8.855 -5.889,14.054 -14.65,14.054 z"
         id="path3827"
         inkscape:connector-curvature="0"
         style="fill:#ffffff" />
      <polygon
         points="474.846,427.876 474.846,388.123 460.267,388.123 460.267,439.37 499.446,439.37 499.446,427.876 "
         id="polygon3829"
         style="fill:#ffffff" />
      <path
         d="m 530.408,387.1 c -16.5,0 -28.648,11.274 -28.648,26.648 0,15.374 12.15,26.648 28.648,26.648 16.498,0 28.648,-11.275 28.648,-26.648 0,-15.373 -12.15,-26.648 -28.648,-26.648 z m 0,41.292 c -7.808,0 -13.919,-5.787 -13.919,-14.644 0,-8.857 6.111,-14.64 13.919,-14.64 7.808,0 13.919,5.782 13.919,14.64 0,8.858 -6.111,14.642 -13.919,14.642 z"
         id="path3831"
         inkscape:connector-curvature="0"
         style="fill:#ffffff" />
      <path
         d="m 592.753,387.1 c -16.5,0 -28.648,11.274 -28.648,26.648 0,15.374 12.15,26.648 28.648,26.648 16.498,0 28.647,-11.277 28.647,-26.65 0,-15.373 -12.15,-26.646 -28.647,-26.646 z m 0,41.292 c -7.808,0 -13.919,-5.787 -13.919,-14.644 0,-8.857 6.111,-14.64 13.919,-14.64 7.808,0 13.919,5.782 13.919,14.64 0,8.858 -6.111,14.642 -13.919,14.642 z"
         id="path3833"
         inkscape:connector-curvature="0"
         style="fill:#ffffff" />
      <path
         d="M 652.667,388.123 H 629.1 v 51.245 h 14.578 v -13.4 h 8.989 c 14.064,0 22.9,-7.249 22.9,-18.887 0.003,-11.71 -8.836,-18.958 -22.9,-18.958 z m -0.887,26.428 h -8.1 v -15.006 h 8.1 c 6.039,0 9.062,2.78 9.062,7.54 0,4.686 -3.023,7.466 -9.062,7.466 z"
         id="path3835"
         inkscape:connector-curvature="0"
         style="fill:#ffffff" />
      <rect
         x="415.953"
         y="405.491"
         width="27.291"
         height="15.11"
         id="rect3837"
         style="fill:#ffffff" />
    </g>
    <path
       d="m 393.713,294.909 c 0.183,0.224 -4.6,5.161 -5.085,5.765 a 25.077,25.077 0 0 0 -4.793,9.524 c -1.616,6.52 -0.327,15.394 6.229,18.85 10.031,5.287 19.538,-6.919 19.208,-16.7 -0.286,-8.552 -3.459,-16.44 -9.968,-21.843 -1.7,-1.414 -5.111,-4.118 -5.111,-4.118 -3.292,-2.586 -6.625,-5.056 -10.168,-7.428 -4.654,-3.118 -9.566,-6.3 -13.216,-10.6 -11.375,-13.409 -12.828,-35.373 -1.69,-49.346 a 31.793,31.793 0 0 1 3.18,-3.5 26.234,26.234 0 0 1 18.752,-7.454 c 9.72,0.224 19.162,5.974 25.089,15.249 2.2,3.445 0.557,6.749 -2.186,8.343 a 7.438,7.438 0 0 1 -2.26,0.856 6.088,6.088 0 0 1 -6.545,-2.812 c -5.081,-7.951 -13.417,-11.167 -20.576,-7.4 a 17.746,17.746 0 0 0 -5.9,5.165 c -0.211,0.281 -0.39,0.58 -0.586,0.87 -6.458,9.533 -4.7,23.4 2.51,31.963 6.04,7.183 14.453,11.914 22.138,17.355 0.16,0.112 0.3,0.254 0.463,0.37 v 0 a 49.32,49.32 0 0 1 13.8,15.565 38.538,38.538 0 0 1 3.148,7.111 c 4.744,14.809 -0.337,34.474 -15.849,40.028 a 95.284,95.284 0 0 0 16.654,1.488 c 52.042,0 94.232,-41.935 94.232,-93.665 a 93.338,93.338 0 0 0 -38.414,-75.453 c 2.894,13.43 -1.551,30.752 -6.465,40.4 a 107.973,107.973 0 0 1 -13.5,19.976 q -2.527,3.033 -5.208,5.966 c -0.826,-2.163 -1.53,-4.363 -2.157,-6.584 v 0 q -1.185,-4.194 -1.983,-8.489 c 1.882,-2.262 3.729,-4.553 5.445,-6.944 6.989,-9.738 11.428,-20.09 11.612,-32.307 0.087,-5.62 -1.084,-14.453 -5.884,-16.715 -1.767,-0.832 -4.012,-0.8 -6.887,0.648 -0.208,0.1 -0.39,0.244 -0.591,0.358 -10.548,5.964 -11.717,24.023 -11.946,34.379 -0.088,4 0.047,8.032 0.345,12.063 a 5.769,5.769 0 0 0 0.065,1.071 113.946,113.946 0 0 0 3.975,22.784 v 0 a 73.686,73.686 0 0 0 3.685,10 c 2.5,5.443 6.944,15.353 13.532,16.854 2.477,0.565 4.71,-0.979 6.208,-6.024 a 36.089,36.089 0 0 0 1.045,-4.877 5,5 0 0 1 5.825,-4.513 7.488,7.488 0 0 1 2.162,0.538 6.775,6.775 0 0 1 4.288,7.338 29.458,29.458 0 0 1 -4.34,11.883 c -4.811,7.3 -12.635,10.327 -20.567,7.471 a 25.709,25.709 0 0 1 -9.8,-6.654 c -5.222,-5.5 -8.676,-12.555 -11.32,-19.571 -0.263,-0.7 -0.5,-1.416 -0.746,-2.124 v 0 a 137.062,137.062 0 0 1 -6.427,-30.688 c -1.6,-15.531 -1.218,-32.7 5.607,-46.923 a 34.793,34.793 0 0 1 9.97,-12.274 29.161,29.161 0 0 1 2.935,-1.978 94.789,94.789 0 0 0 -24.7,-3.274 c -52.043,0 -94.232,41.936 -94.232,93.664 a 93.5,93.5 0 0 0 46.641,80.832 c -7.081,-13.014 -1.124,-31.115 9.04,-40.935 0.46,-0.445 1.7,-1.571 1.7,-1.571 a 50.717,50.717 0 0 1 5.56,4.037 c 1.351,1.103 4.057,4 4.057,4 z m 21.119,-17.379 a 75.178,75.178 0 0 0 -5.922,-4.673 v 0 c -0.279,-0.2 -0.547,-0.414 -0.828,-0.613 -1.126,-0.8 -2.269,-1.578 -3.416,-2.354 2.371,-2.7 4.761,-5.326 7.069,-7.8 4.36,-4.664 8.916,-9.2 13.481,-13.733 0.42,1.274 0.86,2.537 1.329,3.782 0.416,1.1 0.878,2.2 1.341,3.3 v 0 c 0.795,1.891 1.638,3.771 2.588,5.6 -1.822,1.812 -3.644,3.623 -5.4,5.44 -3.442,3.578 -6.91,7.256 -10.242,11.051 z"
       id="path3841"
       inkscape:connector-curvature="0"
       style="fill:#ffffff" />
  </g>
</svg>
